<svg version="1.1" viewBox="0.0 0.0 667.0 415.0" fill="none" stroke="none" stroke-linecap="square" stroke-miterlimit="10" width="667" height="415" xmlns:xlink="http://www.w3.org/1999/xlink" xmlns="http://www.w3.org/2000/svg"><path fill="#131418" d="M0 0L667.0 0L667.0 415.0L0 415.0L0 0Z" fill-rule="nonzero"/><path stroke="#ffffff" stroke-width="1.0" stroke-linecap="butt" d="M183.5 55.5L183.5 342.5" fill-rule="nonzero"/><path stroke="#ffffff" stroke-width="1.0" stroke-linecap="butt" d="M299.5 55.5L299.5 342.5" fill-rule="nonzero"/><path stroke="#ffffff" stroke-width="1.0" stroke-linecap="butt" d="M414.5 55.5L414.5 342.5" fill-rule="nonzero"/><path stroke="#ffffff" stroke-width="1.0" stroke-linecap="butt" d="M530.5 55.5L530.5 342.5" fill-rule="nonzero"/><path stroke="#ffffff" stroke-width="1.0" stroke-linecap="butt" d="M646.5 55.5L646.5 342.5" fill-rule="nonzero"/><path stroke="#ffffff" stroke-width="1.0" stroke-linecap="butt" d="M96.5 317.5L646.5 317.5" fill-rule="nonzero"/><path stroke="#ffffff" stroke-width="1.0" stroke-linecap="butt" d="M96.5 285.5L646.5 285.5" fill-rule="nonzero"/><path stroke="#ffffff" stroke-width="1.0" stroke-linecap="butt" d="M96.5 211.5L646.5 211.5" fill-rule="nonzero"/><path stroke="#ffffff" stroke-width="1.0" stroke-linecap="butt" d="M96.5 179.5L646.5 179.5" fill-rule="nonzero"/><path stroke="#ffffff" stroke-width="1.0" stroke-linecap="butt" d="M96.5 106.5L646.5 106.5" fill-rule="nonzero"/><path stroke="#ffffff" stroke-width="1.0" stroke-linecap="butt" d="M96.5 74.5L646.5 74.5" fill-rule="nonzero"/><clipPath id="id_0"><path d="M96.75 55.583332L646.25 55.583332L646.25 342.25L96.75 342.25L96.75 55.583332Z" clip-rule="nonzero"/></clipPath><path stroke="#4285f4" stroke-width="2.0" stroke-linecap="butt" clip-path="url(#id_0)" d="M96.75 79.67143L125.67105 80.60163L154.5921 84.91574L183.51315 80.44353L212.4342 81.43264L241.35527 79.249176L270.2763 78.9572L299.19736 77.4646L328.1184 79.31757L357.03946 73.08046L385.96054 75.09939L414.8816 74.06801L443.80264 73.83962L472.7237 70.19948L501.64474 71.59878L530.5658 75.12174L559.4868 74.52005L588.4079 74.94638L617.3289 74.535515L646.25 73.35015" fill-rule="nonzero"/><path stroke="#ea4335" stroke-width="2.0" stroke-linecap="butt" clip-path="url(#id_0)" d="M96.75 100.07102L125.67105 120.62061L154.5921 107.15625L183.51315 109.07821L212.4342 111.74497L241.35527 107.91541L270.2763 102.50586L299.19736 101.12351L328.1184 95.572044L357.03946 92.6262L385.96054 85.04244L414.8816 86.20958L443.80264 83.80516L472.7237 80.10657L501.64474 80.28597L530.5658 80.680885L559.4868 82.56198L588.4079 85.10945L617.3289 84.73298L646.25 84.81148" fill-rule="nonzero"/><path stroke="#fbbc04" stroke-width="2.0" stroke-linecap="butt" clip-path="url(#id_0)" d="M96.75 272.13376L125.67105 305.35635L154.5921 293.35706L183.51315 305.8521L212.4342 332.533L241.35527 316.63788L270.2763 326.50208L299.19736 306.20953L328.1184 318.5795L357.03946 342.25L385.96054 339.9085L414.8816 337.56854L443.80264 327.09473L472.7237 331.37656L501.64474 335.62177L530.5658 323.41852L559.4868 340.82886L588.4079 339.33832L617.3289 329.77164L646.25 332.63495" fill-rule="nonzero"/><path fill="#000000" fill-opacity="0.0" clip-path="url(#id_0)" d="M99.75 79.67143C99.75 81.32829 98.40685 82.67143 96.75 82.67143C95.09315 82.67143 93.75 81.32829 93.75 79.67143C93.75 78.01458 95.09315 76.67143 96.75 76.67143C98.40685 76.67143 99.75 78.01458 99.75 79.67143Z" fill-rule="nonzero"/><path fill="#000000" fill-opacity="0.0" clip-path="url(#id_0)" d="M128.67105 80.60163C128.67105 82.258484 127.3279 83.60163 125.67105 83.60163C124.0142 83.60163 122.67105 82.258484 122.67105 80.60163C122.67105 78.94478 124.0142 77.60163 125.67105 77.60163C127.3279 77.60163 128.67105 78.94478 128.67105 80.60163Z" fill-rule="nonzero"/><path fill="#000000" fill-opacity="0.0" clip-path="url(#id_0)" d="M157.5921 84.91574C157.5921 86.57259 156.24896 87.91574 154.5921 87.91574C152.93526 87.91574 151.5921 86.57259 151.5921 84.91574C151.5921 83.25889 152.93526 81.91574 154.5921 81.91574C156.24896 81.91574 157.5921 83.25889 157.5921 84.91574Z" fill-rule="nonzero"/><path fill="#000000" fill-opacity="0.0" clip-path="url(#id_0)" d="M186.51315 80.44353C186.51315 82.10039 185.17001 83.44353 183.51315 83.44353C181.85631 83.44353 180.51315 82.10039 180.51315 80.44353C180.51315 78.786674 181.85631 77.44353 183.51315 77.44353C185.17001 77.44353 186.51315 78.786674 186.51315 80.44353Z" fill-rule="nonzero"/><path fill="#000000" fill-opacity="0.0" clip-path="url(#id_0)" d="M215.4342 81.43264C215.4342 83.08949 214.09106 84.43264 212.4342 84.43264C210.77736 84.43264 209.4342 83.08949 209.4342 81.43264C209.4342 79.77579 210.77736 78.43264 212.4342 78.43264C214.09106 78.43264 215.4342 79.77579 215.4342 81.43264Z" fill-rule="nonzero"/><path fill="#000000" fill-opacity="0.0" clip-path="url(#id_0)" d="M244.35527 79.249176C244.35527 80.90603 243.01212 82.249176 241.35527 82.249176C239.69841 82.249176 238.35527 80.90603 238.35527 79.249176C238.35527 77.59232 239.69841 76.249176 241.35527 76.249176C243.01212 76.249176 244.35527 77.59232 244.35527 79.249176Z" fill-rule="nonzero"/><path fill="#000000" fill-opacity="0.0" clip-path="url(#id_0)" d="M273.2763 78.9572C273.2763 80.61405 271.93317 81.9572 270.2763 81.9572C268.61948 81.9572 267.2763 80.61405 267.2763 78.9572C267.2763 77.30035 268.61948 75.9572 270.2763 75.9572C271.93317 75.9572 273.2763 77.30035 273.2763 78.9572Z" fill-rule="nonzero"/><path fill="#000000" fill-opacity="0.0" clip-path="url(#id_0)" d="M302.19736 77.4646C302.19736 79.12146 300.85422 80.4646 299.19736 80.4646C297.54053 80.4646 296.19736 79.12146 296.19736 77.4646C296.19736 75.80775 297.54053 74.4646 299.19736 74.4646C300.85422 74.4646 302.19736 75.80775 302.19736 77.4646Z" fill-rule="nonzero"/><path fill="#000000" fill-opacity="0.0" clip-path="url(#id_0)" d="M331.1184 79.31757C331.1184 80.97443 329.77527 82.31757 328.1184 82.31757C326.46158 82.31757 325.1184 80.97443 325.1184 79.31757C325.1184 77.66072 326.46158 76.31757 328.1184 76.31757C329.77527 76.31757 331.1184 77.66072 331.1184 79.31757Z" fill-rule="nonzero"/><path fill="#000000" fill-opacity="0.0" clip-path="url(#id_0)" d="M360.03946 73.08046C360.03946 74.73732 358.69632 76.08046 357.03946 76.08046C355.38263 76.08046 354.03946 74.73732 354.03946 73.08046C354.03946 71.42361 355.38263 70.08046 357.03946 70.08046C358.69632 70.08046 360.03946 71.42361 360.03946 73.08046Z" fill-rule="nonzero"/><path fill="#000000" fill-opacity="0.0" clip-path="url(#id_0)" d="M388.96054 75.09939C388.96054 76.75624 387.61737 78.09939 385.96054 78.09939C384.30368 78.09939 382.96054 76.75624 382.96054 75.09939C382.96054 73.442535 384.30368 72.09939 385.96054 72.09939C387.61737 72.09939 388.96054 73.442535 388.96054 75.09939Z" fill-rule="nonzero"/><path fill="#000000" fill-opacity="0.0" clip-path="url(#id_0)" d="M417.8816 74.06801C417.8816 75.72486 416.53842 77.06801 414.8816 77.06801C413.22473 77.06801 411.8816 75.72486 411.8816 74.06801C411.8816 72.411156 413.22473 71.06801 414.8816 71.06801C416.53842 71.06801 417.8816 72.411156 417.8816 74.06801Z" fill-rule="nonzero"/><path fill="#000000" fill-opacity="0.0" clip-path="url(#id_0)" d="M446.80264 73.83962C446.80264 75.496475 445.45947 76.83962 443.80264 76.83962C442.14578 76.83962 440.80264 75.496475 440.80264 73.83962C440.80264 72.18277 442.14578 70.83962 443.80264 70.83962C445.45947 70.83962 446.80264 72.18277 446.80264 73.83962Z" fill-rule="nonzero"/><path fill="#000000" fill-opacity="0.0" clip-path="url(#id_0)" d="M475.7237 70.19948C475.7237 71.85633 474.38052 73.19948 472.7237 73.19948C471.06683 73.19948 469.7237 71.85633 469.7237 70.19948C469.7237 68.54262 471.06683 67.19948 472.7237 67.19948C474.38052 67.19948 475.7237 68.54262 475.7237 70.19948Z" fill-rule="nonzero"/><path fill="#000000" fill-opacity="0.0" clip-path="url(#id_0)" d="M504.64474 71.59878C504.64474 73.25564 503.3016 74.59878 501.64474 74.59878C499.98788 74.59878 498.64474 73.25564 498.64474 71.59878C498.64474 69.941925 499.98788 68.59878 501.64474 68.59878C503.3016 68.59878 504.64474 69.941925 504.64474 71.59878Z" fill-rule="nonzero"/><path fill="#000000" fill-opacity="0.0" clip-path="url(#id_0)" d="M533.5658 75.12174C533.5658 76.778595 532.22266 78.12174 530.5658 78.12174C528.90894 78.12174 527.5658 76.778595 527.5658 75.12174C527.5658 73.46489 528.90894 72.12174 530.5658 72.12174C532.22266 72.12174 533.5658 73.46489 533.5658 75.12174Z" fill-rule="nonzero"/><path fill="#000000" fill-opacity="0.0" clip-path="url(#id_0)" d="M562.4868 74.52005C562.4868 76.1769 561.1437 77.52005 559.4868 77.52005C557.83 77.52005 556.4868 76.1769 556.4868 74.52005C556.4868 72.8632 557.83 71.52005 559.4868 71.52005C561.1437 71.52005 562.4868 72.8632 562.4868 74.52005Z" fill-rule="nonzero"/><path fill="#000000" fill-opacity="0.0" clip-path="url(#id_0)" d="M591.4079 74.94638C591.4079 76.60323 590.06476 77.94638 588.4079 77.94638C586.75104 77.94638 585.4079 76.60323 585.4079 74.94638C585.4079 73.28952 586.75104 71.94638 588.4079 71.94638C590.06476 71.94638 591.4079 73.28952 591.4079 74.94638Z" fill-rule="nonzero"/><path fill="#000000" fill-opacity="0.0" clip-path="url(#id_0)" d="M620.3289 74.535515C620.3289 76.19237 618.9858 77.535515 617.3289 77.535515C615.6721 77.535515 614.3289 76.19237 614.3289 74.535515C614.3289 72.87866 615.6721 71.535515 617.3289 71.535515C618.9858 71.535515 620.3289 72.87866 620.3289 74.535515Z" fill-rule="nonzero"/><path fill="#000000" fill-opacity="0.0" clip-path="url(#id_0)" d="M649.25 73.35015C649.25 75.007 647.90686 76.35015 646.25 76.35015C644.59314 76.35015 643.25 75.007 643.25 73.35015C643.25 71.6933 644.59314 70.35015 646.25 70.35015C647.90686 70.35015 649.25 71.6933 649.25 73.35015Z" fill-rule="nonzero"/><path fill="#000000" fill-opacity="0.0" clip-path="url(#id_0)" d="M99.75 100.07102C99.75 101.727875 98.40685 103.07102 96.75 103.07102C95.09315 103.07102 93.75 101.727875 93.75 100.07102C93.75 98.41417 95.09315 97.07102 96.75 97.07102C98.40685 97.07102 99.75 98.41417 99.75 100.07102Z" fill-rule="nonzero"/><path fill="#000000" fill-opacity="0.0" clip-path="url(#id_0)" d="M128.67105 120.62061C128.67105 122.277466 127.3279 123.62061 125.67105 123.62061C124.0142 123.62061 122.67105 122.277466 122.67105 120.62061C122.67105 118.96376 124.0142 117.62061 125.67105 117.62061C127.3279 117.62061 128.67105 118.96376 128.67105 120.62061Z" fill-rule="nonzero"/><path fill="#000000" fill-opacity="0.0" clip-path="url(#id_0)" d="M157.5921 107.15625C157.5921 108.81311 156.24896 110.15625 154.5921 110.15625C152.93526 110.15625 151.5921 108.81311 151.5921 107.15625C151.5921 105.4994 152.93526 104.15625 154.5921 104.15625C156.24896 104.15625 157.5921 105.4994 157.5921 107.15625Z" fill-rule="nonzero"/><path fill="#000000" fill-opacity="0.0" clip-path="url(#id_0)" d="M186.51315 109.07821C186.51315 110.73507 185.17001 112.07821 183.51315 112.07821C181.85631 112.07821 180.51315 110.73507 180.51315 109.07821C180.51315 107.42136 181.85631 106.07821 183.51315 106.07821C185.17001 106.07821 186.51315 107.42136 186.51315 109.07821Z" fill-rule="nonzero"/><path fill="#000000" fill-opacity="0.0" clip-path="url(#id_0)" d="M215.4342 111.74497C215.4342 113.401825 214.09106 114.74497 212.4342 114.74497C210.77736 114.74497 209.4342 113.401825 209.4342 111.74497C209.4342 110.08812 210.77736 108.74497 212.4342 108.74497C214.09106 108.74497 215.4342 110.08812 215.4342 111.74497Z" fill-rule="nonzero"/><path fill="#000000" fill-opacity="0.0" clip-path="url(#id_0)" d="M244.35527 107.91541C244.35527 109.572266 243.01212 110.91541 241.35527 110.91541C239.69841 110.91541 238.35527 109.572266 238.35527 107.91541C238.35527 106.25856 239.69841 104.91541 241.35527 104.91541C243.01212 104.91541 244.35527 106.25856 244.35527 107.91541Z" fill-rule="nonzero"/><path fill="#000000" fill-opacity="0.0" clip-path="url(#id_0)" d="M273.2763 102.50586C273.2763 104.16271 271.93317 105.50586 270.2763 105.50586C268.61948 105.50586 267.2763 104.16271 267.2763 102.50586C267.2763 100.84901 268.61948 99.50586 270.2763 99.50586C271.93317 99.50586 273.2763 100.84901 273.2763 102.50586Z" fill-rule="nonzero"/><path fill="#000000" fill-opacity="0.0" clip-path="url(#id_0)" d="M302.19736 101.12351C302.19736 102.780365 300.85422 104.12351 299.19736 104.12351C297.54053 104.12351 296.19736 102.780365 296.19736 101.12351C296.19736 99.46666 297.54053 98.12351 299.19736 98.12351C300.85422 98.12351 302.19736 99.46666 302.19736 101.12351Z" fill-rule="nonzero"/><path fill="#000000" fill-opacity="0.0" clip-path="url(#id_0)" d="M331.1184 95.572044C331.1184 97.2289 329.77527 98.572044 328.1184 98.572044C326.46158 98.572044 325.1184 97.2289 325.1184 95.572044C325.1184 93.91519 326.46158 92.572044 328.1184 92.572044C329.77527 92.572044 331.1184 93.91519 331.1184 95.572044Z" fill-rule="nonzero"/><path fill="#000000" fill-opacity="0.0" clip-path="url(#id_0)" d="M360.03946 92.6262C360.03946 94.28305 358.69632 95.6262 357.03946 95.6262C355.38263 95.6262 354.03946 94.28305 354.03946 92.6262C354.03946 90.969345 355.38263 89.6262 357.03946 89.6262C358.69632 89.6262 360.03946 90.969345 360.03946 92.6262Z" fill-rule="nonzero"/><path fill="#000000" fill-opacity="0.0" clip-path="url(#id_0)" d="M388.96054 85.04244C388.96054 86.699295 387.61737 88.04244 385.96054 88.04244C384.30368 88.04244 382.96054 86.699295 382.96054 85.04244C382.96054 83.38559 384.30368 82.04244 385.96054 82.04244C387.61737 82.04244 388.96054 83.38559 388.96054 85.04244Z" fill-rule="nonzero"/><path fill="#000000" fill-opacity="0.0" clip-path="url(#id_0)" d="M417.8816 86.20958C417.8816 87.86643 416.53842 89.20958 414.8816 89.20958C413.22473 89.20958 411.8816 87.86643 411.8816 86.20958C411.8816 84.55273 413.22473 83.20958 414.8816 83.20958C416.53842 83.20958 417.8816 84.55273 417.8816 86.20958Z" fill-rule="nonzero"/><path fill="#000000" fill-opacity="0.0" clip-path="url(#id_0)" d="M446.80264 83.80516C446.80264 85.46202 445.45947 86.80516 443.80264 86.80516C442.14578 86.80516 440.80264 85.46202 440.80264 83.80516C440.80264 82.14831 442.14578 80.80516 443.80264 80.80516C445.45947 80.80516 446.80264 82.14831 446.80264 83.80516Z" fill-rule="nonzero"/><path fill="#000000" fill-opacity="0.0" clip-path="url(#id_0)" d="M475.7237 80.10657C475.7237 81.76342 474.38052 83.10657 472.7237 83.10657C471.06683 83.10657 469.7237 81.76342 469.7237 80.10657C469.7237 78.449715 471.06683 77.10657 472.7237 77.10657C474.38052 77.10657 475.7237 78.449715 475.7237 80.10657Z" fill-rule="nonzero"/><path fill="#000000" fill-opacity="0.0" clip-path="url(#id_0)" d="M504.64474 80.28597C504.64474 81.942825 503.3016 83.28597 501.64474 83.28597C499.98788 83.28597 498.64474 81.942825 498.64474 80.28597C498.64474 78.62912 499.98788 77.28597 501.64474 77.28597C503.3016 77.28597 504.64474 78.62912 504.64474 80.28597Z" fill-rule="nonzero"/><path fill="#000000" fill-opacity="0.0" clip-path="url(#id_0)" d="M533.5658 80.680885C533.5658 82.33774 532.22266 83.680885 530.5658 83.680885C528.90894 83.680885 527.5658 82.33774 527.5658 80.680885C527.5658 79.02403 528.90894 77.680885 530.5658 77.680885C532.22266 77.680885 533.5658 79.02403 533.5658 80.680885Z" fill-rule="nonzero"/><path fill="#000000" fill-opacity="0.0" clip-path="url(#id_0)" d="M562.4868 82.56198C562.4868 84.21884 561.1437 85.56198 559.4868 85.56198C557.83 85.56198 556.4868 84.21884 556.4868 82.56198C556.4868 80.90513 557.83 79.56198 559.4868 79.56198C561.1437 79.56198 562.4868 80.90513 562.4868 82.56198Z" fill-rule="nonzero"/><path fill="#000000" fill-opacity="0.0" clip-path="url(#id_0)" d="M591.4079 85.10945C591.4079 86.766304 590.06476 88.10945 588.4079 88.10945C586.75104 88.10945 585.4079 86.766304 585.4079 85.10945C585.4079 83.4526 586.75104 82.10945 588.4079 82.10945C590.06476 82.10945 591.4079 83.4526 591.4079 85.10945Z" fill-rule="nonzero"/><path fill="#000000" fill-opacity="0.0" clip-path="url(#id_0)" d="M620.3289 84.73298C620.3289 86.38983 618.9858 87.73298 617.3289 87.73298C615.6721 87.73298 614.3289 86.38983 614.3289 84.73298C614.3289 83.076126 615.6721 81.73298 617.3289 81.73298C618.9858 81.73298 620.3289 83.076126 620.3289 84.73298Z" fill-rule="nonzero"/><path fill="#000000" fill-opacity="0.0" clip-path="url(#id_0)" d="M649.25 84.81148C649.25 86.46833 647.90686 87.81148 646.25 87.81148C644.59314 87.81148 643.25 86.46833 643.25 84.81148C643.25 83.154625 644.59314 81.81148 646.25 81.81148C647.90686 81.81148 649.25 83.154625 649.25 84.81148Z" fill-rule="nonzero"/><path fill="#000000" fill-opacity="0.0" clip-path="url(#id_0)" d="M99.75 272.13376C99.75 273.79062 98.40685 275.13376 96.75 275.13376C95.09315 275.13376 93.75 273.79062 93.75 272.13376C93.75 270.4769 95.09315 269.13376 96.75 269.13376C98.40685 269.13376 99.75 270.4769 99.75 272.13376Z" fill-rule="nonzero"/><path fill="#000000" fill-opacity="0.0" clip-path="url(#id_0)" d="M128.67105 305.35635C128.67105 307.0132 127.3279 308.35635 125.67105 308.35635C124.0142 308.35635 122.67105 307.0132 122.67105 305.35635C122.67105 303.6995 124.0142 302.35635 125.67105 302.35635C127.3279 302.35635 128.67105 303.6995 128.67105 305.35635Z" fill-rule="nonzero"/><path fill="#000000" fill-opacity="0.0" clip-path="url(#id_0)" d="M157.5921 293.35706C157.5921 295.01392 156.24896 296.35706 154.5921 296.35706C152.93526 296.35706 151.5921 295.01392 151.5921 293.35706C151.5921 291.70023 152.93526 290.35706 154.5921 290.35706C156.24896 290.35706 157.5921 291.70023 157.5921 293.35706Z" fill-rule="nonzero"/><path fill="#000000" fill-opacity="0.0" clip-path="url(#id_0)" d="M186.51315 305.8521C186.51315 307.50897 185.17001 308.8521 183.51315 308.8521C181.85631 308.8521 180.51315 307.50897 180.51315 305.8521C180.51315 304.19528 181.85631 302.8521 183.51315 302.8521C185.17001 302.8521 186.51315 304.19528 186.51315 305.8521Z" fill-rule="nonzero"/><path fill="#000000" fill-opacity="0.0" clip-path="url(#id_0)" d="M215.4342 332.533C215.4342 334.18985 214.09106 335.533 212.4342 335.533C210.77736 335.533 209.4342 334.18985 209.4342 332.533C209.4342 330.87613 210.77736 329.533 212.4342 329.533C214.09106 329.533 215.4342 330.87613 215.4342 332.533Z" fill-rule="nonzero"/><path fill="#000000" fill-opacity="0.0" clip-path="url(#id_0)" d="M244.35527 316.63788C244.35527 318.2947 243.01212 319.63788 241.35527 319.63788C239.69841 319.63788 238.35527 318.2947 238.35527 316.63788C238.35527 314.98102 239.69841 313.63788 241.35527 313.63788C243.01212 313.63788 244.35527 314.98102 244.35527 316.63788Z" fill-rule="nonzero"/><path fill="#000000" fill-opacity="0.0" clip-path="url(#id_0)" d="M273.2763 326.50208C273.2763 328.15894 271.93317 329.50208 270.2763 329.50208C268.61948 329.50208 267.2763 328.15894 267.2763 326.50208C267.2763 324.84525 268.61948 323.50208 270.2763 323.50208C271.93317 323.50208 273.2763 324.84525 273.2763 326.50208Z" fill-rule="nonzero"/><path fill="#000000" fill-opacity="0.0" clip-path="url(#id_0)" d="M302.19736 306.20953C302.19736 307.8664 300.85422 309.20953 299.19736 309.20953C297.54053 309.20953 296.19736 307.8664 296.19736 306.20953C296.19736 304.55267 297.54053 303.20953 299.19736 303.20953C300.85422 303.20953 302.19736 304.55267 302.19736 306.20953Z" fill-rule="nonzero"/><path fill="#000000" fill-opacity="0.0" clip-path="url(#id_0)" d="M331.1184 318.5795C331.1184 320.23636 329.77527 321.5795 328.1184 321.5795C326.46158 321.5795 325.1184 320.23636 325.1184 318.5795C325.1184 316.92264 326.46158 315.5795 328.1184 315.5795C329.77527 315.5795 331.1184 316.92264 331.1184 318.5795Z" fill-rule="nonzero"/><path fill="#000000" fill-opacity="0.0" clip-path="url(#id_0)" d="M360.03946 342.25C360.03946 343.90686 358.69632 345.25 357.03946 345.25C355.38263 345.25 354.03946 343.90686 354.03946 342.25C354.03946 340.59314 355.38263 339.25 357.03946 339.25C358.69632 339.25 360.03946 340.59314 360.03946 342.25Z" fill-rule="nonzero"/><path fill="#000000" fill-opacity="0.0" clip-path="url(#id_0)" d="M388.96054 339.9085C388.96054 341.56534 387.61737 342.9085 385.96054 342.9085C384.30368 342.9085 382.96054 341.56534 382.96054 339.9085C382.96054 338.25165 384.30368 336.9085 385.96054 336.9085C387.61737 336.9085 388.96054 338.25165 388.96054 339.9085Z" fill-rule="nonzero"/><path fill="#000000" fill-opacity="0.0" clip-path="url(#id_0)" d="M417.8816 337.56854C417.8816 339.2254 416.53842 340.56854 414.8816 340.56854C413.22473 340.56854 411.8816 339.2254 411.8816 337.56854C411.8816 335.91168 413.22473 334.56854 414.8816 334.56854C416.53842 334.56854 417.8816 335.91168 417.8816 337.56854Z" fill-rule="nonzero"/><path fill="#000000" fill-opacity="0.0" clip-path="url(#id_0)" d="M446.80264 327.09473C446.80264 328.7516 445.45947 330.09473 443.80264 330.09473C442.14578 330.09473 440.80264 328.7516 440.80264 327.09473C440.80264 325.43787 442.14578 324.09473 443.80264 324.09473C445.45947 324.09473 446.80264 325.43787 446.80264 327.09473Z" fill-rule="nonzero"/><path fill="#000000" fill-opacity="0.0" clip-path="url(#id_0)" d="M475.7237 331.37656C475.7237 333.03342 474.38052 334.37656 472.7237 334.37656C471.06683 334.37656 469.7237 333.03342 469.7237 331.37656C469.7237 329.7197 471.06683 328.37656 472.7237 328.37656C474.38052 328.37656 475.7237 329.7197 475.7237 331.37656Z" fill-rule="nonzero"/><path fill="#000000" fill-opacity="0.0" clip-path="url(#id_0)" d="M504.64474 335.62177C504.64474 337.27863 503.3016 338.62177 501.64474 338.62177C499.98788 338.62177 498.64474 337.27863 498.64474 335.62177C498.64474 333.9649 499.98788 332.62177 501.64474 332.62177C503.3016 332.62177 504.64474 333.9649 504.64474 335.62177Z" fill-rule="nonzero"/><path fill="#000000" fill-opacity="0.0" clip-path="url(#id_0)" d="M533.5658 323.41852C533.5658 325.07535 532.22266 326.41852 530.5658 326.41852C528.90894 326.41852 527.5658 325.07535 527.5658 323.41852C527.5658 321.76166 528.90894 320.41852 530.5658 320.41852C532.22266 320.41852 533.5658 321.76166 533.5658 323.41852Z" fill-rule="nonzero"/><path fill="#000000" fill-opacity="0.0" clip-path="url(#id_0)" d="M562.4868 340.82886C562.4868 342.48572 561.1437 343.82886 559.4868 343.82886C557.83 343.82886 556.4868 342.48572 556.4868 340.82886C556.4868 339.172 557.83 337.82886 559.4868 337.82886C561.1437 337.82886 562.4868 339.172 562.4868 340.82886Z" fill-rule="nonzero"/><path fill="#000000" fill-opacity="0.0" clip-path="url(#id_0)" d="M591.4079 339.33832C591.4079 340.99518 590.06476 342.33832 588.4079 342.33832C586.75104 342.33832 585.4079 340.99518 585.4079 339.33832C585.4079 337.68146 586.75104 336.33832 588.4079 336.33832C590.06476 336.33832 591.4079 337.68146 591.4079 339.33832Z" fill-rule="nonzero"/><path fill="#000000" fill-opacity="0.0" clip-path="url(#id_0)" d="M620.3289 329.77164C620.3289 331.4285 618.9858 332.77164 617.3289 332.77164C615.6721 332.77164 614.3289 331.4285 614.3289 329.77164C614.3289 328.11478 615.6721 326.77164 617.3289 326.77164C618.9858 326.77164 620.3289 328.11478 620.3289 329.77164Z" fill-rule="nonzero"/><path fill="#000000" fill-opacity="0.0" clip-path="url(#id_0)" d="M649.25 332.63495C649.25 334.29178 647.90686 335.63495 646.25 335.63495C644.59314 335.63495 643.25 334.29178 643.25 332.63495C643.25 330.9781 644.59314 329.63495 646.25 329.63495C647.90686 329.63495 649.25 330.9781 649.25 332.63495Z" fill-rule="nonzero"/><path fill="#ffffff" d="M345.95312 391.25L345.95312 382.65625L352.15625 382.65625L352.15625 383.67188L347.09375 383.67188L347.09375 386.29688L351.84375 386.29688L351.84375 387.3125L347.09375 387.3125L347.09375 390.23438L352.35938 390.23438L352.35938 391.25L345.95312 391.25ZM353.76562 391.25L353.76562 382.65625L354.82812 382.65625L354.82812 391.25L353.76562 391.25ZM361.04688 389.25L362.14062 389.375Q361.89062 390.32812 361.1875 390.85938Q360.48438 391.39062 359.40625 391.39062Q358.04688 391.39062 357.23438 390.54688Q356.4375 389.70312 356.4375 388.1875Q356.4375 386.625 357.25 385.76562Q358.0625 384.89062 359.34375 384.89062Q360.59375 384.89062 361.375 385.73438Q362.17188 386.57812 362.17188 388.125Q362.17188 388.21875 362.17188 388.40625L357.53125 388.40625Q357.59375 389.4375 358.10938 389.98438Q358.625 390.51562 359.40625 390.51562Q359.98438 390.51562 360.39062 390.21875Q360.8125 389.90625 361.04688 389.25ZM357.59375 387.54688L361.0625 387.54688Q361.0 386.75 360.67188 386.35938Q360.15625 385.75 359.35938 385.75Q358.625 385.75 358.125 386.23438Q357.64062 386.71875 357.59375 387.54688ZM363.79688 391.25L363.79688 385.03125L364.73438 385.03125L364.73438 385.90625Q365.03125 385.4375 365.51562 385.17188Q366.0 384.89062 366.625 384.89062Q367.3125 384.89062 367.75 385.17188Q368.20312 385.45312 368.375 385.96875Q369.125 384.89062 370.29688 384.89062Q371.23438 384.89062 371.71875 385.40625Q372.21875 385.90625 372.21875 386.98438L372.21875 391.25L371.17188 391.25L371.17188 387.32812Q371.17188 386.70312 371.0625 386.42188Q370.96875 386.14062 370.70312 385.96875Q370.4375 385.79688 370.0625 385.79688Q369.40625 385.79688 368.96875 386.23438Q368.54688 386.67188 368.54688 387.64062L368.54688 391.25L367.48438 391.25L367.48438 387.20312Q367.48438 386.5 367.21875 386.15625Q366.96875 385.79688 366.39062 385.79688Q365.9375 385.79688 365.5625 386.03125Q365.1875 386.26562 365.01562 386.71875Q364.84375 387.17188 364.84375 388.01562L364.84375 391.25L363.79688 391.25ZM379.04688 389.25L380.14062 389.375Q379.89062 390.32812 379.1875 390.85938Q378.48438 391.39062 377.40625 391.39062Q376.04688 391.39062 375.23438 390.54688Q374.4375 389.70312 374.4375 388.1875Q374.4375 386.625 375.25 385.76562Q376.0625 384.89062 377.34375 384.89062Q378.59375 384.89062 379.375 385.73438Q380.17188 386.57812 380.17188 388.125Q380.17188 388.21875 380.17188 388.40625L375.53125 388.40625Q375.59375 389.4375 376.10938 389.98438Q376.625 390.51562 377.40625 390.51562Q377.98438 390.51562 378.39062 390.21875Q378.8125 389.90625 379.04688 389.25ZM375.59375 387.54688L379.0625 387.54688Q379.0 386.75 378.67188 386.35938Q378.15625 385.75 377.35938 385.75Q376.625 385.75 376.125 386.23438Q375.64062 386.71875 375.59375 387.54688ZM381.79688 391.25L381.79688 385.03125L382.73438 385.03125L382.73438 385.90625Q383.42188 384.89062 384.71875 384.89062Q385.28125 384.89062 385.75 385.09375Q386.23438 385.29688 386.46875 385.625Q386.70312 385.95312 386.79688 386.39062Q386.84375 386.6875 386.84375 387.42188L386.84375 391.25L385.79688 391.25L385.79688 387.46875Q385.79688 386.8125 385.67188 386.5Q385.54688 386.1875 385.23438 386.0Q384.92188 385.79688 384.5 385.79688Q383.82812 385.79688 383.32812 386.23438Q382.84375 386.65625 382.84375 387.84375L382.84375 391.25L381.79688 391.25ZM391.09375 390.3125L391.25 391.23438Q390.79688 391.32812 390.45312 391.32812Q389.875 391.32812 389.5625 391.15625Q389.25 390.96875 389.10938 390.67188Q388.98438 390.375 388.98438 389.42188L388.98438 385.84375L388.21875 385.84375L388.21875 385.03125L388.98438 385.03125L388.98438 383.48438L390.03125 382.85938L390.03125 385.03125L391.09375 385.03125L391.09375 385.84375L390.03125 385.84375L390.03125 389.48438Q390.03125 389.9375 390.07812 390.0625Q390.14062 390.1875 390.26562 390.26562Q390.39062 390.34375 390.625 390.34375Q390.8125 390.34375 391.09375 390.3125ZM391.375 389.39062L392.40625 389.23438Q392.5 389.85938 392.89062 390.1875Q393.29688 390.51562 394.03125 390.51562Q394.75 390.51562 395.09375 390.23438Q395.45312 389.9375 395.45312 389.53125Q395.45312 389.17188 395.14062 388.96875Q394.92188 388.82812 394.0625 388.60938Q392.90625 388.3125 392.45312 388.10938Q392.01562 387.89062 391.78125 387.51562Q391.54688 387.14062 391.54688 386.67188Q391.54688 386.26562 391.73438 385.90625Q391.92188 385.54688 392.25 385.3125Q392.5 385.14062 392.92188 385.01562Q393.34375 384.89062 393.84375 384.89062Q394.5625 384.89062 395.10938 385.10938Q395.67188 385.3125 395.9375 385.67188Q396.20312 386.03125 396.29688 386.625L395.26562 386.76562Q395.20312 386.29688 394.85938 386.03125Q394.53125 385.75 393.90625 385.75Q393.1875 385.75 392.875 386.0Q392.5625 386.23438 392.5625 386.5625Q392.5625 386.76562 392.6875 386.92188Q392.82812 387.09375 393.09375 387.20312Q393.25 387.26562 394.03125 387.46875Q395.15625 387.78125 395.59375 387.96875Q396.03125 388.15625 396.28125 388.51562Q396.53125 388.875 396.53125 389.42188Q396.53125 389.95312 396.21875 390.42188Q395.92188 390.875 395.34375 391.14062Q394.76562 391.39062 394.03125 391.39062Q392.8125 391.39062 392.17188 390.89062Q391.54688 390.375 391.375 389.39062Z" fill-rule="nonzero"/><path fill="#ffffff" d="M28.984375 229.3698L28.890625 228.3073Q29.546875 228.22917 29.953125 227.94792Q30.359375 227.66667 30.625 227.08855Q30.875 226.4948 30.875 225.76042Q30.875 225.1198 30.6875 224.6198Q30.484375 224.1198 30.15625 223.88542Q29.8125 223.63542 29.421875 223.63542Q29.015625 223.63542 28.71875 223.8698Q28.40625 224.10417 28.203125 224.63542Q28.0625 224.9948 27.78125 226.1823Q27.5 227.35417 27.25 227.82292Q26.921875 228.44792 26.453125 228.7448Q25.96875 229.04167 25.375 229.04167Q24.734375 229.04167 24.171875 228.6823Q23.59375 228.3073 23.3125 227.60417Q23.015625 226.88542 23.015625 226.02605Q23.015625 225.07292 23.328125 224.33855Q23.625 223.60417 24.234375 223.21355Q24.828125 222.82292 25.578125 222.79167L25.65625 223.88542Q24.84375 223.97917 24.4375 224.4948Q24.015625 224.9948 24.015625 225.97917Q24.015625 227.01042 24.390625 227.47917Q24.765625 227.94792 25.296875 227.94792Q25.765625 227.94792 26.0625 227.6198Q26.359375 227.29167 26.671875 225.91667Q26.984375 224.52605 27.21875 224.01042Q27.578125 223.26042 28.109375 222.90105Q28.625 222.54167 29.328125 222.54167Q30.015625 222.54167 30.625 222.9323Q31.21875 223.32292 31.5625 224.0573Q31.890625 224.79167 31.890625 225.71355Q31.890625 226.88542 31.5625 227.6823Q31.21875 228.46355 30.53125 228.91667Q29.84375 229.35417 28.984375 229.3698ZM29.75 216.8698L29.875 215.77605Q30.828125 216.02605 31.359375 216.72917Q31.890625 217.4323 31.890625 218.51042Q31.890625 219.8698 31.046875 220.6823Q30.203125 221.47917 28.6875 221.47917Q27.125 221.47917 26.265625 220.66667Q25.390625 219.85417 25.390625 218.57292Q25.390625 217.32292 26.234375 216.54167Q27.078125 215.7448 28.625 215.7448Q28.71875 215.7448 28.90625 215.7448L28.90625 220.38542Q29.9375 220.32292 30.484375 219.8073Q31.015625 219.29167 31.015625 218.51042Q31.015625 217.9323 30.71875 217.52605Q30.40625 217.10417 29.75 216.8698ZM28.046875 220.32292L28.046875 216.85417Q27.25 216.91667 26.859375 217.2448Q26.25 217.76042 26.25 218.5573Q26.25 219.29167 26.734375 219.79167Q27.21875 220.27605 28.046875 220.32292ZM29.46875 210.0573L29.609375 209.02605Q30.671875 209.19792 31.28125 209.90105Q31.890625 210.60417 31.890625 211.6198Q31.890625 212.90105 31.0625 213.6823Q30.21875 214.44792 28.65625 214.44792Q27.65625 214.44792 26.90625 214.1198Q26.140625 213.77605 25.765625 213.10417Q25.390625 212.41667 25.390625 211.60417Q25.390625 210.60417 25.90625 209.96355Q26.40625 209.3073 27.359375 209.1198L27.515625 210.15105Q26.890625 210.29167 26.578125 210.66667Q26.25 211.04167 26.25 211.57292Q26.25 212.3698 26.828125 212.8698Q27.390625 213.3698 28.625 213.3698Q29.890625 213.3698 30.453125 212.88542Q31.015625 212.40105 31.015625 211.63542Q31.015625 211.01042 30.640625 210.60417Q30.265625 210.1823 29.46875 210.0573ZM28.640625 208.51042Q26.90625 208.51042 26.078125 207.5573Q25.390625 206.76042 25.390625 205.60417Q25.390625 204.32292 26.234375 203.51042Q27.0625 202.6823 28.546875 202.6823Q29.75 202.6823 30.4375 203.04167Q31.125 203.40105 31.515625 204.10417Q31.890625 204.79167 31.890625 205.60417Q31.890625 206.90105 31.0625 207.71355Q30.21875 208.51042 28.640625 208.51042ZM28.640625 207.4323Q29.828125 207.4323 30.421875 206.91667Q31.015625 206.38542 31.015625 205.60417Q31.015625 204.8073 30.421875 204.29167Q29.828125 203.77605 28.609375 203.77605Q27.453125 203.77605 26.859375 204.3073Q26.265625 204.82292 26.265625 205.60417Q26.265625 206.38542 26.859375 206.91667Q27.4375 207.4323 28.640625 207.4323ZM31.75 201.1198L25.53125 201.1198L25.53125 200.1823L26.40625 200.1823Q25.390625 199.4948 25.390625 198.19792Q25.390625 197.63542 25.59375 197.16667Q25.796875 196.6823 26.125 196.44792Q26.453125 196.21355 26.890625 196.1198Q27.1875 196.07292 27.921875 196.07292L31.75 196.07292L31.75 197.1198L27.96875 197.1198Q27.3125 197.1198 27.0 197.2448Q26.6875 197.3698 26.5 197.6823Q26.296875 197.9948 26.296875 198.41667Q26.296875 199.08855 26.734375 199.58855Q27.15625 200.07292 28.34375 200.07292L31.75 200.07292L31.75 201.1198ZM31.75 190.08855L30.96875 190.08855Q31.890625 190.6823 31.890625 191.82292Q31.890625 192.57292 31.484375 193.19792Q31.0625 193.82292 30.328125 194.16667Q29.59375 194.51042 28.640625 194.51042Q27.71875 194.51042 26.953125 194.19792Q26.1875 193.88542 25.796875 193.26042Q25.390625 192.63542 25.390625 191.8698Q25.390625 191.3073 25.625 190.8698Q25.859375 190.4323 26.234375 190.15105L23.15625 190.15105L23.15625 189.10417L31.75 189.10417L31.75 190.08855ZM28.640625 193.41667Q29.84375 193.41667 30.4375 192.91667Q31.015625 192.41667 31.015625 191.72917Q31.015625 191.04167 30.453125 190.5573Q29.890625 190.07292 28.734375 190.07292Q27.453125 190.07292 26.859375 190.57292Q26.265625 191.0573 26.265625 191.77605Q26.265625 192.47917 26.84375 192.94792Q27.40625 193.41667 28.640625 193.41667ZM29.890625 187.54167L29.734375 186.51042Q30.359375 186.41667 30.6875 186.02605Q31.015625 185.6198 31.015625 184.88542Q31.015625 184.16667 30.734375 183.82292Q30.4375 183.46355 30.03125 183.46355Q29.671875 183.46355 29.46875 183.77605Q29.328125 183.9948 29.109375 184.85417Q28.8125 186.01042 28.609375 186.46355Q28.390625 186.90105 28.015625 187.13542Q27.640625 187.3698 27.171875 187.3698Q26.765625 187.3698 26.40625 187.1823Q26.046875 186.9948 25.8125 186.66667Q25.640625 186.41667 25.515625 185.9948Q25.390625 185.57292 25.390625 185.07292Q25.390625 184.35417 25.609375 183.8073Q25.8125 183.2448 26.171875 182.97917Q26.53125 182.71355 27.125 182.6198L27.265625 183.65105Q26.796875 183.71355 26.53125 184.0573Q26.25 184.38542 26.25 185.01042Q26.25 185.72917 26.5 186.04167Q26.734375 186.35417 27.0625 186.35417Q27.265625 186.35417 27.421875 186.22917Q27.59375 186.08855 27.703125 185.82292Q27.765625 185.66667 27.96875 184.88542Q28.28125 183.76042 28.46875 183.32292Q28.65625 182.88542 29.015625 182.63542Q29.375 182.38542 29.921875 182.38542Q30.453125 182.38542 30.921875 182.69792Q31.375 182.9948 31.640625 183.57292Q31.890625 184.15105 31.890625 184.88542Q31.890625 186.10417 31.390625 186.7448Q30.875 187.3698 29.890625 187.54167Z" fill-rule="nonzero"/><path fill="#ffffff" d="M53.25 317.313Q53.25 315.78174 53.5625 314.85986Q53.875 313.92236 54.484375 313.42236Q55.109375 312.92236 56.046875 312.92236Q56.734375 312.92236 57.25 313.2036Q57.78125 313.48486 58.125 314.0161Q58.46875 314.53174 58.65625 315.28174Q58.84375 316.03174 58.84375 317.313Q58.84375 318.8286 58.53125 319.7505Q58.234375 320.67236 57.609375 321.188Q57.0 321.688 56.046875 321.688Q54.8125 321.688 54.09375 320.79736Q53.25 319.73486 53.25 317.313ZM54.328125 317.313Q54.328125 319.42236 54.828125 320.1255Q55.328125 320.8286 56.046875 320.8286Q56.78125 320.8286 57.265625 320.1255Q57.765625 319.42236 57.765625 317.313Q57.765625 315.188 57.265625 314.5005Q56.78125 313.79736 56.03125 313.79736Q55.3125 313.79736 54.875 314.40674Q54.328125 315.188 54.328125 317.313ZM60.84375 321.54736L60.84375 320.34424L62.046875 320.34424L62.046875 321.54736L60.84375 321.54736ZM63.25 317.313Q63.25 315.78174 63.5625 314.85986Q63.875 313.92236 64.484375 313.42236Q65.109375 312.92236 66.046875 312.92236Q66.734375 312.92236 67.25 313.2036Q67.78125 313.48486 68.125 314.0161Q68.46875 314.53174 68.65625 315.28174Q68.84375 316.03174 68.84375 317.313Q68.84375 318.8286 68.53125 319.7505Q68.234375 320.67236 67.609375 321.188Q67.0 321.688 66.046875 321.688Q64.8125 321.688 64.09375 320.79736Q63.25 319.73486 63.25 317.313ZM64.328125 317.313Q64.328125 319.42236 64.828125 320.1255Q65.328125 320.8286 66.046875 320.8286Q66.78125 320.8286 67.265625 320.1255Q67.765625 319.42236 67.765625 317.313Q67.765625 315.188 67.265625 314.5005Q66.78125 313.79736 66.03125 313.79736Q65.3125 313.79736 64.875 314.40674Q64.328125 315.188 64.328125 317.313ZM70.25 317.313Q70.25 315.78174 70.5625 314.85986Q70.875 313.92236 71.484375 313.42236Q72.109375 312.92236 73.046875 312.92236Q73.734375 312.92236 74.25 313.2036Q74.78125 313.48486 75.125 314.0161Q75.46875 314.53174 75.65625 315.28174Q75.84375 316.03174 75.84375 317.313Q75.84375 318.8286 75.53125 319.7505Q75.234375 320.67236 74.609375 321.188Q74.0 321.688 73.046875 321.688Q71.8125 321.688 71.09375 320.79736Q70.25 319.73486 70.25 317.313ZM71.328125 317.313Q71.328125 319.42236 71.828125 320.1255Q72.328125 320.8286 73.046875 320.8286Q73.78125 320.8286 74.265625 320.1255Q74.765625 319.42236 74.765625 317.313Q74.765625 315.188 74.265625 314.5005Q73.78125 313.79736 73.03125 313.79736Q72.3125 313.79736 71.875 314.40674Q71.328125 315.188 71.328125 317.313ZM77.25 317.313Q77.25 315.78174 77.5625 314.85986Q77.875 313.92236 78.484375 313.42236Q79.109375 312.92236 80.046875 312.92236Q80.734375 312.92236 81.25 313.2036Q81.78125 313.48486 82.125 314.0161Q82.46875 314.53174 82.65625 315.28174Q82.84375 316.03174 82.84375 317.313Q82.84375 318.8286 82.53125 319.7505Q82.234375 320.67236 81.609375 321.188Q81.0 321.688 80.046875 321.688Q78.8125 321.688 78.09375 320.79736Q77.25 319.73486 77.25 317.313ZM78.328125 317.313Q78.328125 319.42236 78.828125 320.1255Q79.328125 320.8286 80.046875 320.8286Q80.78125 320.8286 81.265625 320.1255Q81.765625 319.42236 81.765625 317.313Q81.765625 315.188 81.265625 314.5005Q80.78125 313.79736 80.03125 313.79736Q79.3125 313.79736 78.875 314.40674Q78.328125 315.188 78.328125 317.313ZM84.25 319.29736L85.359375 319.2036Q85.484375 320.0161 85.921875 320.42236Q86.375 320.8286 87.015625 320.8286Q87.765625 320.8286 88.296875 320.2505Q88.828125 319.67236 88.828125 318.73486Q88.828125 317.8286 88.3125 317.313Q87.8125 316.78174 86.984375 316.78174Q86.484375 316.78174 86.0625 317.0161Q85.65625 317.2505 85.421875 317.60986L84.4375 317.48486L85.265625 313.0786L89.546875 313.0786L89.546875 314.0786L86.109375 314.0786L85.65625 316.3911Q86.421875 315.84424 87.265625 315.84424Q88.390625 315.84424 89.15625 316.6255Q89.9375 317.40674 89.9375 318.6411Q89.9375 319.79736 89.265625 320.65674Q88.4375 321.688 87.015625 321.688Q85.84375 321.688 85.09375 321.03174Q84.359375 320.3755 84.25 319.29736Z" fill-rule="nonzero"/><path fill="#ffffff" d="M60.25 285.47803Q60.25 283.94678 60.5625 283.0249Q60.875 282.0874 61.484375 281.5874Q62.109375 281.0874 63.046875 281.0874Q63.734375 281.0874 64.25 281.36865Q64.78125 281.6499 65.125 282.18115Q65.46875 282.69678 65.65625 283.44678Q65.84375 284.19678 65.84375 285.47803Q65.84375 286.99365 65.53125 287.91553Q65.234375 288.8374 64.609375 289.35303Q64.0 289.85303 63.046875 289.85303Q61.8125 289.85303 61.09375 288.9624Q60.25 287.8999 60.25 285.47803ZM61.328125 285.47803Q61.328125 287.5874 61.828125 288.29053Q62.328125 288.99365 63.046875 288.99365Q63.78125 288.99365 64.265625 288.29053Q64.765625 287.5874 64.765625 285.47803Q64.765625 283.35303 64.265625 282.66553Q63.78125 281.9624 63.03125 281.9624Q62.3125 281.9624 61.875 282.57178Q61.328125 283.35303 61.328125 285.47803ZM67.84375 289.7124L67.84375 288.50928L69.046875 288.50928L69.046875 289.7124L67.84375 289.7124ZM70.25 285.47803Q70.25 283.94678 70.5625 283.0249Q70.875 282.0874 71.484375 281.5874Q72.109375 281.0874 73.046875 281.0874Q73.734375 281.0874 74.25 281.36865Q74.78125 281.6499 75.125 282.18115Q75.46875 282.69678 75.65625 283.44678Q75.84375 284.19678 75.84375 285.47803Q75.84375 286.99365 75.53125 287.91553Q75.234375 288.8374 74.609375 289.35303Q74.0 289.85303 73.046875 289.85303Q71.8125 289.85303 71.09375 288.9624Q70.25 287.8999 70.25 285.47803ZM71.328125 285.47803Q71.328125 287.5874 71.828125 288.29053Q72.328125 288.99365 73.046875 288.99365Q73.78125 288.99365 74.265625 288.29053Q74.765625 287.5874 74.765625 285.47803Q74.765625 283.35303 74.265625 282.66553Q73.78125 281.9624 73.03125 281.9624Q72.3125 281.9624 71.875 282.57178Q71.328125 283.35303 71.328125 285.47803ZM77.25 285.47803Q77.25 283.94678 77.5625 283.0249Q77.875 282.0874 78.484375 281.5874Q79.109375 281.0874 80.046875 281.0874Q80.734375 281.0874 81.25 281.36865Q81.78125 281.6499 82.125 282.18115Q82.46875 282.69678 82.65625 283.44678Q82.84375 284.19678 82.84375 285.47803Q82.84375 286.99365 82.53125 287.91553Q82.234375 288.8374 81.609375 289.35303Q81.0 289.85303 80.046875 289.85303Q78.8125 289.85303 78.09375 288.9624Q77.25 287.8999 77.25 285.47803ZM78.328125 285.47803Q78.328125 287.5874 78.828125 288.29053Q79.328125 288.99365 80.046875 288.99365Q80.78125 288.99365 81.265625 288.29053Q81.765625 287.5874 81.765625 285.47803Q81.765625 283.35303 81.265625 282.66553Q80.78125 281.9624 80.03125 281.9624Q79.3125 281.9624 78.875 282.57178Q78.328125 283.35303 78.328125 285.47803ZM88.21875 289.7124L87.171875 289.7124L87.171875 282.99365Q86.78125 283.35303 86.15625 283.72803Q85.546875 284.0874 85.0625 284.25928L85.0625 283.24365Q85.9375 282.82178 86.59375 282.24365Q87.265625 281.6499 87.546875 281.0874L88.21875 281.0874L88.21875 289.7124Z" fill-rule="nonzero"/><path fill="#ffffff" d="M60.25 211.55957Q60.25 210.02832 60.5625 209.10645Q60.875 208.16895 61.484375 207.66895Q62.109375 207.16895 63.046875 207.16895Q63.734375 207.16895 64.25 207.4502Q64.78125 207.73145 65.125 208.2627Q65.46875 208.77832 65.65625 209.52832Q65.84375 210.27832 65.84375 211.55957Q65.84375 213.0752 65.53125 213.99707Q65.234375 214.91895 64.609375 215.43457Q64.0 215.93457 63.046875 215.93457Q61.8125 215.93457 61.09375 215.04395Q60.25 213.98145 60.25 211.55957ZM61.328125 211.55957Q61.328125 213.66895 61.828125 214.37207Q62.328125 215.0752 63.046875 215.0752Q63.78125 215.0752 64.265625 214.37207Q64.765625 213.66895 64.765625 211.55957Q64.765625 209.43457 64.265625 208.74707Q63.78125 208.04395 63.03125 208.04395Q62.3125 208.04395 61.875 208.65332Q61.328125 209.43457 61.328125 211.55957ZM67.84375 215.79395L67.84375 214.59082L69.046875 214.59082L69.046875 215.79395L67.84375 215.79395ZM70.25 211.55957Q70.25 210.02832 70.5625 209.10645Q70.875 208.16895 71.484375 207.66895Q72.109375 207.16895 73.046875 207.16895Q73.734375 207.16895 74.25 207.4502Q74.78125 207.73145 75.125 208.2627Q75.46875 208.77832 75.65625 209.52832Q75.84375 210.27832 75.84375 211.55957Q75.84375 213.0752 75.53125 213.99707Q75.234375 214.91895 74.609375 215.43457Q74.0 215.93457 73.046875 215.93457Q71.8125 215.93457 71.09375 215.04395Q70.25 213.98145 70.25 211.55957ZM71.328125 211.55957Q71.328125 213.66895 71.828125 214.37207Q72.328125 215.0752 73.046875 215.0752Q73.78125 215.0752 74.265625 214.37207Q74.765625 213.66895 74.765625 211.55957Q74.765625 209.43457 74.265625 208.74707Q73.78125 208.04395 73.03125 208.04395Q72.3125 208.04395 71.875 208.65332Q71.328125 209.43457 71.328125 211.55957ZM77.25 211.55957Q77.25 210.02832 77.5625 209.10645Q77.875 208.16895 78.484375 207.66895Q79.109375 207.16895 80.046875 207.16895Q80.734375 207.16895 81.25 207.4502Q81.78125 207.73145 82.125 208.2627Q82.46875 208.77832 82.65625 209.52832Q82.84375 210.27832 82.84375 211.55957Q82.84375 213.0752 82.53125 213.99707Q82.234375 214.91895 81.609375 215.43457Q81.0 215.93457 80.046875 215.93457Q78.8125 215.93457 78.09375 215.04395Q77.25 213.98145 77.25 211.55957ZM78.328125 211.55957Q78.328125 213.66895 78.828125 214.37207Q79.328125 215.0752 80.046875 215.0752Q80.78125 215.0752 81.265625 214.37207Q81.765625 213.66895 81.765625 211.55957Q81.765625 209.43457 81.265625 208.74707Q80.78125 208.04395 80.03125 208.04395Q79.3125 208.04395 78.875 208.65332Q78.328125 209.43457 78.328125 211.55957ZM84.25 213.54395L85.359375 213.4502Q85.484375 214.2627 85.921875 214.66895Q86.375 215.0752 87.015625 215.0752Q87.765625 215.0752 88.296875 214.49707Q88.828125 213.91895 88.828125 212.98145Q88.828125 212.0752 88.3125 211.55957Q87.8125 211.02832 86.984375 211.02832Q86.484375 211.02832 86.0625 211.2627Q85.65625 211.49707 85.421875 211.85645L84.4375 211.73145L85.265625 207.3252L89.546875 207.3252L89.546875 208.3252L86.109375 208.3252L85.65625 210.6377Q86.421875 210.09082 87.265625 210.09082Q88.390625 210.09082 89.15625 210.87207Q89.9375 211.65332 89.9375 212.8877Q89.9375 214.04395 89.265625 214.90332Q88.4375 215.93457 87.015625 215.93457Q85.84375 215.93457 85.09375 215.27832Q84.359375 214.62207 84.25 213.54395Z" fill-rule="nonzero"/><path fill="#ffffff" d="M67.25 179.72462Q67.25 178.19337 67.5625 177.2715Q67.875 176.334 68.484375 175.834Q69.109375 175.334 70.046875 175.334Q70.734375 175.334 71.25 175.61525Q71.78125 175.8965 72.125 176.42775Q72.46875 176.94337 72.65625 177.69337Q72.84375 178.44337 72.84375 179.72462Q72.84375 181.24025 72.53125 182.16212Q72.234375 183.084 71.609375 183.59962Q71.0 184.09962 70.046875 184.09962Q68.8125 184.09962 68.09375 183.209Q67.25 182.1465 67.25 179.72462ZM68.328125 179.72462Q68.328125 181.834 68.828125 182.53712Q69.328125 183.24025 70.046875 183.24025Q70.78125 183.24025 71.265625 182.53712Q71.765625 181.834 71.765625 179.72462Q71.765625 177.59962 71.265625 176.91212Q70.78125 176.209 70.03125 176.209Q69.3125 176.209 68.875 176.81837Q68.328125 177.59962 68.328125 179.72462ZM74.84375 183.959L74.84375 182.75587L76.046875 182.75587L76.046875 183.959L74.84375 183.959ZM77.25 179.72462Q77.25 178.19337 77.5625 177.2715Q77.875 176.334 78.484375 175.834Q79.109375 175.334 80.046875 175.334Q80.734375 175.334 81.25 175.61525Q81.78125 175.8965 82.125 176.42775Q82.46875 176.94337 82.65625 177.69337Q82.84375 178.44337 82.84375 179.72462Q82.84375 181.24025 82.53125 182.16212Q82.234375 183.084 81.609375 183.59962Q81.0 184.09962 80.046875 184.09962Q78.8125 184.09962 78.09375 183.209Q77.25 182.1465 77.25 179.72462ZM78.328125 179.72462Q78.328125 181.834 78.828125 182.53712Q79.328125 183.24025 80.046875 183.24025Q80.78125 183.24025 81.265625 182.53712Q81.765625 181.834 81.765625 179.72462Q81.765625 177.59962 81.265625 176.91212Q80.78125 176.209 80.03125 176.209Q79.3125 176.209 78.875 176.81837Q78.328125 177.59962 78.328125 179.72462ZM88.21875 183.959L87.171875 183.959L87.171875 177.24025Q86.78125 177.59962 86.15625 177.97462Q85.546875 178.334 85.0625 178.50587L85.0625 177.49025Q85.9375 177.06837 86.59375 176.49025Q87.265625 175.8965 87.546875 175.334L88.21875 175.334L88.21875 183.959Z" fill-rule="nonzero"/><path fill="#ffffff" d="M67.25 105.80616Q67.25 104.27491 67.5625 103.353035Q67.875 102.415535 68.484375 101.915535Q69.109375 101.415535 70.046875 101.415535Q70.734375 101.415535 71.25 101.696785Q71.78125 101.978035 72.125 102.509285Q72.46875 103.02491 72.65625 103.77491Q72.84375 104.52491 72.84375 105.80616Q72.84375 107.321785 72.53125 108.24366Q72.234375 109.165535 71.609375 109.68116Q71.0 110.18116 70.046875 110.18116Q68.8125 110.18116 68.09375 109.290535Q67.25 108.228035 67.25 105.80616ZM68.328125 105.80616Q68.328125 107.915535 68.828125 108.61866Q69.328125 109.321785 70.046875 109.321785Q70.78125 109.321785 71.265625 108.61866Q71.765625 107.915535 71.765625 105.80616Q71.765625 103.68116 71.265625 102.99366Q70.78125 102.290535 70.03125 102.290535Q69.3125 102.290535 68.875 102.89991Q68.328125 103.68116 68.328125 105.80616ZM74.84375 110.040535L74.84375 108.83741L76.046875 108.83741L76.046875 110.040535L74.84375 110.040535ZM77.25 105.80616Q77.25 104.27491 77.5625 103.353035Q77.875 102.415535 78.484375 101.915535Q79.109375 101.415535 80.046875 101.415535Q80.734375 101.415535 81.25 101.696785Q81.78125 101.978035 82.125 102.509285Q82.46875 103.02491 82.65625 103.77491Q82.84375 104.52491 82.84375 105.80616Q82.84375 107.321785 82.53125 108.24366Q82.234375 109.165535 81.609375 109.68116Q81.0 110.18116 80.046875 110.18116Q78.8125 110.18116 78.09375 109.290535Q77.25 108.228035 77.25 105.80616ZM78.328125 105.80616Q78.328125 107.915535 78.828125 108.61866Q79.328125 109.321785 80.046875 109.321785Q80.78125 109.321785 81.265625 108.61866Q81.765625 107.915535 81.765625 105.80616Q81.765625 103.68116 81.265625 102.99366Q80.78125 102.290535 80.03125 102.290535Q79.3125 102.290535 78.875 102.89991Q78.328125 103.68116 78.328125 105.80616ZM84.25 107.790535L85.359375 107.696785Q85.484375 108.509285 85.921875 108.915535Q86.375 109.321785 87.015625 109.321785Q87.765625 109.321785 88.296875 108.74366Q88.828125 108.165535 88.828125 107.228035Q88.828125 106.321785 88.3125 105.80616Q87.8125 105.27491 86.984375 105.27491Q86.484375 105.27491 86.0625 105.509285Q85.65625 105.74366 85.421875 106.103035L84.4375 105.978035L85.265625 101.571785L89.546875 101.571785L89.546875 102.571785L86.109375 102.571785L85.65625 104.884285Q86.421875 104.33741 87.265625 104.33741Q88.390625 104.33741 89.15625 105.11866Q89.9375 105.89991 89.9375 107.134285Q89.9375 108.290535 89.265625 109.14991Q88.4375 110.18116 87.015625 110.18116Q85.84375 110.18116 85.09375 109.52491Q84.359375 108.86866 84.25 107.790535Z" fill-rule="nonzero"/><path fill="#ffffff" d="M74.25 73.97121Q74.25 72.43996 74.5625 71.51808Q74.875 70.58058 75.484375 70.08058Q76.109375 69.58058 77.046875 69.58058Q77.734375 69.58058 78.25 69.86183Q78.78125 70.14308 79.125 70.67433Q79.46875 71.18996 79.65625 71.93996Q79.84375 72.68996 79.84375 73.97121Q79.84375 75.48683 79.53125 76.40871Q79.234375 77.33058 78.609375 77.84621Q78.0 78.34621 77.046875 78.34621Q75.8125 78.34621 75.09375 77.45558Q74.25 76.39308 74.25 73.97121ZM75.328125 73.97121Q75.328125 76.08058 75.828125 76.78371Q76.328125 77.48683 77.046875 77.48683Q77.78125 77.48683 78.265625 76.78371Q78.765625 76.08058 78.765625 73.97121Q78.765625 71.84621 78.265625 71.15871Q77.78125 70.45558 77.03125 70.45558Q76.3125 70.45558 75.875 71.06496Q75.328125 71.84621 75.328125 73.97121ZM81.84375 78.20558L81.84375 77.00246L83.046875 77.00246L83.046875 78.20558L81.84375 78.20558ZM88.21875 78.20558L87.171875 78.20558L87.171875 71.48683Q86.78125 71.84621 86.15625 72.22121Q85.546875 72.58058 85.0625 72.75246L85.0625 71.73683Q85.9375 71.31496 86.59375 70.73683Q87.265625 70.14308 87.546875 69.58058L88.21875 69.58058L88.21875 78.20558Z" fill-rule="nonzero"/><path fill="#ffffff" d="M175.56003 358.23438L175.56003 359.25L169.87253 359.25Q169.87253 358.875 169.99753 358.51562Q170.21628 357.9375 170.68503 357.375Q171.1694 356.8125 172.07565 356.07812Q173.4819 354.92188 173.96628 354.25Q174.46628 353.57812 174.46628 352.98438Q174.46628 352.35938 174.01315 351.9375Q173.56003 351.5 172.84128 351.5Q172.07565 351.5 171.62253 351.95312Q171.1694 352.40625 171.15378 353.21875L170.07565 353.10938Q170.18503 351.89062 170.90378 351.26562Q171.63815 350.625 172.87253 350.625Q174.1069 350.625 174.82565 351.3125Q175.5444 352.0 175.5444 353.01562Q175.5444 353.53125 175.32565 354.03125Q175.12253 354.51562 174.62253 355.07812Q174.13815 355.625 173.01315 356.57812Q172.06003 357.375 171.77878 357.67188Q171.51315 357.95312 171.34128 358.23438L175.56003 358.23438ZM177.01315 355.01562Q177.01315 353.48438 177.32565 352.5625Q177.63815 351.625 178.24753 351.125Q178.87253 350.625 179.81003 350.625Q180.49753 350.625 181.01315 350.90625Q181.5444 351.1875 181.88815 351.71875Q182.2319 352.23438 182.4194 352.98438Q182.6069 353.73438 182.6069 355.01562Q182.6069 356.53125 182.2944 357.45312Q181.99753 358.375 181.37253 358.89062Q180.76315 359.39062 179.81003 359.39062Q178.57565 359.39062 177.8569 358.5Q177.01315 357.4375 177.01315 355.01562ZM178.09128 355.01562Q178.09128 357.125 178.59128 357.82812Q179.09128 358.53125 179.81003 358.53125Q180.5444 358.53125 181.02878 357.82812Q181.52878 357.125 181.52878 355.01562Q181.52878 352.89062 181.02878 352.20312Q180.5444 351.5 179.7944 351.5Q179.07565 351.5 178.63815 352.10938Q178.09128 352.89062 178.09128 355.01562ZM184.01315 355.01562Q184.01315 353.48438 184.32565 352.5625Q184.63815 351.625 185.24753 351.125Q185.87253 350.625 186.81003 350.625Q187.49753 350.625 188.01315 350.90625Q188.5444 351.1875 188.88815 351.71875Q189.2319 352.23438 189.4194 352.98438Q189.6069 353.73438 189.6069 355.01562Q189.6069 356.53125 189.2944 357.45312Q188.99753 358.375 188.37253 358.89062Q187.76315 359.39062 186.81003 359.39062Q185.57565 359.39062 184.8569 358.5Q184.01315 357.4375 184.01315 355.01562ZM185.09128 355.01562Q185.09128 357.125 185.59128 357.82812Q186.09128 358.53125 186.81003 358.53125Q187.5444 358.53125 188.02878 357.82812Q188.52878 357.125 188.52878 355.01562Q188.52878 352.89062 188.02878 352.20312Q187.5444 351.5 186.7944 351.5Q186.07565 351.5 185.63815 352.10938Q185.09128 352.89062 185.09128 355.01562ZM191.01315 355.01562Q191.01315 353.48438 191.32565 352.5625Q191.63815 351.625 192.24753 351.125Q192.87253 350.625 193.81003 350.625Q194.49753 350.625 195.01315 350.90625Q195.5444 351.1875 195.88815 351.71875Q196.2319 352.23438 196.4194 352.98438Q196.6069 353.73438 196.6069 355.01562Q196.6069 356.53125 196.2944 357.45312Q195.99753 358.375 195.37253 358.89062Q194.76315 359.39062 193.81003 359.39062Q192.57565 359.39062 191.8569 358.5Q191.01315 357.4375 191.01315 355.01562ZM192.09128 355.01562Q192.09128 357.125 192.59128 357.82812Q193.09128 358.53125 193.81003 358.53125Q194.5444 358.53125 195.02878 357.82812Q195.52878 357.125 195.52878 355.01562Q195.52878 352.89062 195.02878 352.20312Q194.5444 351.5 193.7944 351.5Q193.07565 351.5 192.63815 352.10938Q192.09128 352.89062 192.09128 355.01562Z" fill-rule="nonzero"/><path fill="#ffffff" d="M289.07236 359.25L289.07236 357.1875L285.3536 357.1875L285.3536 356.21875L289.27548 350.65625L290.13486 350.65625L290.13486 356.21875L291.2911 356.21875L291.2911 357.1875L290.13486 357.1875L290.13486 359.25L289.07236 359.25ZM289.07236 356.21875L289.07236 352.35938L286.38486 356.21875L289.07236 356.21875ZM292.69736 355.01562Q292.69736 353.48438 293.00986 352.5625Q293.32236 351.625 293.93173 351.125Q294.55673 350.625 295.49423 350.625Q296.18173 350.625 296.69736 350.90625Q297.2286 351.1875 297.57236 351.71875Q297.9161 352.23438 298.1036 352.98438Q298.2911 353.73438 298.2911 355.01562Q298.2911 356.53125 297.9786 357.45312Q297.68173 358.375 297.05673 358.89062Q296.44736 359.39062 295.49423 359.39062Q294.25986 359.39062 293.5411 358.5Q292.69736 357.4375 292.69736 355.01562ZM293.77548 355.01562Q293.77548 357.125 294.27548 357.82812Q294.77548 358.53125 295.49423 358.53125Q296.2286 358.53125 296.71298 357.82812Q297.21298 357.125 297.21298 355.01562Q297.21298 352.89062 296.71298 352.20312Q296.2286 351.5 295.4786 351.5Q294.75986 351.5 294.32236 352.10938Q293.77548 352.89062 293.77548 355.01562ZM299.69736 355.01562Q299.69736 353.48438 300.00986 352.5625Q300.32236 351.625 300.93173 351.125Q301.55673 350.625 302.49423 350.625Q303.18173 350.625 303.69736 350.90625Q304.2286 351.1875 304.57236 351.71875Q304.9161 352.23438 305.1036 352.98438Q305.2911 353.73438 305.2911 355.01562Q305.2911 356.53125 304.9786 357.45312Q304.68173 358.375 304.05673 358.89062Q303.44736 359.39062 302.49423 359.39062Q301.25986 359.39062 300.5411 358.5Q299.69736 357.4375 299.69736 355.01562ZM300.77548 355.01562Q300.77548 357.125 301.27548 357.82812Q301.77548 358.53125 302.49423 358.53125Q303.2286 358.53125 303.71298 357.82812Q304.21298 357.125 304.21298 355.01562Q304.21298 352.89062 303.71298 352.20312Q303.2286 351.5 302.4786 351.5Q301.75986 351.5 301.32236 352.10938Q300.77548 352.89062 300.77548 355.01562ZM306.69736 355.01562Q306.69736 353.48438 307.00986 352.5625Q307.32236 351.625 307.93173 351.125Q308.55673 350.625 309.49423 350.625Q310.18173 350.625 310.69736 350.90625Q311.2286 351.1875 311.57236 351.71875Q311.9161 352.23438 312.1036 352.98438Q312.2911 353.73438 312.2911 355.01562Q312.2911 356.53125 311.9786 357.45312Q311.68173 358.375 311.05673 358.89062Q310.44736 359.39062 309.49423 359.39062Q308.25986 359.39062 307.5411 358.5Q306.69736 357.4375 306.69736 355.01562ZM307.77548 355.01562Q307.77548 357.125 308.27548 357.82812Q308.77548 358.53125 309.49423 358.53125Q310.2286 358.53125 310.71298 357.82812Q311.21298 357.125 311.21298 355.01562Q311.21298 352.89062 310.71298 352.20312Q310.2286 351.5 309.4786 351.5Q308.75986 351.5 308.32236 352.10938Q307.77548 352.89062 307.77548 355.01562Z" fill-rule="nonzero"/><path fill="#ffffff" d="M406.85034 352.76562L405.80347 352.84375Q405.66284 352.21875 405.41284 351.9375Q404.97534 351.48438 404.35034 351.48438Q403.85034 351.48438 403.45972 351.76562Q402.97534 352.14062 402.67847 352.84375Q402.39722 353.53125 402.3816 354.8125Q402.7566 354.23438 403.30347 353.95312Q403.86597 353.67188 404.47534 353.67188Q405.52222 353.67188 406.2566 354.45312Q407.0066 355.23438 407.0066 356.45312Q407.0066 357.26562 406.64722 357.96875Q406.30347 358.65625 405.6941 359.03125Q405.08472 359.39062 404.3191 359.39062Q402.99097 359.39062 402.16284 358.42188Q401.33472 357.45312 401.33472 355.23438Q401.33472 352.73438 402.2566 351.60938Q403.05347 350.625 404.41284 350.625Q405.42847 350.625 406.0691 351.20312Q406.72534 351.76562 406.85034 352.76562ZM402.55347 356.46875Q402.55347 357.01562 402.77222 357.51562Q403.0066 358.0 403.41284 358.26562Q403.83472 358.53125 404.30347 358.53125Q404.95972 358.53125 405.4441 358.0Q405.92847 357.45312 405.92847 356.53125Q405.92847 355.64062 405.4441 355.125Q404.97534 354.60938 404.2566 354.60938Q403.53784 354.60938 403.03784 355.125Q402.55347 355.64062 402.55347 356.46875ZM408.3816 355.01562Q408.3816 353.48438 408.6941 352.5625Q409.0066 351.625 409.61597 351.125Q410.24097 350.625 411.17847 350.625Q411.86597 350.625 412.3816 350.90625Q412.91284 351.1875 413.2566 351.71875Q413.60034 352.23438 413.78784 352.98438Q413.97534 353.73438 413.97534 355.01562Q413.97534 356.53125 413.66284 357.45312Q413.36597 358.375 412.74097 358.89062Q412.1316 359.39062 411.17847 359.39062Q409.9441 359.39062 409.22534 358.5Q408.3816 357.4375 408.3816 355.01562ZM409.45972 355.01562Q409.45972 357.125 409.95972 357.82812Q410.45972 358.53125 411.17847 358.53125Q411.91284 358.53125 412.39722 357.82812Q412.89722 357.125 412.89722 355.01562Q412.89722 352.89062 412.39722 352.20312Q411.91284 351.5 411.16284 351.5Q410.4441 351.5 410.0066 352.10938Q409.45972 352.89062 409.45972 355.01562ZM415.3816 355.01562Q415.3816 353.48438 415.6941 352.5625Q416.0066 351.625 416.61597 351.125Q417.24097 350.625 418.17847 350.625Q418.86597 350.625 419.3816 350.90625Q419.91284 351.1875 420.2566 351.71875Q420.60034 352.23438 420.78784 352.98438Q420.97534 353.73438 420.97534 355.01562Q420.97534 356.53125 420.66284 357.45312Q420.36597 358.375 419.74097 358.89062Q419.1316 359.39062 418.17847 359.39062Q416.9441 359.39062 416.22534 358.5Q415.3816 357.4375 415.3816 355.01562ZM416.45972 355.01562Q416.45972 357.125 416.95972 357.82812Q417.45972 358.53125 418.17847 358.53125Q418.91284 358.53125 419.39722 357.82812Q419.89722 357.125 419.89722 355.01562Q419.89722 352.89062 419.39722 352.20312Q418.91284 351.5 418.16284 351.5Q417.4441 351.5 417.0066 352.10938Q416.45972 352.89062 416.45972 355.01562ZM422.3816 355.01562Q422.3816 353.48438 422.6941 352.5625Q423.0066 351.625 423.61597 351.125Q424.24097 350.625 425.17847 350.625Q425.86597 350.625 426.3816 350.90625Q426.91284 351.1875 427.2566 351.71875Q427.60034 352.23438 427.78784 352.98438Q427.97534 353.73438 427.97534 355.01562Q427.97534 356.53125 427.66284 357.45312Q427.36597 358.375 426.74097 358.89062Q426.1316 359.39062 425.17847 359.39062Q423.9441 359.39062 423.22534 358.5Q422.3816 357.4375 422.3816 355.01562ZM423.45972 355.01562Q423.45972 357.125 423.95972 357.82812Q424.45972 358.53125 425.17847 358.53125Q425.91284 358.53125 426.39722 357.82812Q426.89722 357.125 426.89722 355.01562Q426.89722 352.89062 426.39722 352.20312Q425.91284 351.5 425.16284 351.5Q424.4441 351.5 424.0066 352.10938Q423.45972 352.89062 423.45972 355.01562Z" fill-rule="nonzero"/><path fill="#ffffff" d="M518.6908 354.59375Q518.03455 354.34375 517.7064 353.90625Q517.3939 353.45312 517.3939 352.84375Q517.3939 351.90625 518.0658 351.26562Q518.7533 350.625 519.8627 350.625Q520.9877 350.625 521.6752 351.28125Q522.3627 351.9375 522.3627 352.875Q522.3627 353.46875 522.0502 353.90625Q521.7377 354.34375 521.09705 354.59375Q521.8939 354.84375 522.3002 355.42188Q522.7064 356.0 522.7064 356.79688Q522.7064 357.89062 521.9252 358.64062Q521.15955 359.39062 519.8783 359.39062Q518.6127 359.39062 517.8314 358.64062Q517.0502 357.89062 517.0502 356.76562Q517.0502 355.92188 517.47205 355.35938Q517.90955 354.79688 518.6908 354.59375ZM518.47205 352.79688Q518.47205 353.40625 518.8627 353.79688Q519.2689 354.1875 519.8939 354.1875Q520.5033 354.1875 520.8939 353.8125Q521.28455 353.42188 521.28455 352.85938Q521.28455 352.28125 520.8783 351.89062Q520.47205 351.48438 519.8783 351.48438Q519.2689 351.48438 518.8627 351.875Q518.47205 352.26562 518.47205 352.79688ZM518.1439 356.76562Q518.1439 357.21875 518.34705 357.64062Q518.5658 358.0625 518.9877 358.29688Q519.40955 358.53125 519.8939 358.53125Q520.6439 358.53125 521.1283 358.04688Q521.6283 357.5625 521.6283 356.8125Q521.6283 356.04688 521.1283 355.54688Q520.6283 355.04688 519.8627 355.04688Q519.1127 355.04688 518.6283 355.54688Q518.1439 356.03125 518.1439 356.76562ZM524.0658 355.01562Q524.0658 353.48438 524.3783 352.5625Q524.6908 351.625 525.3002 351.125Q525.9252 350.625 526.8627 350.625Q527.5502 350.625 528.0658 350.90625Q528.59705 351.1875 528.9408 351.71875Q529.28455 352.23438 529.47205 352.98438Q529.65955 353.73438 529.65955 355.01562Q529.65955 356.53125 529.34705 357.45312Q529.0502 358.375 528.4252 358.89062Q527.8158 359.39062 526.8627 359.39062Q525.6283 359.39062 524.90955 358.5Q524.0658 357.4375 524.0658 355.01562ZM525.1439 355.01562Q525.1439 357.125 525.6439 357.82812Q526.1439 358.53125 526.8627 358.53125Q527.59705 358.53125 528.0814 357.82812Q528.5814 357.125 528.5814 355.01562Q528.5814 352.89062 528.0814 352.20312Q527.59705 351.5 526.84705 351.5Q526.1283 351.5 525.6908 352.10938Q525.1439 352.89062 525.1439 355.01562ZM531.0658 355.01562Q531.0658 353.48438 531.3783 352.5625Q531.6908 351.625 532.3002 351.125Q532.9252 350.625 533.8627 350.625Q534.5502 350.625 535.0658 350.90625Q535.59705 351.1875 535.9408 351.71875Q536.28455 352.23438 536.47205 352.98438Q536.65955 353.73438 536.65955 355.01562Q536.65955 356.53125 536.34705 357.45312Q536.0502 358.375 535.4252 358.89062Q534.8158 359.39062 533.8627 359.39062Q532.6283 359.39062 531.90955 358.5Q531.0658 357.4375 531.0658 355.01562ZM532.1439 355.01562Q532.1439 357.125 532.6439 357.82812Q533.1439 358.53125 533.8627 358.53125Q534.59705 358.53125 535.0814 357.82812Q535.5814 357.125 535.5814 355.01562Q535.5814 352.89062 535.0814 352.20312Q534.59705 351.5 533.84705 351.5Q533.1283 351.5 532.6908 352.10938Q532.1439 352.89062 532.1439 355.01562ZM538.0658 355.01562Q538.0658 353.48438 538.3783 352.5625Q538.6908 351.625 539.3002 351.125Q539.9252 350.625 540.8627 350.625Q541.5502 350.625 542.0658 350.90625Q542.59705 351.1875 542.9408 351.71875Q543.28455 352.23438 543.47205 352.98438Q543.65955 353.73438 543.65955 355.01562Q543.65955 356.53125 543.34705 357.45312Q543.0502 358.375 542.4252 358.89062Q541.8158 359.39062 540.8627 359.39062Q539.6283 359.39062 538.90955 358.5Q538.0658 357.4375 538.0658 355.01562ZM539.1439 355.01562Q539.1439 357.125 539.6439 357.82812Q540.1439 358.53125 540.8627 358.53125Q541.59705 358.53125 542.0814 357.82812Q542.5814 357.125 542.5814 355.01562Q542.5814 352.89062 542.0814 352.20312Q541.59705 351.5 540.84705 351.5Q540.1283 351.5 539.6908 352.10938Q539.1439 352.89062 539.1439 355.01562Z" fill-rule="nonzero"/><path fill="#ffffff" d="M633.21875 359.25L632.1719 359.25L632.1719 352.53125Q631.78125 352.89062 631.15625 353.26562Q630.5469 353.625 630.0625 353.79688L630.0625 352.78125Q630.9375 352.35938 631.59375 351.78125Q632.2656 351.1875 632.5469 350.625L633.21875 350.625L633.21875 359.25ZM636.25 355.01562Q636.25 353.48438 636.5625 352.5625Q636.875 351.625 637.4844 351.125Q638.1094 350.625 639.0469 350.625Q639.7344 350.625 640.25 350.90625Q640.78125 351.1875 641.125 351.71875Q641.46875 352.23438 641.65625 352.98438Q641.84375 353.73438 641.84375 355.01562Q641.84375 356.53125 641.53125 357.45312Q641.2344 358.375 640.6094 358.89062Q640.0 359.39062 639.0469 359.39062Q637.8125 359.39062 637.09375 358.5Q636.25 357.4375 636.25 355.01562ZM637.3281 355.01562Q637.3281 357.125 637.8281 357.82812Q638.3281 358.53125 639.0469 358.53125Q639.78125 358.53125 640.2656 357.82812Q640.7656 357.125 640.7656 355.01562Q640.7656 352.89062 640.2656 352.20312Q639.78125 351.5 639.03125 351.5Q638.3125 351.5 637.875 352.10938Q637.3281 352.89062 637.3281 355.01562ZM643.25 355.01562Q643.25 353.48438 643.5625 352.5625Q643.875 351.625 644.4844 351.125Q645.1094 350.625 646.0469 350.625Q646.7344 350.625 647.25 350.90625Q647.78125 351.1875 648.125 351.71875Q648.46875 352.23438 648.65625 352.98438Q648.84375 353.73438 648.84375 355.01562Q648.84375 356.53125 648.53125 357.45312Q648.2344 358.375 647.6094 358.89062Q647.0 359.39062 646.0469 359.39062Q644.8125 359.39062 644.09375 358.5Q643.25 357.4375 643.25 355.01562ZM644.3281 355.01562Q644.3281 357.125 644.8281 357.82812Q645.3281 358.53125 646.0469 358.53125Q646.78125 358.53125 647.2656 357.82812Q647.7656 357.125 647.7656 355.01562Q647.7656 352.89062 647.2656 352.20312Q646.78125 351.5 646.03125 351.5Q645.3125 351.5 644.875 352.10938Q644.3281 352.89062 644.3281 355.01562ZM650.25 355.01562Q650.25 353.48438 650.5625 352.5625Q650.875 351.625 651.4844 351.125Q652.1094 350.625 653.0469 350.625Q653.7344 350.625 654.25 350.90625Q654.78125 351.1875 655.125 351.71875Q655.46875 352.23438 655.65625 352.98438Q655.84375 353.73438 655.84375 355.01562Q655.84375 356.53125 655.53125 357.45312Q655.2344 358.375 654.6094 358.89062Q654.0 359.39062 653.0469 359.39062Q651.8125 359.39062 651.09375 358.5Q650.25 357.4375 650.25 355.01562ZM651.3281 355.01562Q651.3281 357.125 651.8281 357.82812Q652.3281 358.53125 653.0469 358.53125Q653.78125 358.53125 654.2656 357.82812Q654.7656 357.125 654.7656 355.01562Q654.7656 352.89062 654.2656 352.20312Q653.78125 351.5 653.03125 351.5Q652.3125 351.5 651.875 352.10938Q651.3281 352.89062 651.3281 355.01562ZM657.25 355.01562Q657.25 353.48438 657.5625 352.5625Q657.875 351.625 658.4844 351.125Q659.1094 350.625 660.0469 350.625Q660.7344 350.625 661.25 350.90625Q661.78125 351.1875 662.125 351.71875Q662.46875 352.23438 662.65625 352.98438Q662.84375 353.73438 662.84375 355.01562Q662.84375 356.53125 662.53125 357.45312Q662.2344 358.375 661.6094 358.89062Q661.0 359.39062 660.0469 359.39062Q658.8125 359.39062 658.09375 358.5Q657.25 357.4375 657.25 355.01562ZM658.3281 355.01562Q658.3281 357.125 658.8281 357.82812Q659.3281 358.53125 660.0469 358.53125Q660.78125 358.53125 661.2656 357.82812Q661.7656 357.125 661.7656 355.01562Q661.7656 352.89062 661.2656 352.20312Q660.78125 351.5 660.03125 351.5Q659.3125 351.5 658.875 352.10938Q658.3281 352.89062 658.3281 355.01562Z" fill-rule="nonzero"/><path stroke="#4285f4" stroke-width="4.0" stroke-linecap="butt" d="M209.5 27.75L221.5 27.75" fill-rule="nonzero"/><path fill="#ffffff" d="M230.48438 31.75L230.48438 23.15625L236.28125 23.15625L236.28125 24.171875L231.625 24.171875L231.625 26.828125L235.65625 26.828125L235.65625 27.84375L231.625 27.84375L231.625 31.75L230.48438 31.75ZM236.90625 28.640625Q236.90625 26.90625 237.85938 26.078125Q238.65625 25.390625 239.8125 25.390625Q241.09375 25.390625 241.90625 26.234375Q242.73438 27.0625 242.73438 28.546875Q242.73438 29.75 242.375 30.4375Q242.01562 31.125 241.3125 31.515625Q240.625 31.890625 239.8125 31.890625Q238.51562 31.890625 237.70312 31.0625Q236.90625 30.21875 236.90625 28.640625ZM237.98438 28.640625Q237.98438 29.828125 238.5 30.421875Q239.03125 31.015625 239.8125 31.015625Q240.60938 31.015625 241.125 30.421875Q241.64062 29.828125 241.64062 28.609375Q241.64062 27.453125 241.10938 26.859375Q240.59375 26.265625 239.8125 26.265625Q239.03125 26.265625 238.5 26.859375Q237.98438 27.4375 237.98438 28.640625ZM244.28125 31.75L244.28125 25.53125L245.23438 25.53125L245.23438 26.46875Q245.59375 25.8125 245.89062 25.609375Q246.20312 25.390625 246.57812 25.390625Q247.10938 25.390625 247.65625 25.71875L247.29688 26.703125Q246.90625 26.46875 246.53125 26.46875Q246.17188 26.46875 245.89062 26.6875Q245.625 26.890625 245.51562 27.265625Q245.32812 27.828125 245.32812 28.484375L245.32812 31.75L244.28125 31.75ZM248.45312 31.75L248.45312 23.15625L254.65625 23.15625L254.65625 24.171875L249.59375 24.171875L249.59375 26.796875L254.34375 26.796875L254.34375 27.8125L249.59375 27.8125L249.59375 30.734375L254.85938 30.734375L254.85938 31.75L248.45312 31.75ZM260.35938 30.984375Q259.76562 31.484375 259.21875 31.6875Q258.6875 31.890625 258.0625 31.890625Q257.03125 31.890625 256.48438 31.390625Q255.9375 30.890625 255.9375 30.109375Q255.9375 29.65625 256.14062 29.28125Q256.34375 28.890625 256.6875 28.671875Q257.03125 28.4375 257.45312 28.328125Q257.75 28.234375 258.39062 28.15625Q259.65625 28.015625 260.26562 27.796875Q260.26562 27.578125 260.26562 27.53125Q260.26562 26.875 259.96875 26.609375Q259.5625 26.265625 258.76562 26.265625Q258.03125 26.265625 257.67188 26.53125Q257.3125 26.78125 257.14062 27.4375L256.10938 27.296875Q256.25 26.640625 256.57812 26.234375Q256.90625 25.828125 257.51562 25.609375Q258.125 25.390625 258.92188 25.390625Q259.71875 25.390625 260.21875 25.578125Q260.71875 25.765625 260.95312 26.046875Q261.1875 26.328125 261.28125 26.765625Q261.32812 27.03125 261.32812 27.734375L261.32812 29.140625Q261.32812 30.609375 261.39062 31.0Q261.46875 31.390625 261.67188 31.75L260.5625 31.75Q260.40625 31.421875 260.35938 30.984375ZM260.26562 28.625Q259.6875 28.859375 258.54688 29.03125Q257.89062 29.125 257.625 29.25Q257.35938 29.359375 257.20312 29.578125Q257.0625 29.796875 257.0625 30.078125Q257.0625 30.5 257.375 30.78125Q257.70312 31.0625 258.3125 31.0625Q258.92188 31.0625 259.39062 30.796875Q259.875 30.53125 260.09375 30.0625Q260.26562 29.703125 260.26562 29.015625L260.26562 28.625ZM267.35938 29.46875L268.39062 29.609375Q268.21875 30.671875 267.51562 31.28125Q266.8125 31.890625 265.79688 31.890625Q264.51562 31.890625 263.73438 31.0625Q262.96875 30.21875 262.96875 28.65625Q262.96875 27.65625 263.29688 26.90625Q263.64062 26.140625 264.3125 25.765625Q265.0 25.390625 265.8125 25.390625Q266.8125 25.390625 267.45312 25.90625Q268.10938 26.40625 268.29688 27.359375L267.26562 27.515625Q267.125 26.890625 266.75 26.578125Q266.375 26.25 265.84375 26.25Q265.04688 26.25 264.54688 26.828125Q264.04688 27.390625 264.04688 28.625Q264.04688 29.890625 264.53125 30.453125Q265.01562 31.015625 265.78125 31.015625Q266.40625 31.015625 266.8125 30.640625Q267.23438 30.265625 267.35938 29.46875ZM269.29688 31.75L269.29688 23.15625L270.34375 23.15625L270.34375 26.234375Q271.07812 25.390625 272.20312 25.390625Q272.90625 25.390625 273.40625 25.671875Q273.92188 25.9375 274.14062 26.421875Q274.35938 26.890625 274.35938 27.8125L274.35938 31.75L273.3125 31.75L273.3125 27.8125Q273.3125 27.015625 272.96875 26.65625Q272.625 26.296875 272.0 26.296875Q271.53125 26.296875 271.10938 26.546875Q270.70312 26.78125 270.51562 27.203125Q270.34375 27.609375 270.34375 28.34375L270.34375 31.75L269.29688 31.75Z" fill-rule="nonzero"/><path stroke="#ea4335" stroke-width="4.0" stroke-linecap="butt" d="M291.5 27.75L303.5 27.75" fill-rule="nonzero"/><path fill="#ffffff" d="M312.48438 31.75L312.48438 23.15625L318.28125 23.15625L318.28125 24.171875L313.625 24.171875L313.625 26.828125L317.65625 26.828125L317.65625 27.84375L313.625 27.84375L313.625 31.75L312.48438 31.75ZM319.29688 24.375L319.29688 23.15625L320.35938 23.15625L320.35938 24.375L319.29688 24.375ZM319.29688 31.75L319.29688 25.53125L320.35938 25.53125L320.35938 31.75L319.29688 31.75ZM322.26562 31.75L322.26562 23.15625L323.32812 23.15625L323.32812 31.75L322.26562 31.75ZM327.59375 30.8125L327.75 31.734375Q327.29688 31.828125 326.95312 31.828125Q326.375 31.828125 326.0625 31.65625Q325.75 31.46875 325.60938 31.171875Q325.48438 30.875 325.48438 29.921875L325.48438 26.34375L324.71875 26.34375L324.71875 25.53125L325.48438 25.53125L325.48438 23.984375L326.53125 23.359375L326.53125 25.53125L327.59375 25.53125L327.59375 26.34375L326.53125 26.34375L326.53125 29.984375Q326.53125 30.4375 326.57812 30.5625Q326.64062 30.6875 326.76562 30.765625Q326.89062 30.84375 327.125 30.84375Q327.3125 30.84375 327.59375 30.8125ZM332.54688 29.75L333.64062 29.875Q333.39062 30.828125 332.6875 31.359375Q331.98438 31.890625 330.90625 31.890625Q329.54688 31.890625 328.73438 31.046875Q327.9375 30.203125 327.9375 28.6875Q327.9375 27.125 328.75 26.265625Q329.5625 25.390625 330.84375 25.390625Q332.09375 25.390625 332.875 26.234375Q333.67188 27.078125 333.67188 28.625Q333.67188 28.71875 333.67188 28.90625L329.03125 28.90625Q329.09375 29.9375 329.60938 30.484375Q330.125 31.015625 330.90625 31.015625Q331.48438 31.015625 331.89062 30.71875Q332.3125 30.40625 332.54688 29.75ZM329.09375 28.046875L332.5625 28.046875Q332.5 27.25 332.17188 26.859375Q331.65625 26.25 330.85938 26.25Q330.125 26.25 329.625 26.734375Q329.14062 27.21875 329.09375 28.046875ZM335.28125 31.75L335.28125 25.53125L336.23438 25.53125L336.23438 26.46875Q336.59375 25.8125 336.89062 25.609375Q337.20312 25.390625 337.57812 25.390625Q338.10938 25.390625 338.65625 25.71875L338.29688 26.703125Q337.90625 26.46875 337.53125 26.46875Q337.17188 26.46875 336.89062 26.6875Q336.625 26.890625 336.51562 27.265625Q336.32812 27.828125 336.32812 28.484375L336.32812 31.75L335.28125 31.75ZM338.48438 31.75L341.78125 23.15625L343.0 23.15625L346.51562 31.75L345.23438 31.75L344.21875 29.140625L340.64062 29.140625L339.6875 31.75L338.48438 31.75ZM340.96875 28.21875L343.875 28.21875L342.98438 25.84375Q342.5625 24.765625 342.375 24.0625Q342.20312 24.890625 341.90625 25.703125L340.96875 28.21875ZM346.28125 31.75L346.28125 25.53125L347.23438 25.53125L347.23438 26.46875Q347.59375 25.8125 347.89062 25.609375Q348.20312 25.390625 348.57812 25.390625Q349.10938 25.390625 349.65625 25.71875L349.29688 26.703125Q348.90625 26.46875 348.53125 26.46875Q348.17188 26.46875 347.89062 26.6875Q347.625 26.890625 347.51562 27.265625Q347.32812 27.828125 347.32812 28.484375L347.32812 31.75L346.28125 31.75ZM350.28125 31.75L350.28125 25.53125L351.23438 25.53125L351.23438 26.46875Q351.59375 25.8125 351.89062 25.609375Q352.20312 25.390625 352.57812 25.390625Q353.10938 25.390625 353.65625 25.71875L353.29688 26.703125Q352.90625 26.46875 352.53125 26.46875Q352.17188 26.46875 351.89062 26.6875Q351.625 26.890625 351.51562 27.265625Q351.32812 27.828125 351.32812 28.484375L351.32812 31.75L350.28125 31.75ZM358.35938 30.984375Q357.76562 31.484375 357.21875 31.6875Q356.6875 31.890625 356.0625 31.890625Q355.03125 31.890625 354.48438 31.390625Q353.9375 30.890625 353.9375 30.109375Q353.9375 29.65625 354.14062 29.28125Q354.34375 28.890625 354.6875 28.671875Q355.03125 28.4375 355.45312 28.328125Q355.75 28.234375 356.39062 28.15625Q357.65625 28.015625 358.26562 27.796875Q358.26562 27.578125 358.26562 27.53125Q358.26562 26.875 357.96875 26.609375Q357.5625 26.265625 356.76562 26.265625Q356.03125 26.265625 355.67188 26.53125Q355.3125 26.78125 355.14062 27.4375L354.10938 27.296875Q354.25 26.640625 354.57812 26.234375Q354.90625 25.828125 355.51562 25.609375Q356.125 25.390625 356.92188 25.390625Q357.71875 25.390625 358.21875 25.578125Q358.71875 25.765625 358.95312 26.046875Q359.1875 26.328125 359.28125 26.765625Q359.32812 27.03125 359.32812 27.734375L359.32812 29.140625Q359.32812 30.609375 359.39062 31.0Q359.46875 31.390625 359.67188 31.75L358.5625 31.75Q358.40625 31.421875 358.35938 30.984375ZM358.26562 28.625Q357.6875 28.859375 356.54688 29.03125Q355.89062 29.125 355.625 29.25Q355.35938 29.359375 355.20312 29.578125Q355.0625 29.796875 355.0625 30.078125Q355.0625 30.5 355.375 30.78125Q355.70312 31.0625 356.3125 31.0625Q356.92188 31.0625 357.39062 30.796875Q357.875 30.53125 358.09375 30.0625Q358.26562 29.703125 358.26562 29.015625L358.26562 28.625ZM361.25 34.140625L361.125 33.15625Q361.46875 33.25 361.73438 33.25Q362.07812 33.25 362.28125 33.125Q362.5 33.015625 362.64062 32.8125Q362.73438 32.640625 362.96875 32.015625Q362.98438 31.9375 363.0625 31.765625L360.6875 25.53125L361.82812 25.53125L363.125 29.125Q363.375 29.8125 363.57812 30.578125Q363.76562 29.84375 364.01562 29.15625L365.34375 25.53125L366.39062 25.53125L364.03125 31.859375Q363.64062 32.875 363.4375 33.265625Q363.15625 33.796875 362.78125 34.03125Q362.42188 34.28125 361.92188 34.28125Q361.625 34.28125 361.25 34.140625Z" fill-rule="nonzero"/><path stroke="#fbbc04" stroke-width="4.0" stroke-linecap="butt" d="M381.5 27.75L393.5 27.75" fill-rule="nonzero"/><path fill="#ffffff" d="M401.84375 29.3125L402.875 29.171875Q402.90625 30.15625 403.23438 30.515625Q403.5625 30.875 404.15625 30.875Q404.57812 30.875 404.89062 30.6875Q405.20312 30.484375 405.3125 30.15625Q405.4375 29.8125 405.4375 29.078125L405.4375 23.15625L406.5625 23.15625L406.5625 29.015625Q406.5625 30.09375 406.29688 30.6875Q406.04688 31.28125 405.48438 31.59375Q404.92188 31.890625 404.15625 31.890625Q403.03125 31.890625 402.42188 31.25Q401.82812 30.59375 401.84375 29.3125ZM412.35938 30.984375Q411.76562 31.484375 411.21875 31.6875Q410.6875 31.890625 410.0625 31.890625Q409.03125 31.890625 408.48438 31.390625Q407.9375 30.890625 407.9375 30.109375Q407.9375 29.65625 408.14062 29.28125Q408.34375 28.890625 408.6875 28.671875Q409.03125 28.4375 409.45312 28.328125Q409.75 28.234375 410.39062 28.15625Q411.65625 28.015625 412.26562 27.796875Q412.26562 27.578125 412.26562 27.53125Q412.26562 26.875 411.96875 26.609375Q411.5625 26.265625 410.76562 26.265625Q410.03125 26.265625 409.67188 26.53125Q409.3125 26.78125 409.14062 27.4375L408.10938 27.296875Q408.25 26.640625 408.57812 26.234375Q408.90625 25.828125 409.51562 25.609375Q410.125 25.390625 410.92188 25.390625Q411.71875 25.390625 412.21875 25.578125Q412.71875 25.765625 412.95312 26.046875Q413.1875 26.328125 413.28125 26.765625Q413.32812 27.03125 413.32812 27.734375L413.32812 29.140625Q413.32812 30.609375 413.39062 31.0Q413.46875 31.390625 413.67188 31.75L412.5625 31.75Q412.40625 31.421875 412.35938 30.984375ZM412.26562 28.625Q411.6875 28.859375 410.54688 29.03125Q409.89062 29.125 409.625 29.25Q409.35938 29.359375 409.20312 29.578125Q409.0625 29.796875 409.0625 30.078125Q409.0625 30.5 409.375 30.78125Q409.70312 31.0625 410.3125 31.0625Q410.92188 31.0625 411.39062 30.796875Q411.875 30.53125 412.09375 30.0625Q412.26562 29.703125 412.26562 29.015625L412.26562 28.625ZM417.01562 31.75L414.65625 25.53125L415.76562 25.53125L417.10938 29.25Q417.3125 29.859375 417.5 30.5Q417.64062 30.015625 417.89062 29.328125L419.28125 25.53125L420.35938 25.53125L418.0 31.75L417.01562 31.75ZM424.35938 30.984375Q423.76562 31.484375 423.21875 31.6875Q422.6875 31.890625 422.0625 31.890625Q421.03125 31.890625 420.48438 31.390625Q419.9375 30.890625 419.9375 30.109375Q419.9375 29.65625 420.14062 29.28125Q420.34375 28.890625 420.6875 28.671875Q421.03125 28.4375 421.45312 28.328125Q421.75 28.234375 422.39062 28.15625Q423.65625 28.015625 424.26562 27.796875Q424.26562 27.578125 424.26562 27.53125Q424.26562 26.875 423.96875 26.609375Q423.5625 26.265625 422.76562 26.265625Q422.03125 26.265625 421.67188 26.53125Q421.3125 26.78125 421.14062 27.4375L420.10938 27.296875Q420.25 26.640625 420.57812 26.234375Q420.90625 25.828125 421.51562 25.609375Q422.125 25.390625 422.92188 25.390625Q423.71875 25.390625 424.21875 25.578125Q424.71875 25.765625 424.95312 26.046875Q425.1875 26.328125 425.28125 26.765625Q425.32812 27.03125 425.32812 27.734375L425.32812 29.140625Q425.32812 30.609375 425.39062 31.0Q425.46875 31.390625 425.67188 31.75L424.5625 31.75Q424.40625 31.421875 424.35938 30.984375ZM424.26562 28.625Q423.6875 28.859375 422.54688 29.03125Q421.89062 29.125 421.625 29.25Q421.35938 29.359375 421.20312 29.578125Q421.0625 29.796875 421.0625 30.078125Q421.0625 30.5 421.375 30.78125Q421.70312 31.0625 422.3125 31.0625Q422.92188 31.0625 423.39062 30.796875Q423.875 30.53125 424.09375 30.0625Q424.26562 29.703125 424.26562 29.015625L424.26562 28.625ZM427.04688 28.984375L428.10938 28.890625Q428.1875 29.546875 428.46875 29.953125Q428.75 30.359375 429.32812 30.625Q429.92188 30.875 430.65625 30.875Q431.29688 30.875 431.79688 30.6875Q432.29688 30.484375 432.53125 30.15625Q432.78125 29.8125 432.78125 29.421875Q432.78125 29.015625 432.54688 28.71875Q432.3125 28.40625 431.78125 28.203125Q431.42188 28.0625 430.23438 27.78125Q429.0625 27.5 428.59375 27.25Q427.96875 26.921875 427.67188 26.453125Q427.375 25.96875 427.375 25.375Q427.375 24.734375 427.73438 24.171875Q428.10938 23.59375 428.8125 23.3125Q429.53125 23.015625 430.39062 23.015625Q431.34375 23.015625 432.07812 23.328125Q432.8125 23.625 433.20312 24.234375Q433.59375 24.828125 433.625 25.578125L432.53125 25.65625Q432.4375 24.84375 431.92188 24.4375Q431.42188 24.015625 430.4375 24.015625Q429.40625 24.015625 428.9375 24.390625Q428.46875 24.765625 428.46875 25.296875Q428.46875 25.765625 428.79688 26.0625Q429.125 26.359375 430.5 26.671875Q431.89062 26.984375 432.40625 27.21875Q433.15625 27.578125 433.51562 28.109375Q433.875 28.625 433.875 29.328125Q433.875 30.015625 433.48438 30.625Q433.09375 31.21875 432.35938 31.5625Q431.625 31.890625 430.70312 31.890625Q429.53125 31.890625 428.73438 31.5625Q427.95312 31.21875 427.5 30.53125Q427.0625 29.84375 427.04688 28.984375ZM439.35938 29.46875L440.39062 29.609375Q440.21875 30.671875 439.51562 31.28125Q438.8125 31.890625 437.79688 31.890625Q436.51562 31.890625 435.73438 31.0625Q434.96875 30.21875 434.96875 28.65625Q434.96875 27.65625 435.29688 26.90625Q435.64062 26.140625 436.3125 25.765625Q437.0 25.390625 437.8125 25.390625Q438.8125 25.390625 439.45312 25.90625Q440.10938 26.40625 440.29688 27.359375L439.26562 27.515625Q439.125 26.890625 438.75 26.578125Q438.375 26.25 437.84375 26.25Q437.04688 26.25 436.54688 26.828125Q436.04688 27.390625 436.04688 28.625Q436.04688 29.890625 436.53125 30.453125Q437.01562 31.015625 437.78125 31.015625Q438.40625 31.015625 438.8125 30.640625Q439.23438 30.265625 439.35938 29.46875ZM441.28125 31.75L441.28125 25.53125L442.23438 25.53125L442.23438 26.46875Q442.59375 25.8125 442.89062 25.609375Q443.20312 25.390625 443.57812 25.390625Q444.10938 25.390625 444.65625 25.71875L444.29688 26.703125Q443.90625 26.46875 443.53125 26.46875Q443.17188 26.46875 442.89062 26.6875Q442.625 26.890625 442.51562 27.265625Q442.32812 27.828125 442.32812 28.484375L442.32812 31.75L441.28125 31.75ZM445.29688 24.375L445.29688 23.15625L446.35938 23.15625L446.35938 24.375L445.29688 24.375ZM445.29688 31.75L445.29688 25.53125L446.35938 25.53125L446.35938 31.75L445.29688 31.75ZM448.29688 34.140625L448.29688 25.53125L449.25 25.53125L449.25 26.328125Q449.59375 25.859375 450.01562 25.625Q450.45312 25.390625 451.0625 25.390625Q451.85938 25.390625 452.46875 25.796875Q453.07812 26.203125 453.375 26.953125Q453.6875 27.703125 453.6875 28.59375Q453.6875 29.546875 453.34375 30.3125Q453.01562 31.078125 452.35938 31.484375Q451.70312 31.890625 450.98438 31.890625Q450.45312 31.890625 450.03125 31.671875Q449.60938 31.4375 449.34375 31.109375L449.34375 34.140625L448.29688 34.140625ZM449.25 28.671875Q449.25 29.875 449.73438 30.453125Q450.21875 31.015625 450.90625 31.015625Q451.60938 31.015625 452.10938 30.421875Q452.60938 29.828125 452.60938 28.578125Q452.60938 27.390625 452.125 26.8125Q451.64062 26.21875 450.95312 26.21875Q450.28125 26.21875 449.76562 26.84375Q449.25 27.46875 449.25 28.671875ZM457.59375 30.8125L457.75 31.734375Q457.29688 31.828125 456.95312 31.828125Q456.375 31.828125 456.0625 31.65625Q455.75 31.46875 455.60938 31.171875Q455.48438 30.875 455.48438 29.921875L455.48438 26.34375L454.71875 26.34375L454.71875 25.53125L455.48438 25.53125L455.48438 23.984375L456.53125 23.359375L456.53125 25.53125L457.59375 25.53125L457.59375 26.34375L456.53125 26.34375L456.53125 29.984375Q456.53125 30.4375 456.57812 30.5625Q456.64062 30.6875 456.76562 30.765625Q456.89062 30.84375 457.125 30.84375Q457.3125 30.84375 457.59375 30.8125Z" fill-rule="nonzero"/></svg>