<svg version="1.1" viewBox="0.0 0.0 667.0 415.0" fill="none" stroke="none" stroke-linecap="square" stroke-miterlimit="10" width="667" height="415" xmlns:xlink="http://www.w3.org/1999/xlink" xmlns="http://www.w3.org/2000/svg"><path fill="#131418" d="M0 0L667.0 0L667.0 415.0L0 415.0L0 0Z" fill-rule="nonzero"/><path stroke="#ffffff" stroke-width="1.0" stroke-linecap="butt" d="M177.5 55.5L177.5 342.5" fill-rule="nonzero"/><path stroke="#ffffff" stroke-width="1.0" stroke-linecap="butt" d="M294.5 55.5L294.5 342.5" fill-rule="nonzero"/><path stroke="#ffffff" stroke-width="1.0" stroke-linecap="butt" d="M411.5 55.5L411.5 342.5" fill-rule="nonzero"/><path stroke="#ffffff" stroke-width="1.0" stroke-linecap="butt" d="M529.5 55.5L529.5 342.5" fill-rule="nonzero"/><path stroke="#ffffff" stroke-width="1.0" stroke-linecap="butt" d="M646.5 55.5L646.5 342.5" fill-rule="nonzero"/><path stroke="#e0e0e1" stroke-width="1.0" stroke-linecap="butt" d="M89.5 342.5L646.5 342.5" fill-rule="nonzero"/><path stroke="#ffffff" stroke-width="1.0" stroke-linecap="butt" d="M89.5 246.5L646.5 246.5" fill-rule="nonzero"/><path stroke="#ffffff" stroke-width="1.0" stroke-linecap="butt" d="M89.5 151.5L646.5 151.5" fill-rule="nonzero"/><path stroke="#ffffff" stroke-width="1.0" stroke-linecap="butt" d="M89.5 55.5L646.5 55.5" fill-rule="nonzero"/><clipPath id="id_0"><path d="M89.75 55.583332L646.25 55.583332L646.25 342.25L89.75 342.25L89.75 55.583332Z" clip-rule="nonzero"/></clipPath><path stroke="#4285f4" stroke-width="2.0" stroke-linecap="butt" clip-path="url(#id_0)" d="M89.75 189.17L119.039474 108.903336L148.32895 251.66333L177.61842 250.66L206.9079 248.682L236.19737 227.10556L265.48685 242.65381L294.7763 248.43834L324.0658 235.29149L353.35526 241.40067L382.64474 237.69485L411.9342 231.40555L441.2237 229.61205L470.51315 234.17667L499.80264 235.68645L529.0921 237.79584L558.3816 243.8053L587.6711 240.1011L616.9605 245.5679L646.25 254.50133" fill-rule="nonzero"/><path stroke="#ea4335" stroke-width="2.0" stroke-linecap="butt" clip-path="url(#id_0)" d="M89.75 136.42334L119.039474 177.41667L148.32895 55.965557L177.61842 139.43333L206.9079 132.41L236.19737 114.35L265.48685 121.27095L294.7763 132.98334L324.0658 106.03667L353.35526 105.922L382.64474 83.15546L411.9342 80.09333L441.2237 116.09205L470.51315 141.21477L499.80264 139.86333L529.0921 118.65L558.3816 149.3402L587.6711 126.29444L616.9605 126.79737L646.25 137.57" fill-rule="nonzero"/><path stroke="#fbbc04" stroke-width="2.0" stroke-linecap="butt" clip-path="url(#id_0)" d="M89.75 235.03667L119.039474 154.19667L148.32895 168.91222L177.61842 178.27667L206.9079 205.22333L236.19737 183.34111L265.48685 222.34143L294.7763 241.415L324.0658 225.29L353.35526 231.138L382.64474 237.95546L411.9342 234.22444L441.2237 224.62846L470.51315 209.93286L499.80264 214.74066L529.0921 229.08833L558.3816 235.54254L587.6711 223.09222L616.9605 231.05351L646.25 240.34" fill-rule="nonzero"/><path fill="#000000" fill-opacity="0.0" clip-path="url(#id_0)" d="M92.75 189.17C92.75 190.82686 91.40685 192.17 89.75 192.17C88.09315 192.17 86.75 190.82686 86.75 189.17C86.75 187.51315 88.09315 186.17 89.75 186.17C91.40685 186.17 92.75 187.51315 92.75 189.17Z" fill-rule="nonzero"/><path fill="#000000" fill-opacity="0.0" clip-path="url(#id_0)" d="M122.039474 108.903336C122.039474 110.56019 120.69633 111.903336 119.039474 111.903336C117.38262 111.903336 116.039474 110.56019 116.039474 108.903336C116.039474 107.24648 117.38262 105.903336 119.039474 105.903336C120.69633 105.903336 122.039474 107.24648 122.039474 108.903336Z" fill-rule="nonzero"/><path fill="#000000" fill-opacity="0.0" clip-path="url(#id_0)" d="M151.32895 251.66333C151.32895 253.32019 149.9858 254.66333 148.32895 254.66333C146.67209 254.66333 145.32895 253.32019 145.32895 251.66333C145.32895 250.00648 146.67209 248.66333 148.32895 248.66333C149.9858 248.66333 151.32895 250.00648 151.32895 251.66333Z" fill-rule="nonzero"/><path fill="#000000" fill-opacity="0.0" clip-path="url(#id_0)" d="M180.61842 250.66C180.61842 252.31685 179.27527 253.66 177.61842 253.66C175.96156 253.66 174.61842 252.31685 174.61842 250.66C174.61842 249.00314 175.96156 247.66 177.61842 247.66C179.27527 247.66 180.61842 249.00314 180.61842 250.66Z" fill-rule="nonzero"/><path fill="#000000" fill-opacity="0.0" clip-path="url(#id_0)" d="M209.9079 248.682C209.9079 250.33885 208.56474 251.682 206.9079 251.682C205.25104 251.682 203.9079 250.33885 203.9079 248.682C203.9079 247.02515 205.25104 245.682 206.9079 245.682C208.56474 245.682 209.9079 247.02515 209.9079 248.682Z" fill-rule="nonzero"/><path fill="#000000" fill-opacity="0.0" clip-path="url(#id_0)" d="M239.19737 227.10556C239.19737 228.7624 237.85422 230.10556 236.19737 230.10556C234.54051 230.10556 233.19737 228.7624 233.19737 227.10556C233.19737 225.4487 234.54051 224.10556 236.19737 224.10556C237.85422 224.10556 239.19737 225.4487 239.19737 227.10556Z" fill-rule="nonzero"/><path fill="#000000" fill-opacity="0.0" clip-path="url(#id_0)" d="M268.48685 242.65381C268.48685 244.31067 267.1437 245.65381 265.48685 245.65381C263.83 245.65381 262.48685 244.31067 262.48685 242.65381C262.48685 240.99695 263.83 239.65381 265.48685 239.65381C267.1437 239.65381 268.48685 240.99695 268.48685 242.65381Z" fill-rule="nonzero"/><path fill="#000000" fill-opacity="0.0" clip-path="url(#id_0)" d="M297.7763 248.43834C297.7763 250.09518 296.43317 251.43834 294.7763 251.43834C293.11948 251.43834 291.7763 250.09518 291.7763 248.43834C291.7763 246.78148 293.11948 245.43834 294.7763 245.43834C296.43317 245.43834 297.7763 246.78148 297.7763 248.43834Z" fill-rule="nonzero"/><path fill="#000000" fill-opacity="0.0" clip-path="url(#id_0)" d="M327.0658 235.29149C327.0658 236.94833 325.72266 238.29149 324.0658 238.29149C322.40894 238.29149 321.0658 236.94833 321.0658 235.29149C321.0658 233.63463 322.40894 232.29149 324.0658 232.29149C325.72266 232.29149 327.0658 233.63463 327.0658 235.29149Z" fill-rule="nonzero"/><path fill="#000000" fill-opacity="0.0" clip-path="url(#id_0)" d="M356.35526 241.40067C356.35526 243.05753 355.01212 244.40067 353.35526 244.40067C351.6984 244.40067 350.35526 243.05753 350.35526 241.40067C350.35526 239.7438 351.6984 238.40067 353.35526 238.40067C355.01212 238.40067 356.35526 239.7438 356.35526 241.40067Z" fill-rule="nonzero"/><path fill="#000000" fill-opacity="0.0" clip-path="url(#id_0)" d="M385.64474 237.69485C385.64474 239.3517 384.3016 240.69485 382.64474 240.69485C380.98788 240.69485 379.64474 239.3517 379.64474 237.69485C379.64474 236.038 380.98788 234.69485 382.64474 234.69485C384.3016 234.69485 385.64474 236.038 385.64474 237.69485Z" fill-rule="nonzero"/><path fill="#000000" fill-opacity="0.0" clip-path="url(#id_0)" d="M414.9342 231.40555C414.9342 233.06241 413.59106 234.40555 411.9342 234.40555C410.27734 234.40555 408.9342 233.06241 408.9342 231.40555C408.9342 229.7487 410.27734 228.40555 411.9342 228.40555C413.59106 228.40555 414.9342 229.7487 414.9342 231.40555Z" fill-rule="nonzero"/><path fill="#000000" fill-opacity="0.0" clip-path="url(#id_0)" d="M444.2237 229.61205C444.2237 231.2689 442.88052 232.61205 441.2237 232.61205C439.56683 232.61205 438.2237 231.2689 438.2237 229.61205C438.2237 227.9552 439.56683 226.61205 441.2237 226.61205C442.88052 226.61205 444.2237 227.9552 444.2237 229.61205Z" fill-rule="nonzero"/><path fill="#000000" fill-opacity="0.0" clip-path="url(#id_0)" d="M473.51315 234.17667C473.51315 235.83353 472.17 237.17667 470.51315 237.17667C468.8563 237.17667 467.51315 235.83353 467.51315 234.17667C467.51315 232.5198 468.8563 231.17667 470.51315 231.17667C472.17 231.17667 473.51315 232.5198 473.51315 234.17667Z" fill-rule="nonzero"/><path fill="#000000" fill-opacity="0.0" clip-path="url(#id_0)" d="M502.80264 235.68645C502.80264 237.34329 501.45947 238.68645 499.80264 238.68645C498.14578 238.68645 496.80264 237.34329 496.80264 235.68645C496.80264 234.02959 498.14578 232.68645 499.80264 232.68645C501.45947 232.68645 502.80264 234.02959 502.80264 235.68645Z" fill-rule="nonzero"/><path fill="#000000" fill-opacity="0.0" clip-path="url(#id_0)" d="M532.0921 237.79584C532.0921 239.45268 530.74896 240.79584 529.0921 240.79584C527.43524 240.79584 526.0921 239.45268 526.0921 237.79584C526.0921 236.13898 527.43524 234.79584 529.0921 234.79584C530.74896 234.79584 532.0921 236.13898 532.0921 237.79584Z" fill-rule="nonzero"/><path fill="#000000" fill-opacity="0.0" clip-path="url(#id_0)" d="M561.3816 243.8053C561.3816 245.46214 560.03845 246.8053 558.3816 246.8053C556.72473 246.8053 555.3816 245.46214 555.3816 243.8053C555.3816 242.14844 556.72473 240.8053 558.3816 240.8053C560.03845 240.8053 561.3816 242.14844 561.3816 243.8053Z" fill-rule="nonzero"/><path fill="#000000" fill-opacity="0.0" clip-path="url(#id_0)" d="M590.6711 240.1011C590.6711 241.75797 589.3279 243.1011 587.6711 243.1011C586.0142 243.1011 584.6711 241.75797 584.6711 240.1011C584.6711 238.44426 586.0142 237.1011 587.6711 237.1011C589.3279 237.1011 590.6711 238.44426 590.6711 240.1011Z" fill-rule="nonzero"/><path fill="#000000" fill-opacity="0.0" clip-path="url(#id_0)" d="M619.9605 245.5679C619.9605 247.22475 618.6174 248.5679 616.9605 248.5679C615.30365 248.5679 613.9605 247.22475 613.9605 245.5679C613.9605 243.91104 615.30365 242.5679 616.9605 242.5679C618.6174 242.5679 619.9605 243.91104 619.9605 245.5679Z" fill-rule="nonzero"/><path fill="#000000" fill-opacity="0.0" clip-path="url(#id_0)" d="M649.25 254.50133C649.25 256.15817 647.90686 257.50134 646.25 257.50134C644.59314 257.50134 643.25 256.15817 643.25 254.50133C643.25 252.84448 644.59314 251.50133 646.25 251.50133C647.90686 251.50133 649.25 252.84448 649.25 254.50133Z" fill-rule="nonzero"/><path fill="#000000" fill-opacity="0.0" clip-path="url(#id_0)" d="M92.75 136.42334C92.75 138.08018 91.40685 139.42334 89.75 139.42334C88.09315 139.42334 86.75 138.08018 86.75 136.42334C86.75 134.76648 88.09315 133.42334 89.75 133.42334C91.40685 133.42334 92.75 134.76648 92.75 136.42334Z" fill-rule="nonzero"/><path fill="#000000" fill-opacity="0.0" clip-path="url(#id_0)" d="M122.039474 177.41667C122.039474 179.07352 120.69633 180.41667 119.039474 180.41667C117.38262 180.41667 116.039474 179.07352 116.039474 177.41667C116.039474 175.75981 117.38262 174.41667 119.039474 174.41667C120.69633 174.41667 122.039474 175.75981 122.039474 177.41667Z" fill-rule="nonzero"/><path fill="#000000" fill-opacity="0.0" clip-path="url(#id_0)" d="M151.32895 55.965557C151.32895 57.62241 149.9858 58.965557 148.32895 58.965557C146.67209 58.965557 145.32895 57.62241 145.32895 55.965557C145.32895 54.3087 146.67209 52.965557 148.32895 52.965557C149.9858 52.965557 151.32895 54.3087 151.32895 55.965557Z" fill-rule="nonzero"/><path fill="#000000" fill-opacity="0.0" clip-path="url(#id_0)" d="M180.61842 139.43333C180.61842 141.0902 179.27527 142.43333 177.61842 142.43333C175.96156 142.43333 174.61842 141.0902 174.61842 139.43333C174.61842 137.77647 175.96156 136.43333 177.61842 136.43333C179.27527 136.43333 180.61842 137.77647 180.61842 139.43333Z" fill-rule="nonzero"/><path fill="#000000" fill-opacity="0.0" clip-path="url(#id_0)" d="M209.9079 132.41C209.9079 134.06685 208.56474 135.41 206.9079 135.41C205.25104 135.41 203.9079 134.06685 203.9079 132.41C203.9079 130.75314 205.25104 129.41 206.9079 129.41C208.56474 129.41 209.9079 130.75314 209.9079 132.41Z" fill-rule="nonzero"/><path fill="#000000" fill-opacity="0.0" clip-path="url(#id_0)" d="M239.19737 114.35C239.19737 116.00685 237.85422 117.35 236.19737 117.35C234.54051 117.35 233.19737 116.00685 233.19737 114.35C233.19737 112.693146 234.54051 111.35 236.19737 111.35C237.85422 111.35 239.19737 112.693146 239.19737 114.35Z" fill-rule="nonzero"/><path fill="#000000" fill-opacity="0.0" clip-path="url(#id_0)" d="M268.48685 121.27095C268.48685 122.9278 267.1437 124.27095 265.48685 124.27095C263.83 124.27095 262.48685 122.9278 262.48685 121.27095C262.48685 119.6141 263.83 118.27095 265.48685 118.27095C267.1437 118.27095 268.48685 119.6141 268.48685 121.27095Z" fill-rule="nonzero"/><path fill="#000000" fill-opacity="0.0" clip-path="url(#id_0)" d="M297.7763 132.98334C297.7763 134.64018 296.43317 135.98334 294.7763 135.98334C293.11948 135.98334 291.7763 134.64018 291.7763 132.98334C291.7763 131.32648 293.11948 129.98334 294.7763 129.98334C296.43317 129.98334 297.7763 131.32648 297.7763 132.98334Z" fill-rule="nonzero"/><path fill="#000000" fill-opacity="0.0" clip-path="url(#id_0)" d="M327.0658 106.03667C327.0658 107.69352 325.72266 109.03667 324.0658 109.03667C322.40894 109.03667 321.0658 107.69352 321.0658 106.03667C321.0658 104.379814 322.40894 103.03667 324.0658 103.03667C325.72266 103.03667 327.0658 104.379814 327.0658 106.03667Z" fill-rule="nonzero"/><path fill="#000000" fill-opacity="0.0" clip-path="url(#id_0)" d="M356.35526 105.922C356.35526 107.57886 355.01212 108.922 353.35526 108.922C351.6984 108.922 350.35526 107.57886 350.35526 105.922C350.35526 104.265144 351.6984 102.922 353.35526 102.922C355.01212 102.922 356.35526 104.265144 356.35526 105.922Z" fill-rule="nonzero"/><path fill="#000000" fill-opacity="0.0" clip-path="url(#id_0)" d="M385.64474 83.15546C385.64474 84.81231 384.3016 86.15546 382.64474 86.15546C380.98788 86.15546 379.64474 84.81231 379.64474 83.15546C379.64474 81.498604 380.98788 80.15546 382.64474 80.15546C384.3016 80.15546 385.64474 81.498604 385.64474 83.15546Z" fill-rule="nonzero"/><path fill="#000000" fill-opacity="0.0" clip-path="url(#id_0)" d="M414.9342 80.09333C414.9342 81.75019 413.59106 83.09333 411.9342 83.09333C410.27734 83.09333 408.9342 81.75019 408.9342 80.09333C408.9342 78.43648 410.27734 77.09333 411.9342 77.09333C413.59106 77.09333 414.9342 78.43648 414.9342 80.09333Z" fill-rule="nonzero"/><path fill="#000000" fill-opacity="0.0" clip-path="url(#id_0)" d="M444.2237 116.09205C444.2237 117.74891 442.88052 119.09205 441.2237 119.09205C439.56683 119.09205 438.2237 117.74891 438.2237 116.09205C438.2237 114.435196 439.56683 113.09205 441.2237 113.09205C442.88052 113.09205 444.2237 114.435196 444.2237 116.09205Z" fill-rule="nonzero"/><path fill="#000000" fill-opacity="0.0" clip-path="url(#id_0)" d="M473.51315 141.21477C473.51315 142.87161 472.17 144.21477 470.51315 144.21477C468.8563 144.21477 467.51315 142.87161 467.51315 141.21477C467.51315 139.5579 468.8563 138.21477 470.51315 138.21477C472.17 138.21477 473.51315 139.5579 473.51315 141.21477Z" fill-rule="nonzero"/><path fill="#000000" fill-opacity="0.0" clip-path="url(#id_0)" d="M502.80264 139.86333C502.80264 141.52019 501.45947 142.86333 499.80264 142.86333C498.14578 142.86333 496.80264 141.52019 496.80264 139.86333C496.80264 138.20648 498.14578 136.86333 499.80264 136.86333C501.45947 136.86333 502.80264 138.20648 502.80264 139.86333Z" fill-rule="nonzero"/><path fill="#000000" fill-opacity="0.0" clip-path="url(#id_0)" d="M532.0921 118.65C532.0921 120.306854 530.74896 121.65 529.0921 121.65C527.43524 121.65 526.0921 120.306854 526.0921 118.65C526.0921 116.99315 527.43524 115.65 529.0921 115.65C530.74896 115.65 532.0921 116.99315 532.0921 118.65Z" fill-rule="nonzero"/><path fill="#000000" fill-opacity="0.0" clip-path="url(#id_0)" d="M561.3816 149.3402C561.3816 150.99706 560.03845 152.3402 558.3816 152.3402C556.72473 152.3402 555.3816 150.99706 555.3816 149.3402C555.3816 147.68333 556.72473 146.3402 558.3816 146.3402C560.03845 146.3402 561.3816 147.68333 561.3816 149.3402Z" fill-rule="nonzero"/><path fill="#000000" fill-opacity="0.0" clip-path="url(#id_0)" d="M590.6711 126.29444C590.6711 127.9513 589.3279 129.29445 587.6711 129.29445C586.0142 129.29445 584.6711 127.9513 584.6711 126.29444C584.6711 124.63759 586.0142 123.29444 587.6711 123.29444C589.3279 123.29444 590.6711 124.63759 590.6711 126.29444Z" fill-rule="nonzero"/><path fill="#000000" fill-opacity="0.0" clip-path="url(#id_0)" d="M619.9605 126.79737C619.9605 128.45422 618.6174 129.79736 616.9605 129.79736C615.30365 129.79736 613.9605 128.45422 613.9605 126.79737C613.9605 125.14051 615.30365 123.79737 616.9605 123.79737C618.6174 123.79737 619.9605 125.14051 619.9605 126.79737Z" fill-rule="nonzero"/><path fill="#000000" fill-opacity="0.0" clip-path="url(#id_0)" d="M649.25 137.57C649.25 139.22685 647.90686 140.57 646.25 140.57C644.59314 140.57 643.25 139.22685 643.25 137.57C643.25 135.91315 644.59314 134.57 646.25 134.57C647.90686 134.57 649.25 135.91315 649.25 137.57Z" fill-rule="nonzero"/><path fill="#000000" fill-opacity="0.0" clip-path="url(#id_0)" d="M92.75 235.03667C92.75 236.69353 91.40685 238.03667 89.75 238.03667C88.09315 238.03667 86.75 236.69353 86.75 235.03667C86.75 233.3798 88.09315 232.03667 89.75 232.03667C91.40685 232.03667 92.75 233.3798 92.75 235.03667Z" fill-rule="nonzero"/><path fill="#000000" fill-opacity="0.0" clip-path="url(#id_0)" d="M122.039474 154.19667C122.039474 155.85352 120.69633 157.19667 119.039474 157.19667C117.38262 157.19667 116.039474 155.85352 116.039474 154.19667C116.039474 152.53981 117.38262 151.19667 119.039474 151.19667C120.69633 151.19667 122.039474 152.53981 122.039474 154.19667Z" fill-rule="nonzero"/><path fill="#000000" fill-opacity="0.0" clip-path="url(#id_0)" d="M151.32895 168.91222C151.32895 170.56908 149.9858 171.91222 148.32895 171.91222C146.67209 171.91222 145.32895 170.56908 145.32895 168.91222C145.32895 167.25537 146.67209 165.91222 148.32895 165.91222C149.9858 165.91222 151.32895 167.25537 151.32895 168.91222Z" fill-rule="nonzero"/><path fill="#000000" fill-opacity="0.0" clip-path="url(#id_0)" d="M180.61842 178.27667C180.61842 179.93352 179.27527 181.27667 177.61842 181.27667C175.96156 181.27667 174.61842 179.93352 174.61842 178.27667C174.61842 176.61981 175.96156 175.27667 177.61842 175.27667C179.27527 175.27667 180.61842 176.61981 180.61842 178.27667Z" fill-rule="nonzero"/><path fill="#000000" fill-opacity="0.0" clip-path="url(#id_0)" d="M209.9079 205.22333C209.9079 206.88019 208.56474 208.22333 206.9079 208.22333C205.25104 208.22333 203.9079 206.88019 203.9079 205.22333C203.9079 203.56648 205.25104 202.22333 206.9079 202.22333C208.56474 202.22333 209.9079 203.56648 209.9079 205.22333Z" fill-rule="nonzero"/><path fill="#000000" fill-opacity="0.0" clip-path="url(#id_0)" d="M239.19737 183.34111C239.19737 184.99797 237.85422 186.34111 236.19737 186.34111C234.54051 186.34111 233.19737 184.99797 233.19737 183.34111C233.19737 181.68425 234.54051 180.34111 236.19737 180.34111C237.85422 180.34111 239.19737 181.68425 239.19737 183.34111Z" fill-rule="nonzero"/><path fill="#000000" fill-opacity="0.0" clip-path="url(#id_0)" d="M268.48685 222.34143C268.48685 223.99828 267.1437 225.34143 265.48685 225.34143C263.83 225.34143 262.48685 223.99828 262.48685 222.34143C262.48685 220.68457 263.83 219.34143 265.48685 219.34143C267.1437 219.34143 268.48685 220.68457 268.48685 222.34143Z" fill-rule="nonzero"/><path fill="#000000" fill-opacity="0.0" clip-path="url(#id_0)" d="M297.7763 241.415C297.7763 243.07185 296.43317 244.415 294.7763 244.415C293.11948 244.415 291.7763 243.07185 291.7763 241.415C291.7763 239.75815 293.11948 238.415 294.7763 238.415C296.43317 238.415 297.7763 239.75815 297.7763 241.415Z" fill-rule="nonzero"/><path fill="#000000" fill-opacity="0.0" clip-path="url(#id_0)" d="M327.0658 225.29C327.0658 226.94685 325.72266 228.29 324.0658 228.29C322.40894 228.29 321.0658 226.94685 321.0658 225.29C321.0658 223.63315 322.40894 222.29 324.0658 222.29C325.72266 222.29 327.0658 223.63315 327.0658 225.29Z" fill-rule="nonzero"/><path fill="#000000" fill-opacity="0.0" clip-path="url(#id_0)" d="M356.35526 231.138C356.35526 232.79486 355.01212 234.138 353.35526 234.138C351.6984 234.138 350.35526 232.79486 350.35526 231.138C350.35526 229.48114 351.6984 228.138 353.35526 228.138C355.01212 228.138 356.35526 229.48114 356.35526 231.138Z" fill-rule="nonzero"/><path fill="#000000" fill-opacity="0.0" clip-path="url(#id_0)" d="M385.64474 237.95546C385.64474 239.6123 384.3016 240.95546 382.64474 240.95546C380.98788 240.95546 379.64474 239.6123 379.64474 237.95546C379.64474 236.2986 380.98788 234.95546 382.64474 234.95546C384.3016 234.95546 385.64474 236.2986 385.64474 237.95546Z" fill-rule="nonzero"/><path fill="#000000" fill-opacity="0.0" clip-path="url(#id_0)" d="M414.9342 234.22444C414.9342 235.8813 413.59106 237.22444 411.9342 237.22444C410.27734 237.22444 408.9342 235.8813 408.9342 234.22444C408.9342 232.5676 410.27734 231.22444 411.9342 231.22444C413.59106 231.22444 414.9342 232.5676 414.9342 234.22444Z" fill-rule="nonzero"/><path fill="#000000" fill-opacity="0.0" clip-path="url(#id_0)" d="M444.2237 224.62846C444.2237 226.28531 442.88052 227.62846 441.2237 227.62846C439.56683 227.62846 438.2237 226.28531 438.2237 224.62846C438.2237 222.9716 439.56683 221.62846 441.2237 221.62846C442.88052 221.62846 444.2237 222.9716 444.2237 224.62846Z" fill-rule="nonzero"/><path fill="#000000" fill-opacity="0.0" clip-path="url(#id_0)" d="M473.51315 209.93286C473.51315 211.5897 472.17 212.93286 470.51315 212.93286C468.8563 212.93286 467.51315 211.5897 467.51315 209.93286C467.51315 208.276 468.8563 206.93286 470.51315 206.93286C472.17 206.93286 473.51315 208.276 473.51315 209.93286Z" fill-rule="nonzero"/><path fill="#000000" fill-opacity="0.0" clip-path="url(#id_0)" d="M502.80264 214.74066C502.80264 216.39752 501.45947 217.74066 499.80264 217.74066C498.14578 217.74066 496.80264 216.39752 496.80264 214.74066C496.80264 213.08382 498.14578 211.74066 499.80264 211.74066C501.45947 211.74066 502.80264 213.08382 502.80264 214.74066Z" fill-rule="nonzero"/><path fill="#000000" fill-opacity="0.0" clip-path="url(#id_0)" d="M532.0921 229.08833C532.0921 230.7452 530.74896 232.08833 529.0921 232.08833C527.43524 232.08833 526.0921 230.7452 526.0921 229.08833C526.0921 227.43147 527.43524 226.08833 529.0921 226.08833C530.74896 226.08833 532.0921 227.43147 532.0921 229.08833Z" fill-rule="nonzero"/><path fill="#000000" fill-opacity="0.0" clip-path="url(#id_0)" d="M561.3816 235.54254C561.3816 237.1994 560.03845 238.54254 558.3816 238.54254C556.72473 238.54254 555.3816 237.1994 555.3816 235.54254C555.3816 233.8857 556.72473 232.54254 558.3816 232.54254C560.03845 232.54254 561.3816 233.8857 561.3816 235.54254Z" fill-rule="nonzero"/><path fill="#000000" fill-opacity="0.0" clip-path="url(#id_0)" d="M590.6711 223.09222C590.6711 224.74907 589.3279 226.09222 587.6711 226.09222C586.0142 226.09222 584.6711 224.74907 584.6711 223.09222C584.6711 221.43536 586.0142 220.09222 587.6711 220.09222C589.3279 220.09222 590.6711 221.43536 590.6711 223.09222Z" fill-rule="nonzero"/><path fill="#000000" fill-opacity="0.0" clip-path="url(#id_0)" d="M619.9605 231.05351C619.9605 232.71036 618.6174 234.05351 616.9605 234.05351C615.30365 234.05351 613.9605 232.71036 613.9605 231.05351C613.9605 229.39665 615.30365 228.05351 616.9605 228.05351C618.6174 228.05351 619.9605 229.39665 619.9605 231.05351Z" fill-rule="nonzero"/><path fill="#000000" fill-opacity="0.0" clip-path="url(#id_0)" d="M649.25 240.34C649.25 241.99686 647.90686 243.34 646.25 243.34C644.59314 243.34 643.25 241.99686 643.25 240.34C643.25 238.68315 644.59314 237.34 646.25 237.34C647.90686 237.34 649.25 238.68315 649.25 240.34Z" fill-rule="nonzero"/><path fill="#ffffff" d="M342.45312 391.25L342.45312 382.65625L348.65625 382.65625L348.65625 383.67188L343.59375 383.67188L343.59375 386.29688L348.34375 386.29688L348.34375 387.3125L343.59375 387.3125L343.59375 390.23438L348.85938 390.23438L348.85938 391.25L342.45312 391.25ZM350.26562 391.25L350.26562 382.65625L351.32812 382.65625L351.32812 391.25L350.26562 391.25ZM357.54688 389.25L358.64062 389.375Q358.39062 390.32812 357.6875 390.85938Q356.98438 391.39062 355.90625 391.39062Q354.54688 391.39062 353.73438 390.54688Q352.9375 389.70312 352.9375 388.1875Q352.9375 386.625 353.75 385.76562Q354.5625 384.89062 355.84375 384.89062Q357.09375 384.89062 357.875 385.73438Q358.67188 386.57812 358.67188 388.125Q358.67188 388.21875 358.67188 388.40625L354.03125 388.40625Q354.09375 389.4375 354.60938 389.98438Q355.125 390.51562 355.90625 390.51562Q356.48438 390.51562 356.89062 390.21875Q357.3125 389.90625 357.54688 389.25ZM354.09375 387.54688L357.5625 387.54688Q357.5 386.75 357.17188 386.35938Q356.65625 385.75 355.85938 385.75Q355.125 385.75 354.625 386.23438Q354.14062 386.71875 354.09375 387.54688ZM360.29688 391.25L360.29688 385.03125L361.23438 385.03125L361.23438 385.90625Q361.53125 385.4375 362.01562 385.17188Q362.5 384.89062 363.125 384.89062Q363.8125 384.89062 364.25 385.17188Q364.70312 385.45312 364.875 385.96875Q365.625 384.89062 366.79688 384.89062Q367.73438 384.89062 368.21875 385.40625Q368.71875 385.90625 368.71875 386.98438L368.71875 391.25L367.67188 391.25L367.67188 387.32812Q367.67188 386.70312 367.5625 386.42188Q367.46875 386.14062 367.20312 385.96875Q366.9375 385.79688 366.5625 385.79688Q365.90625 385.79688 365.46875 386.23438Q365.04688 386.67188 365.04688 387.64062L365.04688 391.25L363.98438 391.25L363.98438 387.20312Q363.98438 386.5 363.71875 386.15625Q363.46875 385.79688 362.89062 385.79688Q362.4375 385.79688 362.0625 386.03125Q361.6875 386.26562 361.51562 386.71875Q361.34375 387.17188 361.34375 388.01562L361.34375 391.25L360.29688 391.25ZM375.54688 389.25L376.64062 389.375Q376.39062 390.32812 375.6875 390.85938Q374.98438 391.39062 373.90625 391.39062Q372.54688 391.39062 371.73438 390.54688Q370.9375 389.70312 370.9375 388.1875Q370.9375 386.625 371.75 385.76562Q372.5625 384.89062 373.84375 384.89062Q375.09375 384.89062 375.875 385.73438Q376.67188 386.57812 376.67188 388.125Q376.67188 388.21875 376.67188 388.40625L372.03125 388.40625Q372.09375 389.4375 372.60938 389.98438Q373.125 390.51562 373.90625 390.51562Q374.48438 390.51562 374.89062 390.21875Q375.3125 389.90625 375.54688 389.25ZM372.09375 387.54688L375.5625 387.54688Q375.5 386.75 375.17188 386.35938Q374.65625 385.75 373.85938 385.75Q373.125 385.75 372.625 386.23438Q372.14062 386.71875 372.09375 387.54688ZM378.29688 391.25L378.29688 385.03125L379.23438 385.03125L379.23438 385.90625Q379.92188 384.89062 381.21875 384.89062Q381.78125 384.89062 382.25 385.09375Q382.73438 385.29688 382.96875 385.625Q383.20312 385.95312 383.29688 386.39062Q383.34375 386.6875 383.34375 387.42188L383.34375 391.25L382.29688 391.25L382.29688 387.46875Q382.29688 386.8125 382.17188 386.5Q382.04688 386.1875 381.73438 386.0Q381.42188 385.79688 381.0 385.79688Q380.32812 385.79688 379.82812 386.23438Q379.34375 386.65625 379.34375 387.84375L379.34375 391.25L378.29688 391.25ZM387.59375 390.3125L387.75 391.23438Q387.29688 391.32812 386.95312 391.32812Q386.375 391.32812 386.0625 391.15625Q385.75 390.96875 385.60938 390.67188Q385.48438 390.375 385.48438 389.42188L385.48438 385.84375L384.71875 385.84375L384.71875 385.03125L385.48438 385.03125L385.48438 383.48438L386.53125 382.85938L386.53125 385.03125L387.59375 385.03125L387.59375 385.84375L386.53125 385.84375L386.53125 389.48438Q386.53125 389.9375 386.57812 390.0625Q386.64062 390.1875 386.76562 390.26562Q386.89062 390.34375 387.125 390.34375Q387.3125 390.34375 387.59375 390.3125ZM387.875 389.39062L388.90625 389.23438Q389.0 389.85938 389.39062 390.1875Q389.79688 390.51562 390.53125 390.51562Q391.25 390.51562 391.59375 390.23438Q391.95312 389.9375 391.95312 389.53125Q391.95312 389.17188 391.64062 388.96875Q391.42188 388.82812 390.5625 388.60938Q389.40625 388.3125 388.95312 388.10938Q388.51562 387.89062 388.28125 387.51562Q388.04688 387.14062 388.04688 386.67188Q388.04688 386.26562 388.23438 385.90625Q388.42188 385.54688 388.75 385.3125Q389.0 385.14062 389.42188 385.01562Q389.84375 384.89062 390.34375 384.89062Q391.0625 384.89062 391.60938 385.10938Q392.17188 385.3125 392.4375 385.67188Q392.70312 386.03125 392.79688 386.625L391.76562 386.76562Q391.70312 386.29688 391.35938 386.03125Q391.03125 385.75 390.40625 385.75Q389.6875 385.75 389.375 386.0Q389.0625 386.23438 389.0625 386.5625Q389.0625 386.76562 389.1875 386.92188Q389.32812 387.09375 389.59375 387.20312Q389.75 387.26562 390.53125 387.46875Q391.65625 387.78125 392.09375 387.96875Q392.53125 388.15625 392.78125 388.51562Q393.03125 388.875 393.03125 389.42188Q393.03125 389.95312 392.71875 390.42188Q392.42188 390.875 391.84375 391.14062Q391.26562 391.39062 390.53125 391.39062Q389.3125 391.39062 388.67188 390.89062Q388.04688 390.375 387.875 389.39062Z" fill-rule="nonzero"/><path fill="#ffffff" d="M28.984375 229.3698L28.890625 228.3073Q29.546875 228.22917 29.953125 227.94792Q30.359375 227.66667 30.625 227.08855Q30.875 226.4948 30.875 225.76042Q30.875 225.1198 30.6875 224.6198Q30.484375 224.1198 30.15625 223.88542Q29.8125 223.63542 29.421875 223.63542Q29.015625 223.63542 28.71875 223.8698Q28.40625 224.10417 28.203125 224.63542Q28.0625 224.9948 27.78125 226.1823Q27.5 227.35417 27.25 227.82292Q26.921875 228.44792 26.453125 228.7448Q25.96875 229.04167 25.375 229.04167Q24.734375 229.04167 24.171875 228.6823Q23.59375 228.3073 23.3125 227.60417Q23.015625 226.88542 23.015625 226.02605Q23.015625 225.07292 23.328125 224.33855Q23.625 223.60417 24.234375 223.21355Q24.828125 222.82292 25.578125 222.79167L25.65625 223.88542Q24.84375 223.97917 24.4375 224.4948Q24.015625 224.9948 24.015625 225.97917Q24.015625 227.01042 24.390625 227.47917Q24.765625 227.94792 25.296875 227.94792Q25.765625 227.94792 26.0625 227.6198Q26.359375 227.29167 26.671875 225.91667Q26.984375 224.52605 27.21875 224.01042Q27.578125 223.26042 28.109375 222.90105Q28.625 222.54167 29.328125 222.54167Q30.015625 222.54167 30.625 222.9323Q31.21875 223.32292 31.5625 224.0573Q31.890625 224.79167 31.890625 225.71355Q31.890625 226.88542 31.5625 227.6823Q31.21875 228.46355 30.53125 228.91667Q29.84375 229.35417 28.984375 229.3698ZM29.75 216.8698L29.875 215.77605Q30.828125 216.02605 31.359375 216.72917Q31.890625 217.4323 31.890625 218.51042Q31.890625 219.8698 31.046875 220.6823Q30.203125 221.47917 28.6875 221.47917Q27.125 221.47917 26.265625 220.66667Q25.390625 219.85417 25.390625 218.57292Q25.390625 217.32292 26.234375 216.54167Q27.078125 215.7448 28.625 215.7448Q28.71875 215.7448 28.90625 215.7448L28.90625 220.38542Q29.9375 220.32292 30.484375 219.8073Q31.015625 219.29167 31.015625 218.51042Q31.015625 217.9323 30.71875 217.52605Q30.40625 217.10417 29.75 216.8698ZM28.046875 220.32292L28.046875 216.85417Q27.25 216.91667 26.859375 217.2448Q26.25 217.76042 26.25 218.5573Q26.25 219.29167 26.734375 219.79167Q27.21875 220.27605 28.046875 220.32292ZM29.46875 210.0573L29.609375 209.02605Q30.671875 209.19792 31.28125 209.90105Q31.890625 210.60417 31.890625 211.6198Q31.890625 212.90105 31.0625 213.6823Q30.21875 214.44792 28.65625 214.44792Q27.65625 214.44792 26.90625 214.1198Q26.140625 213.77605 25.765625 213.10417Q25.390625 212.41667 25.390625 211.60417Q25.390625 210.60417 25.90625 209.96355Q26.40625 209.3073 27.359375 209.1198L27.515625 210.15105Q26.890625 210.29167 26.578125 210.66667Q26.25 211.04167 26.25 211.57292Q26.25 212.3698 26.828125 212.8698Q27.390625 213.3698 28.625 213.3698Q29.890625 213.3698 30.453125 212.88542Q31.015625 212.40105 31.015625 211.63542Q31.015625 211.01042 30.640625 210.60417Q30.265625 210.1823 29.46875 210.0573ZM28.640625 208.51042Q26.90625 208.51042 26.078125 207.5573Q25.390625 206.76042 25.390625 205.60417Q25.390625 204.32292 26.234375 203.51042Q27.0625 202.6823 28.546875 202.6823Q29.75 202.6823 30.4375 203.04167Q31.125 203.40105 31.515625 204.10417Q31.890625 204.79167 31.890625 205.60417Q31.890625 206.90105 31.0625 207.71355Q30.21875 208.51042 28.640625 208.51042ZM28.640625 207.4323Q29.828125 207.4323 30.421875 206.91667Q31.015625 206.38542 31.015625 205.60417Q31.015625 204.8073 30.421875 204.29167Q29.828125 203.77605 28.609375 203.77605Q27.453125 203.77605 26.859375 204.3073Q26.265625 204.82292 26.265625 205.60417Q26.265625 206.38542 26.859375 206.91667Q27.4375 207.4323 28.640625 207.4323ZM31.75 201.1198L25.53125 201.1198L25.53125 200.1823L26.40625 200.1823Q25.390625 199.4948 25.390625 198.19792Q25.390625 197.63542 25.59375 197.16667Q25.796875 196.6823 26.125 196.44792Q26.453125 196.21355 26.890625 196.1198Q27.1875 196.07292 27.921875 196.07292L31.75 196.07292L31.75 197.1198L27.96875 197.1198Q27.3125 197.1198 27.0 197.2448Q26.6875 197.3698 26.5 197.6823Q26.296875 197.9948 26.296875 198.41667Q26.296875 199.08855 26.734375 199.58855Q27.15625 200.07292 28.34375 200.07292L31.75 200.07292L31.75 201.1198ZM31.75 190.08855L30.96875 190.08855Q31.890625 190.6823 31.890625 191.82292Q31.890625 192.57292 31.484375 193.19792Q31.0625 193.82292 30.328125 194.16667Q29.59375 194.51042 28.640625 194.51042Q27.71875 194.51042 26.953125 194.19792Q26.1875 193.88542 25.796875 193.26042Q25.390625 192.63542 25.390625 191.8698Q25.390625 191.3073 25.625 190.8698Q25.859375 190.4323 26.234375 190.15105L23.15625 190.15105L23.15625 189.10417L31.75 189.10417L31.75 190.08855ZM28.640625 193.41667Q29.84375 193.41667 30.4375 192.91667Q31.015625 192.41667 31.015625 191.72917Q31.015625 191.04167 30.453125 190.5573Q29.890625 190.07292 28.734375 190.07292Q27.453125 190.07292 26.859375 190.57292Q26.265625 191.0573 26.265625 191.77605Q26.265625 192.47917 26.84375 192.94792Q27.40625 193.41667 28.640625 193.41667ZM29.890625 187.54167L29.734375 186.51042Q30.359375 186.41667 30.6875 186.02605Q31.015625 185.6198 31.015625 184.88542Q31.015625 184.16667 30.734375 183.82292Q30.4375 183.46355 30.03125 183.46355Q29.671875 183.46355 29.46875 183.77605Q29.328125 183.9948 29.109375 184.85417Q28.8125 186.01042 28.609375 186.46355Q28.390625 186.90105 28.015625 187.13542Q27.640625 187.3698 27.171875 187.3698Q26.765625 187.3698 26.40625 187.1823Q26.046875 186.9948 25.8125 186.66667Q25.640625 186.41667 25.515625 185.9948Q25.390625 185.57292 25.390625 185.07292Q25.390625 184.35417 25.609375 183.8073Q25.8125 183.2448 26.171875 182.97917Q26.53125 182.71355 27.125 182.6198L27.265625 183.65105Q26.796875 183.71355 26.53125 184.0573Q26.25 184.38542 26.25 185.01042Q26.25 185.72917 26.5 186.04167Q26.734375 186.35417 27.0625 186.35417Q27.265625 186.35417 27.421875 186.22917Q27.59375 186.08855 27.703125 185.82292Q27.765625 185.66667 27.96875 184.88542Q28.28125 183.76042 28.46875 183.32292Q28.65625 182.88542 29.015625 182.63542Q29.375 182.38542 29.921875 182.38542Q30.453125 182.38542 30.921875 182.69792Q31.375 182.9948 31.640625 183.57292Q31.890625 184.15105 31.890625 184.88542Q31.890625 186.10417 31.390625 186.7448Q30.875 187.3698 29.890625 187.54167Z" fill-rule="nonzero"/><path fill="#ffffff" d="M53.25 342.01562Q53.25 340.48438 53.5625 339.5625Q53.875 338.625 54.484375 338.125Q55.109375 337.625 56.046875 337.625Q56.734375 337.625 57.25 337.90625Q57.78125 338.1875 58.125 338.71875Q58.46875 339.23438 58.65625 339.98438Q58.84375 340.73438 58.84375 342.01562Q58.84375 343.53125 58.53125 344.45312Q58.234375 345.375 57.609375 345.89062Q57.0 346.39062 56.046875 346.39062Q54.8125 346.39062 54.09375 345.5Q53.25 344.4375 53.25 342.01562ZM54.328125 342.01562Q54.328125 344.125 54.828125 344.82812Q55.328125 345.53125 56.046875 345.53125Q56.78125 345.53125 57.265625 344.82812Q57.765625 344.125 57.765625 342.01562Q57.765625 339.89062 57.265625 339.20312Q56.78125 338.5 56.03125 338.5Q55.3125 338.5 54.875 339.10938Q54.328125 339.89062 54.328125 342.01562ZM60.84375 346.25L60.84375 345.04688L62.046875 345.04688L62.046875 346.25L60.84375 346.25ZM63.25 342.01562Q63.25 340.48438 63.5625 339.5625Q63.875 338.625 64.484375 338.125Q65.109375 337.625 66.046875 337.625Q66.734375 337.625 67.25 337.90625Q67.78125 338.1875 68.125 338.71875Q68.46875 339.23438 68.65625 339.98438Q68.84375 340.73438 68.84375 342.01562Q68.84375 343.53125 68.53125 344.45312Q68.234375 345.375 67.609375 345.89062Q67.0 346.39062 66.046875 346.39062Q64.8125 346.39062 64.09375 345.5Q63.25 344.4375 63.25 342.01562ZM64.328125 342.01562Q64.328125 344.125 64.828125 344.82812Q65.328125 345.53125 66.046875 345.53125Q66.78125 345.53125 67.265625 344.82812Q67.765625 344.125 67.765625 342.01562Q67.765625 339.89062 67.265625 339.20312Q66.78125 338.5 66.03125 338.5Q65.3125 338.5 64.875 339.10938Q64.328125 339.89062 64.328125 342.01562ZM70.25 342.01562Q70.25 340.48438 70.5625 339.5625Q70.875 338.625 71.484375 338.125Q72.109375 337.625 73.046875 337.625Q73.734375 337.625 74.25 337.90625Q74.78125 338.1875 75.125 338.71875Q75.46875 339.23438 75.65625 339.98438Q75.84375 340.73438 75.84375 342.01562Q75.84375 343.53125 75.53125 344.45312Q75.234375 345.375 74.609375 345.89062Q74.0 346.39062 73.046875 346.39062Q71.8125 346.39062 71.09375 345.5Q70.25 344.4375 70.25 342.01562ZM71.328125 342.01562Q71.328125 344.125 71.828125 344.82812Q72.328125 345.53125 73.046875 345.53125Q73.78125 345.53125 74.265625 344.82812Q74.765625 344.125 74.765625 342.01562Q74.765625 339.89062 74.265625 339.20312Q73.78125 338.5 73.03125 338.5Q72.3125 338.5 71.875 339.10938Q71.328125 339.89062 71.328125 342.01562ZM77.25 342.01562Q77.25 340.48438 77.5625 339.5625Q77.875 338.625 78.484375 338.125Q79.109375 337.625 80.046875 337.625Q80.734375 337.625 81.25 337.90625Q81.78125 338.1875 82.125 338.71875Q82.46875 339.23438 82.65625 339.98438Q82.84375 340.73438 82.84375 342.01562Q82.84375 343.53125 82.53125 344.45312Q82.234375 345.375 81.609375 345.89062Q81.0 346.39062 80.046875 346.39062Q78.8125 346.39062 78.09375 345.5Q77.25 344.4375 77.25 342.01562ZM78.328125 342.01562Q78.328125 344.125 78.828125 344.82812Q79.328125 345.53125 80.046875 345.53125Q80.78125 345.53125 81.265625 344.82812Q81.765625 344.125 81.765625 342.01562Q81.765625 339.89062 81.265625 339.20312Q80.78125 338.5 80.03125 338.5Q79.3125 338.5 78.875 339.10938Q78.328125 339.89062 78.328125 342.01562Z" fill-rule="nonzero"/><path fill="#ffffff" d="M53.25 246.46007Q53.25 244.92882 53.5625 244.00694Q53.875 243.06944 54.484375 242.56944Q55.109375 242.06944 56.046875 242.06944Q56.734375 242.06944 57.25 242.3507Q57.78125 242.63194 58.125 243.1632Q58.46875 243.67882 58.65625 244.42882Q58.84375 245.17882 58.84375 246.46007Q58.84375 247.9757 58.53125 248.89757Q58.234375 249.81944 57.609375 250.33507Q57.0 250.83507 56.046875 250.83507Q54.8125 250.83507 54.09375 249.94444Q53.25 248.88194 53.25 246.46007ZM54.328125 246.46007Q54.328125 248.56944 54.828125 249.27257Q55.328125 249.9757 56.046875 249.9757Q56.78125 249.9757 57.265625 249.27257Q57.765625 248.56944 57.765625 246.46007Q57.765625 244.33507 57.265625 243.64757Q56.78125 242.94444 56.03125 242.94444Q55.3125 242.94444 54.875 243.55382Q54.328125 244.33507 54.328125 246.46007ZM60.84375 250.69444L60.84375 249.49132L62.046875 249.49132L62.046875 250.69444L60.84375 250.69444ZM68.796875 249.67882L68.796875 250.69444L63.109375 250.69444Q63.109375 250.31944 63.234375 249.96007Q63.453125 249.38194 63.921875 248.81944Q64.40625 248.25694 65.3125 247.52257Q66.71875 246.36632 67.203125 245.69444Q67.703125 245.02257 67.703125 244.42882Q67.703125 243.80382 67.25 243.38194Q66.796875 242.94444 66.078125 242.94444Q65.3125 242.94444 64.859375 243.39757Q64.40625 243.8507 64.390625 244.6632L63.3125 244.55382Q63.421875 243.33507 64.140625 242.71007Q64.875 242.06944 66.109375 242.06944Q67.34375 242.06944 68.0625 242.75694Q68.78125 243.44444 68.78125 244.46007Q68.78125 244.9757 68.5625 245.4757Q68.359375 245.96007 67.859375 246.52257Q67.375 247.06944 66.25 248.02257Q65.296875 248.81944 65.015625 249.11632Q64.75 249.39757 64.578125 249.67882L68.796875 249.67882ZM70.25 246.46007Q70.25 244.92882 70.5625 244.00694Q70.875 243.06944 71.484375 242.56944Q72.109375 242.06944 73.046875 242.06944Q73.734375 242.06944 74.25 242.3507Q74.78125 242.63194 75.125 243.1632Q75.46875 243.67882 75.65625 244.42882Q75.84375 245.17882 75.84375 246.46007Q75.84375 247.9757 75.53125 248.89757Q75.234375 249.81944 74.609375 250.33507Q74.0 250.83507 73.046875 250.83507Q71.8125 250.83507 71.09375 249.94444Q70.25 248.88194 70.25 246.46007ZM71.328125 246.46007Q71.328125 248.56944 71.828125 249.27257Q72.328125 249.9757 73.046875 249.9757Q73.78125 249.9757 74.265625 249.27257Q74.765625 248.56944 74.765625 246.46007Q74.765625 244.33507 74.265625 243.64757Q73.78125 242.94444 73.03125 242.94444Q72.3125 242.94444 71.875 243.55382Q71.328125 244.33507 71.328125 246.46007ZM77.25 246.46007Q77.25 244.92882 77.5625 244.00694Q77.875 243.06944 78.484375 242.56944Q79.109375 242.06944 80.046875 242.06944Q80.734375 242.06944 81.25 242.3507Q81.78125 242.63194 82.125 243.1632Q82.46875 243.67882 82.65625 244.42882Q82.84375 245.17882 82.84375 246.46007Q82.84375 247.9757 82.53125 248.89757Q82.234375 249.81944 81.609375 250.33507Q81.0 250.83507 80.046875 250.83507Q78.8125 250.83507 78.09375 249.94444Q77.25 248.88194 77.25 246.46007ZM78.328125 246.46007Q78.328125 248.56944 78.828125 249.27257Q79.328125 249.9757 80.046875 249.9757Q80.78125 249.9757 81.265625 249.27257Q81.765625 248.56944 81.765625 246.46007Q81.765625 244.33507 81.265625 243.64757Q80.78125 242.94444 80.03125 242.94444Q79.3125 242.94444 78.875 243.55382Q78.328125 244.33507 78.328125 246.46007Z" fill-rule="nonzero"/><path fill="#ffffff" d="M53.25 150.90451Q53.25 149.37326 53.5625 148.45139Q53.875 147.51389 54.484375 147.01389Q55.109375 146.51389 56.046875 146.51389Q56.734375 146.51389 57.25 146.79514Q57.78125 147.07639 58.125 147.60764Q58.46875 148.12326 58.65625 148.87326Q58.84375 149.62326 58.84375 150.90451Q58.84375 152.42014 58.53125 153.34201Q58.234375 154.26389 57.609375 154.77951Q57.0 155.27951 56.046875 155.27951Q54.8125 155.27951 54.09375 154.38889Q53.25 153.32639 53.25 150.90451ZM54.328125 150.90451Q54.328125 153.01389 54.828125 153.71701Q55.328125 154.42014 56.046875 154.42014Q56.78125 154.42014 57.265625 153.71701Q57.765625 153.01389 57.765625 150.90451Q57.765625 148.77951 57.265625 148.09201Q56.78125 147.38889 56.03125 147.38889Q55.3125 147.38889 54.875 147.99826Q54.328125 148.77951 54.328125 150.90451ZM60.84375 155.13889L60.84375 153.93576L62.046875 153.93576L62.046875 155.13889L60.84375 155.13889ZM66.625 155.13889L66.625 153.07639L62.90625 153.07639L62.90625 152.10764L66.828125 146.54514L67.6875 146.54514L67.6875 152.10764L68.84375 152.10764L68.84375 153.07639L67.6875 153.07639L67.6875 155.13889L66.625 155.13889ZM66.625 152.10764L66.625 148.24826L63.9375 152.10764L66.625 152.10764ZM70.25 150.90451Q70.25 149.37326 70.5625 148.45139Q70.875 147.51389 71.484375 147.01389Q72.109375 146.51389 73.046875 146.51389Q73.734375 146.51389 74.25 146.79514Q74.78125 147.07639 75.125 147.60764Q75.46875 148.12326 75.65625 148.87326Q75.84375 149.62326 75.84375 150.90451Q75.84375 152.42014 75.53125 153.34201Q75.234375 154.26389 74.609375 154.77951Q74.0 155.27951 73.046875 155.27951Q71.8125 155.27951 71.09375 154.38889Q70.25 153.32639 70.25 150.90451ZM71.328125 150.90451Q71.328125 153.01389 71.828125 153.71701Q72.328125 154.42014 73.046875 154.42014Q73.78125 154.42014 74.265625 153.71701Q74.765625 153.01389 74.765625 150.90451Q74.765625 148.77951 74.265625 148.09201Q73.78125 147.38889 73.03125 147.38889Q72.3125 147.38889 71.875 147.99826Q71.328125 148.77951 71.328125 150.90451ZM77.25 150.90451Q77.25 149.37326 77.5625 148.45139Q77.875 147.51389 78.484375 147.01389Q79.109375 146.51389 80.046875 146.51389Q80.734375 146.51389 81.25 146.79514Q81.78125 147.07639 82.125 147.60764Q82.46875 148.12326 82.65625 148.87326Q82.84375 149.62326 82.84375 150.90451Q82.84375 152.42014 82.53125 153.34201Q82.234375 154.26389 81.609375 154.77951Q81.0 155.27951 80.046875 155.27951Q78.8125 155.27951 78.09375 154.38889Q77.25 153.32639 77.25 150.90451ZM78.328125 150.90451Q78.328125 153.01389 78.828125 153.71701Q79.328125 154.42014 80.046875 154.42014Q80.78125 154.42014 81.265625 153.71701Q81.765625 153.01389 81.765625 150.90451Q81.765625 148.77951 81.265625 148.09201Q80.78125 147.38889 80.03125 147.38889Q79.3125 147.38889 78.875 147.99826Q78.328125 148.77951 78.328125 150.90451Z" fill-rule="nonzero"/><path fill="#ffffff" d="M53.25 55.348957Q53.25 53.817707 53.5625 52.895832Q53.875 51.958332 54.484375 51.458332Q55.109375 50.958332 56.046875 50.958332Q56.734375 50.958332 57.25 51.239582Q57.78125 51.520832 58.125 52.052082Q58.46875 52.567707 58.65625 53.317707Q58.84375 54.067707 58.84375 55.348957Q58.84375 56.864582 58.53125 57.786457Q58.234375 58.708332 57.609375 59.223957Q57.0 59.723957 56.046875 59.723957Q54.8125 59.723957 54.09375 58.833332Q53.25 57.770832 53.25 55.348957ZM54.328125 55.348957Q54.328125 57.458332 54.828125 58.161457Q55.328125 58.864582 56.046875 58.864582Q56.78125 58.864582 57.265625 58.161457Q57.765625 57.458332 57.765625 55.348957Q57.765625 53.223957 57.265625 52.536457Q56.78125 51.833332 56.03125 51.833332Q55.3125 51.833332 54.875 52.442707Q54.328125 53.223957 54.328125 55.348957ZM60.84375 59.583332L60.84375 58.380207L62.046875 58.380207L62.046875 59.583332L60.84375 59.583332ZM68.71875 53.098957L67.671875 53.177082Q67.53125 52.552082 67.28125 52.270832Q66.84375 51.817707 66.21875 51.817707Q65.71875 51.817707 65.328125 52.098957Q64.84375 52.473957 64.546875 53.177082Q64.265625 53.864582 64.25 55.145832Q64.625 54.567707 65.171875 54.286457Q65.734375 54.005207 66.34375 54.005207Q67.390625 54.005207 68.125 54.786457Q68.875 55.567707 68.875 56.786457Q68.875 57.598957 68.515625 58.302082Q68.171875 58.989582 67.5625 59.364582Q66.953125 59.723957 66.1875 59.723957Q64.859375 59.723957 64.03125 58.755207Q63.203125 57.786457 63.203125 55.567707Q63.203125 53.067707 64.125 51.942707Q64.921875 50.958332 66.28125 50.958332Q67.296875 50.958332 67.9375 51.536457Q68.59375 52.098957 68.71875 53.098957ZM64.421875 56.802082Q64.421875 57.348957 64.640625 57.848957Q64.875 58.333332 65.28125 58.598957Q65.703125 58.864582 66.171875 58.864582Q66.828125 58.864582 67.3125 58.333332Q67.796875 57.786457 67.796875 56.864582Q67.796875 55.973957 67.3125 55.458332Q66.84375 54.942707 66.125 54.942707Q65.40625 54.942707 64.90625 55.458332Q64.421875 55.973957 64.421875 56.802082ZM70.25 55.348957Q70.25 53.817707 70.5625 52.895832Q70.875 51.958332 71.484375 51.458332Q72.109375 50.958332 73.046875 50.958332Q73.734375 50.958332 74.25 51.239582Q74.78125 51.520832 75.125 52.052082Q75.46875 52.567707 75.65625 53.317707Q75.84375 54.067707 75.84375 55.348957Q75.84375 56.864582 75.53125 57.786457Q75.234375 58.708332 74.609375 59.223957Q74.0 59.723957 73.046875 59.723957Q71.8125 59.723957 71.09375 58.833332Q70.25 57.770832 70.25 55.348957ZM71.328125 55.348957Q71.328125 57.458332 71.828125 58.161457Q72.328125 58.864582 73.046875 58.864582Q73.78125 58.864582 74.265625 58.161457Q74.765625 57.458332 74.765625 55.348957Q74.765625 53.223957 74.265625 52.536457Q73.78125 51.833332 73.03125 51.833332Q72.3125 51.833332 71.875 52.442707Q71.328125 53.223957 71.328125 55.348957ZM77.25 55.348957Q77.25 53.817707 77.5625 52.895832Q77.875 51.958332 78.484375 51.458332Q79.109375 50.958332 80.046875 50.958332Q80.734375 50.958332 81.25 51.239582Q81.78125 51.520832 82.125 52.052082Q82.46875 52.567707 82.65625 53.317707Q82.84375 54.067707 82.84375 55.348957Q82.84375 56.864582 82.53125 57.786457Q82.234375 58.708332 81.609375 59.223957Q81.0 59.723957 80.046875 59.723957Q78.8125 59.723957 78.09375 58.833332Q77.25 57.770832 77.25 55.348957ZM78.328125 55.348957Q78.328125 57.458332 78.828125 58.161457Q79.328125 58.864582 80.046875 58.864582Q80.78125 58.864582 81.265625 58.161457Q81.765625 57.458332 81.765625 55.348957Q81.765625 53.223957 81.265625 52.536457Q80.78125 51.833332 80.03125 51.833332Q79.3125 51.833332 78.875 52.442707Q78.328125 53.223957 78.328125 55.348957Z" fill-rule="nonzero"/><path fill="#ffffff" d="M169.6653 358.23438L169.6653 359.25L163.9778 359.25Q163.9778 358.875 164.1028 358.51562Q164.32155 357.9375 164.7903 357.375Q165.27467 356.8125 166.18092 356.07812Q167.58717 354.92188 168.07155 354.25Q168.57155 353.57812 168.57155 352.98438Q168.57155 352.35938 168.11842 351.9375Q167.6653 351.5 166.94655 351.5Q166.18092 351.5 165.7278 351.95312Q165.27467 352.40625 165.25905 353.21875L164.18092 353.10938Q164.2903 351.89062 165.00905 351.26562Q165.74342 350.625 166.9778 350.625Q168.21217 350.625 168.93092 351.3125Q169.64967 352.0 169.64967 353.01562Q169.64967 353.53125 169.43092 354.03125Q169.2278 354.51562 168.7278 355.07812Q168.24342 355.625 167.11842 356.57812Q166.1653 357.375 165.88405 357.67188Q165.61842 357.95312 165.44655 358.23438L169.6653 358.23438ZM171.11842 355.01562Q171.11842 353.48438 171.43092 352.5625Q171.74342 351.625 172.3528 351.125Q172.9778 350.625 173.9153 350.625Q174.6028 350.625 175.11842 350.90625Q175.64967 351.1875 175.99342 351.71875Q176.33717 352.23438 176.52467 352.98438Q176.71217 353.73438 176.71217 355.01562Q176.71217 356.53125 176.39967 357.45312Q176.1028 358.375 175.4778 358.89062Q174.86842 359.39062 173.9153 359.39062Q172.68092 359.39062 171.96217 358.5Q171.11842 357.4375 171.11842 355.01562ZM172.19655 355.01562Q172.19655 357.125 172.69655 357.82812Q173.19655 358.53125 173.9153 358.53125Q174.64967 358.53125 175.13405 357.82812Q175.63405 357.125 175.63405 355.01562Q175.63405 352.89062 175.13405 352.20312Q174.64967 351.5 173.89967 351.5Q173.18092 351.5 172.74342 352.10938Q172.19655 352.89062 172.19655 355.01562ZM178.11842 355.01562Q178.11842 353.48438 178.43092 352.5625Q178.74342 351.625 179.3528 351.125Q179.9778 350.625 180.9153 350.625Q181.6028 350.625 182.11842 350.90625Q182.64967 351.1875 182.99342 351.71875Q183.33717 352.23438 183.52467 352.98438Q183.71217 353.73438 183.71217 355.01562Q183.71217 356.53125 183.39967 357.45312Q183.1028 358.375 182.4778 358.89062Q181.86842 359.39062 180.9153 359.39062Q179.68092 359.39062 178.96217 358.5Q178.11842 357.4375 178.11842 355.01562ZM179.19655 355.01562Q179.19655 357.125 179.69655 357.82812Q180.19655 358.53125 180.9153 358.53125Q181.64967 358.53125 182.13405 357.82812Q182.63405 357.125 182.63405 355.01562Q182.63405 352.89062 182.13405 352.20312Q181.64967 351.5 180.89967 351.5Q180.18092 351.5 179.74342 352.10938Q179.19655 352.89062 179.19655 355.01562ZM185.11842 355.01562Q185.11842 353.48438 185.43092 352.5625Q185.74342 351.625 186.3528 351.125Q186.9778 350.625 187.9153 350.625Q188.6028 350.625 189.11842 350.90625Q189.64967 351.1875 189.99342 351.71875Q190.33717 352.23438 190.52467 352.98438Q190.71217 353.73438 190.71217 355.01562Q190.71217 356.53125 190.39967 357.45312Q190.1028 358.375 189.4778 358.89062Q188.86842 359.39062 187.9153 359.39062Q186.68092 359.39062 185.96217 358.5Q185.11842 357.4375 185.11842 355.01562ZM186.19655 355.01562Q186.19655 357.125 186.69655 357.82812Q187.19655 358.53125 187.9153 358.53125Q188.64967 358.53125 189.13405 357.82812Q189.63405 357.125 189.63405 355.01562Q189.63405 352.89062 189.13405 352.20312Q188.64967 351.5 187.89967 351.5Q187.18092 351.5 186.74342 352.10938Q186.19655 352.89062 186.19655 355.01562Z" fill-rule="nonzero"/><path fill="#ffffff" d="M284.6513 359.25L284.6513 357.1875L280.93256 357.1875L280.93256 356.21875L284.85443 350.65625L285.7138 350.65625L285.7138 356.21875L286.87006 356.21875L286.87006 357.1875L285.7138 357.1875L285.7138 359.25L284.6513 359.25ZM284.6513 356.21875L284.6513 352.35938L281.9638 356.21875L284.6513 356.21875ZM288.2763 355.01562Q288.2763 353.48438 288.5888 352.5625Q288.9013 351.625 289.51068 351.125Q290.13568 350.625 291.07318 350.625Q291.76068 350.625 292.2763 350.90625Q292.80756 351.1875 293.1513 351.71875Q293.49506 352.23438 293.68256 352.98438Q293.87006 353.73438 293.87006 355.01562Q293.87006 356.53125 293.55756 357.45312Q293.26068 358.375 292.63568 358.89062Q292.0263 359.39062 291.07318 359.39062Q289.8388 359.39062 289.12006 358.5Q288.2763 357.4375 288.2763 355.01562ZM289.35443 355.01562Q289.35443 357.125 289.85443 357.82812Q290.35443 358.53125 291.07318 358.53125Q291.80756 358.53125 292.29193 357.82812Q292.79193 357.125 292.79193 355.01562Q292.79193 352.89062 292.29193 352.20312Q291.80756 351.5 291.05756 351.5Q290.3388 351.5 289.9013 352.10938Q289.35443 352.89062 289.35443 355.01562ZM295.2763 355.01562Q295.2763 353.48438 295.5888 352.5625Q295.9013 351.625 296.51068 351.125Q297.13568 350.625 298.07318 350.625Q298.76068 350.625 299.2763 350.90625Q299.80756 351.1875 300.1513 351.71875Q300.49506 352.23438 300.68256 352.98438Q300.87006 353.73438 300.87006 355.01562Q300.87006 356.53125 300.55756 357.45312Q300.26068 358.375 299.63568 358.89062Q299.0263 359.39062 298.07318 359.39062Q296.8388 359.39062 296.12006 358.5Q295.2763 357.4375 295.2763 355.01562ZM296.35443 355.01562Q296.35443 357.125 296.85443 357.82812Q297.35443 358.53125 298.07318 358.53125Q298.80756 358.53125 299.29193 357.82812Q299.79193 357.125 299.79193 355.01562Q299.79193 352.89062 299.29193 352.20312Q298.80756 351.5 298.05756 351.5Q297.3388 351.5 296.9013 352.10938Q296.35443 352.89062 296.35443 355.01562ZM302.2763 355.01562Q302.2763 353.48438 302.5888 352.5625Q302.9013 351.625 303.51068 351.125Q304.13568 350.625 305.07318 350.625Q305.76068 350.625 306.2763 350.90625Q306.80756 351.1875 307.1513 351.71875Q307.49506 352.23438 307.68256 352.98438Q307.87006 353.73438 307.87006 355.01562Q307.87006 356.53125 307.55756 357.45312Q307.26068 358.375 306.63568 358.89062Q306.0263 359.39062 305.07318 359.39062Q303.8388 359.39062 303.12006 358.5Q302.2763 357.4375 302.2763 355.01562ZM303.35443 355.01562Q303.35443 357.125 303.85443 357.82812Q304.35443 358.53125 305.07318 358.53125Q305.80756 358.53125 306.29193 357.82812Q306.79193 357.125 306.79193 355.01562Q306.79193 352.89062 306.29193 352.20312Q305.80756 351.5 305.05756 351.5Q304.3388 351.5 303.9013 352.10938Q303.35443 352.89062 303.35443 355.01562Z" fill-rule="nonzero"/><path fill="#ffffff" d="M403.90295 352.76562L402.85608 352.84375Q402.71545 352.21875 402.46545 351.9375Q402.02795 351.48438 401.40295 351.48438Q400.90295 351.48438 400.51233 351.76562Q400.02795 352.14062 399.73108 352.84375Q399.44983 353.53125 399.4342 354.8125Q399.8092 354.23438 400.35608 353.95312Q400.91858 353.67188 401.52795 353.67188Q402.57483 353.67188 403.3092 354.45312Q404.0592 355.23438 404.0592 356.45312Q404.0592 357.26562 403.69983 357.96875Q403.35608 358.65625 402.7467 359.03125Q402.13733 359.39062 401.3717 359.39062Q400.04358 359.39062 399.21545 358.42188Q398.38733 357.45312 398.38733 355.23438Q398.38733 352.73438 399.3092 351.60938Q400.10608 350.625 401.46545 350.625Q402.48108 350.625 403.1217 351.20312Q403.77795 351.76562 403.90295 352.76562ZM399.60608 356.46875Q399.60608 357.01562 399.82483 357.51562Q400.0592 358.0 400.46545 358.26562Q400.88733 358.53125 401.35608 358.53125Q402.01233 358.53125 402.4967 358.0Q402.98108 357.45312 402.98108 356.53125Q402.98108 355.64062 402.4967 355.125Q402.02795 354.60938 401.3092 354.60938Q400.59045 354.60938 400.09045 355.125Q399.60608 355.64062 399.60608 356.46875ZM405.4342 355.01562Q405.4342 353.48438 405.7467 352.5625Q406.0592 351.625 406.66858 351.125Q407.29358 350.625 408.23108 350.625Q408.91858 350.625 409.4342 350.90625Q409.96545 351.1875 410.3092 351.71875Q410.65295 352.23438 410.84045 352.98438Q411.02795 353.73438 411.02795 355.01562Q411.02795 356.53125 410.71545 357.45312Q410.41858 358.375 409.79358 358.89062Q409.1842 359.39062 408.23108 359.39062Q406.9967 359.39062 406.27795 358.5Q405.4342 357.4375 405.4342 355.01562ZM406.51233 355.01562Q406.51233 357.125 407.01233 357.82812Q407.51233 358.53125 408.23108 358.53125Q408.96545 358.53125 409.44983 357.82812Q409.94983 357.125 409.94983 355.01562Q409.94983 352.89062 409.44983 352.20312Q408.96545 351.5 408.21545 351.5Q407.4967 351.5 407.0592 352.10938Q406.51233 352.89062 406.51233 355.01562ZM412.4342 355.01562Q412.4342 353.48438 412.7467 352.5625Q413.0592 351.625 413.66858 351.125Q414.29358 350.625 415.23108 350.625Q415.91858 350.625 416.4342 350.90625Q416.96545 351.1875 417.3092 351.71875Q417.65295 352.23438 417.84045 352.98438Q418.02795 353.73438 418.02795 355.01562Q418.02795 356.53125 417.71545 357.45312Q417.41858 358.375 416.79358 358.89062Q416.1842 359.39062 415.23108 359.39062Q413.9967 359.39062 413.27795 358.5Q412.4342 357.4375 412.4342 355.01562ZM413.51233 355.01562Q413.51233 357.125 414.01233 357.82812Q414.51233 358.53125 415.23108 358.53125Q415.96545 358.53125 416.44983 357.82812Q416.94983 357.125 416.94983 355.01562Q416.94983 352.89062 416.44983 352.20312Q415.96545 351.5 415.21545 351.5Q414.4967 351.5 414.0592 352.10938Q413.51233 352.89062 413.51233 355.01562ZM419.4342 355.01562Q419.4342 353.48438 419.7467 352.5625Q420.0592 351.625 420.66858 351.125Q421.29358 350.625 422.23108 350.625Q422.91858 350.625 423.4342 350.90625Q423.96545 351.1875 424.3092 351.71875Q424.65295 352.23438 424.84045 352.98438Q425.02795 353.73438 425.02795 355.01562Q425.02795 356.53125 424.71545 357.45312Q424.41858 358.375 423.79358 358.89062Q423.1842 359.39062 422.23108 359.39062Q420.9967 359.39062 420.27795 358.5Q419.4342 357.4375 419.4342 355.01562ZM420.51233 355.01562Q420.51233 357.125 421.01233 357.82812Q421.51233 358.53125 422.23108 358.53125Q422.96545 358.53125 423.44983 357.82812Q423.94983 357.125 423.94983 355.01562Q423.94983 352.89062 423.44983 352.20312Q422.96545 351.5 422.21545 351.5Q421.4967 351.5 421.0592 352.10938Q420.51233 352.89062 420.51233 355.01562Z" fill-rule="nonzero"/><path fill="#ffffff" d="M517.2171 354.59375Q516.56085 354.34375 516.2327 353.90625Q515.9202 353.45312 515.9202 352.84375Q515.9202 351.90625 516.5921 351.26562Q517.2796 350.625 518.389 350.625Q519.514 350.625 520.2015 351.28125Q520.889 351.9375 520.889 352.875Q520.889 353.46875 520.5765 353.90625Q520.264 354.34375 519.62335 354.59375Q520.4202 354.84375 520.8265 355.42188Q521.2327 356.0 521.2327 356.79688Q521.2327 357.89062 520.4515 358.64062Q519.68585 359.39062 518.4046 359.39062Q517.139 359.39062 516.3577 358.64062Q515.5765 357.89062 515.5765 356.76562Q515.5765 355.92188 515.99835 355.35938Q516.43585 354.79688 517.2171 354.59375ZM516.99835 352.79688Q516.99835 353.40625 517.389 353.79688Q517.7952 354.1875 518.4202 354.1875Q519.0296 354.1875 519.4202 353.8125Q519.81085 353.42188 519.81085 352.85938Q519.81085 352.28125 519.4046 351.89062Q518.99835 351.48438 518.4046 351.48438Q517.7952 351.48438 517.389 351.875Q516.99835 352.26562 516.99835 352.79688ZM516.6702 356.76562Q516.6702 357.21875 516.87335 357.64062Q517.0921 358.0625 517.514 358.29688Q517.93585 358.53125 518.4202 358.53125Q519.1702 358.53125 519.6546 358.04688Q520.1546 357.5625 520.1546 356.8125Q520.1546 356.04688 519.6546 355.54688Q519.1546 355.04688 518.389 355.04688Q517.639 355.04688 517.1546 355.54688Q516.6702 356.03125 516.6702 356.76562ZM522.5921 355.01562Q522.5921 353.48438 522.9046 352.5625Q523.2171 351.625 523.8265 351.125Q524.4515 350.625 525.389 350.625Q526.0765 350.625 526.5921 350.90625Q527.12335 351.1875 527.4671 351.71875Q527.81085 352.23438 527.99835 352.98438Q528.18585 353.73438 528.18585 355.01562Q528.18585 356.53125 527.87335 357.45312Q527.5765 358.375 526.9515 358.89062Q526.3421 359.39062 525.389 359.39062Q524.1546 359.39062 523.43585 358.5Q522.5921 357.4375 522.5921 355.01562ZM523.6702 355.01562Q523.6702 357.125 524.1702 357.82812Q524.6702 358.53125 525.389 358.53125Q526.12335 358.53125 526.6077 357.82812Q527.1077 357.125 527.1077 355.01562Q527.1077 352.89062 526.6077 352.20312Q526.12335 351.5 525.37335 351.5Q524.6546 351.5 524.2171 352.10938Q523.6702 352.89062 523.6702 355.01562ZM529.5921 355.01562Q529.5921 353.48438 529.9046 352.5625Q530.2171 351.625 530.8265 351.125Q531.4515 350.625 532.389 350.625Q533.0765 350.625 533.5921 350.90625Q534.12335 351.1875 534.4671 351.71875Q534.81085 352.23438 534.99835 352.98438Q535.18585 353.73438 535.18585 355.01562Q535.18585 356.53125 534.87335 357.45312Q534.5765 358.375 533.9515 358.89062Q533.3421 359.39062 532.389 359.39062Q531.1546 359.39062 530.43585 358.5Q529.5921 357.4375 529.5921 355.01562ZM530.6702 355.01562Q530.6702 357.125 531.1702 357.82812Q531.6702 358.53125 532.389 358.53125Q533.12335 358.53125 533.6077 357.82812Q534.1077 357.125 534.1077 355.01562Q534.1077 352.89062 533.6077 352.20312Q533.12335 351.5 532.37335 351.5Q531.6546 351.5 531.2171 352.10938Q530.6702 352.89062 530.6702 355.01562ZM536.5921 355.01562Q536.5921 353.48438 536.9046 352.5625Q537.2171 351.625 537.8265 351.125Q538.4515 350.625 539.389 350.625Q540.0765 350.625 540.5921 350.90625Q541.12335 351.1875 541.4671 351.71875Q541.81085 352.23438 541.99835 352.98438Q542.18585 353.73438 542.18585 355.01562Q542.18585 356.53125 541.87335 357.45312Q541.5765 358.375 540.9515 358.89062Q540.3421 359.39062 539.389 359.39062Q538.1546 359.39062 537.43585 358.5Q536.5921 357.4375 536.5921 355.01562ZM537.6702 355.01562Q537.6702 357.125 538.1702 357.82812Q538.6702 358.53125 539.389 358.53125Q540.12335 358.53125 540.6077 357.82812Q541.1077 357.125 541.1077 355.01562Q541.1077 352.89062 540.6077 352.20312Q540.12335 351.5 539.37335 351.5Q538.6546 351.5 538.2171 352.10938Q537.6702 352.89062 537.6702 355.01562Z" fill-rule="nonzero"/><path fill="#ffffff" d="M633.21875 359.25L632.1719 359.25L632.1719 352.53125Q631.78125 352.89062 631.15625 353.26562Q630.5469 353.625 630.0625 353.79688L630.0625 352.78125Q630.9375 352.35938 631.59375 351.78125Q632.2656 351.1875 632.5469 350.625L633.21875 350.625L633.21875 359.25ZM636.25 355.01562Q636.25 353.48438 636.5625 352.5625Q636.875 351.625 637.4844 351.125Q638.1094 350.625 639.0469 350.625Q639.7344 350.625 640.25 350.90625Q640.78125 351.1875 641.125 351.71875Q641.46875 352.23438 641.65625 352.98438Q641.84375 353.73438 641.84375 355.01562Q641.84375 356.53125 641.53125 357.45312Q641.2344 358.375 640.6094 358.89062Q640.0 359.39062 639.0469 359.39062Q637.8125 359.39062 637.09375 358.5Q636.25 357.4375 636.25 355.01562ZM637.3281 355.01562Q637.3281 357.125 637.8281 357.82812Q638.3281 358.53125 639.0469 358.53125Q639.78125 358.53125 640.2656 357.82812Q640.7656 357.125 640.7656 355.01562Q640.7656 352.89062 640.2656 352.20312Q639.78125 351.5 639.03125 351.5Q638.3125 351.5 637.875 352.10938Q637.3281 352.89062 637.3281 355.01562ZM643.25 355.01562Q643.25 353.48438 643.5625 352.5625Q643.875 351.625 644.4844 351.125Q645.1094 350.625 646.0469 350.625Q646.7344 350.625 647.25 350.90625Q647.78125 351.1875 648.125 351.71875Q648.46875 352.23438 648.65625 352.98438Q648.84375 353.73438 648.84375 355.01562Q648.84375 356.53125 648.53125 357.45312Q648.2344 358.375 647.6094 358.89062Q647.0 359.39062 646.0469 359.39062Q644.8125 359.39062 644.09375 358.5Q643.25 357.4375 643.25 355.01562ZM644.3281 355.01562Q644.3281 357.125 644.8281 357.82812Q645.3281 358.53125 646.0469 358.53125Q646.78125 358.53125 647.2656 357.82812Q647.7656 357.125 647.7656 355.01562Q647.7656 352.89062 647.2656 352.20312Q646.78125 351.5 646.03125 351.5Q645.3125 351.5 644.875 352.10938Q644.3281 352.89062 644.3281 355.01562ZM650.25 355.01562Q650.25 353.48438 650.5625 352.5625Q650.875 351.625 651.4844 351.125Q652.1094 350.625 653.0469 350.625Q653.7344 350.625 654.25 350.90625Q654.78125 351.1875 655.125 351.71875Q655.46875 352.23438 655.65625 352.98438Q655.84375 353.73438 655.84375 355.01562Q655.84375 356.53125 655.53125 357.45312Q655.2344 358.375 654.6094 358.89062Q654.0 359.39062 653.0469 359.39062Q651.8125 359.39062 651.09375 358.5Q650.25 357.4375 650.25 355.01562ZM651.3281 355.01562Q651.3281 357.125 651.8281 357.82812Q652.3281 358.53125 653.0469 358.53125Q653.78125 358.53125 654.2656 357.82812Q654.7656 357.125 654.7656 355.01562Q654.7656 352.89062 654.2656 352.20312Q653.78125 351.5 653.03125 351.5Q652.3125 351.5 651.875 352.10938Q651.3281 352.89062 651.3281 355.01562ZM657.25 355.01562Q657.25 353.48438 657.5625 352.5625Q657.875 351.625 658.4844 351.125Q659.1094 350.625 660.0469 350.625Q660.7344 350.625 661.25 350.90625Q661.78125 351.1875 662.125 351.71875Q662.46875 352.23438 662.65625 352.98438Q662.84375 353.73438 662.84375 355.01562Q662.84375 356.53125 662.53125 357.45312Q662.2344 358.375 661.6094 358.89062Q661.0 359.39062 660.0469 359.39062Q658.8125 359.39062 658.09375 358.5Q657.25 357.4375 657.25 355.01562ZM658.3281 355.01562Q658.3281 357.125 658.8281 357.82812Q659.3281 358.53125 660.0469 358.53125Q660.78125 358.53125 661.2656 357.82812Q661.7656 357.125 661.7656 355.01562Q661.7656 352.89062 661.2656 352.20312Q660.78125 351.5 660.03125 351.5Q659.3125 351.5 658.875 352.10938Q658.3281 352.89062 658.3281 355.01562Z" fill-rule="nonzero"/><path stroke="#4285f4" stroke-width="4.0" stroke-linecap="butt" d="M202.0 27.75L214.0 27.75" fill-rule="nonzero"/><path fill="#ffffff" d="M222.95312 31.75L222.95312 23.15625L229.15625 23.15625L229.15625 24.171875L224.09375 24.171875L224.09375 26.796875L228.84375 26.796875L228.84375 27.8125L224.09375 27.8125L224.09375 30.734375L229.35938 30.734375L229.35938 31.75L222.95312 31.75ZM230.09375 31.75L232.35938 28.515625L230.26562 25.53125L231.57812 25.53125L232.53125 26.984375Q232.79688 27.40625 232.96875 27.6875Q233.21875 27.296875 233.4375 27.0L234.48438 25.53125L235.75 25.53125L233.59375 28.453125L235.90625 31.75L234.625 31.75L233.34375 29.8125L233.0 29.296875L231.35938 31.75L230.09375 31.75ZM235.79688 34.140625L235.79688 25.53125L236.75 25.53125L236.75 26.328125Q237.09375 25.859375 237.51562 25.625Q237.95312 25.390625 238.5625 25.390625Q239.35938 25.390625 239.96875 25.796875Q240.57812 26.203125 240.875 26.953125Q241.1875 27.703125 241.1875 28.59375Q241.1875 29.546875 240.84375 30.3125Q240.51562 31.078125 239.85938 31.484375Q239.20312 31.890625 238.48438 31.890625Q237.95312 31.890625 237.53125 31.671875Q237.10938 31.4375 236.84375 31.109375L236.84375 34.140625L235.79688 34.140625ZM236.75 28.671875Q236.75 29.875 237.23438 30.453125Q237.71875 31.015625 238.40625 31.015625Q239.10938 31.015625 239.60938 30.421875Q240.10938 29.828125 240.10938 28.578125Q240.10938 27.390625 239.625 26.8125Q239.14062 26.21875 238.45312 26.21875Q237.78125 26.21875 237.26562 26.84375Q236.75 27.46875 236.75 28.671875ZM242.78125 31.75L242.78125 25.53125L243.73438 25.53125L243.73438 26.46875Q244.09375 25.8125 244.39062 25.609375Q244.70312 25.390625 245.07812 25.390625Q245.60938 25.390625 246.15625 25.71875L245.79688 26.703125Q245.40625 26.46875 245.03125 26.46875Q244.67188 26.46875 244.39062 26.6875Q244.125 26.890625 244.01562 27.265625Q243.82812 27.828125 243.82812 28.484375L243.82812 31.75L242.78125 31.75ZM251.04688 29.75L252.14062 29.875Q251.89062 30.828125 251.1875 31.359375Q250.48438 31.890625 249.40625 31.890625Q248.04688 31.890625 247.23438 31.046875Q246.4375 30.203125 246.4375 28.6875Q246.4375 27.125 247.25 26.265625Q248.0625 25.390625 249.34375 25.390625Q250.59375 25.390625 251.375 26.234375Q252.17188 27.078125 252.17188 28.625Q252.17188 28.71875 252.17188 28.90625L247.53125 28.90625Q247.59375 29.9375 248.10938 30.484375Q248.625 31.015625 249.40625 31.015625Q249.98438 31.015625 250.39062 30.71875Q250.8125 30.40625 251.04688 29.75ZM247.59375 28.046875L251.0625 28.046875Q251.0 27.25 250.67188 26.859375Q250.15625 26.25 249.35938 26.25Q248.625 26.25 248.125 26.734375Q247.64062 27.21875 247.59375 28.046875ZM253.375 29.890625L254.40625 29.734375Q254.5 30.359375 254.89062 30.6875Q255.29688 31.015625 256.03125 31.015625Q256.75 31.015625 257.09375 30.734375Q257.45312 30.4375 257.45312 30.03125Q257.45312 29.671875 257.14062 29.46875Q256.92188 29.328125 256.0625 29.109375Q254.90625 28.8125 254.45312 28.609375Q254.01562 28.390625 253.78125 28.015625Q253.54688 27.640625 253.54688 27.171875Q253.54688 26.765625 253.73438 26.40625Q253.92188 26.046875 254.25 25.8125Q254.5 25.640625 254.92188 25.515625Q255.34375 25.390625 255.84375 25.390625Q256.5625 25.390625 257.10938 25.609375Q257.67188 25.8125 257.9375 26.171875Q258.20312 26.53125 258.29688 27.125L257.26562 27.265625Q257.20312 26.796875 256.85938 26.53125Q256.53125 26.25 255.90625 26.25Q255.1875 26.25 254.875 26.5Q254.5625 26.734375 254.5625 27.0625Q254.5625 27.265625 254.6875 27.421875Q254.82812 27.59375 255.09375 27.703125Q255.25 27.765625 256.03125 27.96875Q257.15625 28.28125 257.59375 28.46875Q258.03125 28.65625 258.28125 29.015625Q258.53125 29.375 258.53125 29.921875Q258.53125 30.453125 258.21875 30.921875Q257.92188 31.375 257.34375 31.640625Q256.76562 31.890625 256.03125 31.890625Q254.8125 31.890625 254.17188 31.390625Q253.54688 30.875 253.375 29.890625ZM260.375 29.890625L261.40625 29.734375Q261.5 30.359375 261.89062 30.6875Q262.29688 31.015625 263.03125 31.015625Q263.75 31.015625 264.09375 30.734375Q264.45312 30.4375 264.45312 30.03125Q264.45312 29.671875 264.14062 29.46875Q263.92188 29.328125 263.0625 29.109375Q261.90625 28.8125 261.45312 28.609375Q261.01562 28.390625 260.78125 28.015625Q260.54688 27.640625 260.54688 27.171875Q260.54688 26.765625 260.73438 26.40625Q260.92188 26.046875 261.25 25.8125Q261.5 25.640625 261.92188 25.515625Q262.34375 25.390625 262.84375 25.390625Q263.5625 25.390625 264.10938 25.609375Q264.67188 25.8125 264.9375 26.171875Q265.20312 26.53125 265.29688 27.125L264.26562 27.265625Q264.20312 26.796875 263.85938 26.53125Q263.53125 26.25 262.90625 26.25Q262.1875 26.25 261.875 26.5Q261.5625 26.734375 261.5625 27.0625Q261.5625 27.265625 261.6875 27.421875Q261.82812 27.59375 262.09375 27.703125Q262.25 27.765625 263.03125 27.96875Q264.15625 28.28125 264.59375 28.46875Q265.03125 28.65625 265.28125 29.015625Q265.53125 29.375 265.53125 29.921875Q265.53125 30.453125 265.21875 30.921875Q264.92188 31.375 264.34375 31.640625Q263.76562 31.890625 263.03125 31.890625Q261.8125 31.890625 261.17188 31.390625Q260.54688 30.875 260.375 29.890625ZM267.79688 24.375L267.79688 23.15625L268.85938 23.15625L268.85938 24.375L267.79688 24.375ZM267.79688 31.75L267.79688 25.53125L268.85938 25.53125L268.85938 31.75L267.79688 31.75ZM270.40625 28.640625Q270.40625 26.90625 271.35938 26.078125Q272.15625 25.390625 273.3125 25.390625Q274.59375 25.390625 275.40625 26.234375Q276.23438 27.0625 276.23438 28.546875Q276.23438 29.75 275.875 30.4375Q275.51562 31.125 274.8125 31.515625Q274.125 31.890625 273.3125 31.890625Q272.01562 31.890625 271.20312 31.0625Q270.40625 30.21875 270.40625 28.640625ZM271.48438 28.640625Q271.48438 29.828125 272.0 30.421875Q272.53125 31.015625 273.3125 31.015625Q274.10938 31.015625 274.625 30.421875Q275.14062 29.828125 275.14062 28.609375Q275.14062 27.453125 274.60938 26.859375Q274.09375 26.265625 273.3125 26.265625Q272.53125 26.265625 272.0 26.859375Q271.48438 27.4375 271.48438 28.640625ZM277.79688 31.75L277.79688 25.53125L278.73438 25.53125L278.73438 26.40625Q279.42188 25.390625 280.71875 25.390625Q281.28125 25.390625 281.75 25.59375Q282.23438 25.796875 282.46875 26.125Q282.70312 26.453125 282.79688 26.890625Q282.84375 27.1875 282.84375 27.921875L282.84375 31.75L281.79688 31.75L281.79688 27.96875Q281.79688 27.3125 281.67188 27.0Q281.54688 26.6875 281.23438 26.5Q280.92188 26.296875 280.5 26.296875Q279.82812 26.296875 279.32812 26.734375Q278.84375 27.15625 278.84375 28.34375L278.84375 31.75L277.79688 31.75Z" fill-rule="nonzero"/><path stroke="#ea4335" stroke-width="4.0" stroke-linecap="butt" d="M300.0 27.75L312.0 27.75" fill-rule="nonzero"/><path fill="#ffffff" d="M320.34375 29.3125L321.375 29.171875Q321.40625 30.15625 321.73438 30.515625Q322.0625 30.875 322.65625 30.875Q323.07812 30.875 323.39062 30.6875Q323.70312 30.484375 323.8125 30.15625Q323.9375 29.8125 323.9375 29.078125L323.9375 23.15625L325.0625 23.15625L325.0625 29.015625Q325.0625 30.09375 324.79688 30.6875Q324.54688 31.28125 323.98438 31.59375Q323.42188 31.890625 322.65625 31.890625Q321.53125 31.890625 320.92188 31.25Q320.32812 30.59375 320.34375 29.3125ZM330.85938 30.984375Q330.26562 31.484375 329.71875 31.6875Q329.1875 31.890625 328.5625 31.890625Q327.53125 31.890625 326.98438 31.390625Q326.4375 30.890625 326.4375 30.109375Q326.4375 29.65625 326.64062 29.28125Q326.84375 28.890625 327.1875 28.671875Q327.53125 28.4375 327.95312 28.328125Q328.25 28.234375 328.89062 28.15625Q330.15625 28.015625 330.76562 27.796875Q330.76562 27.578125 330.76562 27.53125Q330.76562 26.875 330.46875 26.609375Q330.0625 26.265625 329.26562 26.265625Q328.53125 26.265625 328.17188 26.53125Q327.8125 26.78125 327.64062 27.4375L326.60938 27.296875Q326.75 26.640625 327.07812 26.234375Q327.40625 25.828125 328.01562 25.609375Q328.625 25.390625 329.42188 25.390625Q330.21875 25.390625 330.71875 25.578125Q331.21875 25.765625 331.45312 26.046875Q331.6875 26.328125 331.78125 26.765625Q331.82812 27.03125 331.82812 27.734375L331.82812 29.140625Q331.82812 30.609375 331.89062 31.0Q331.96875 31.390625 332.17188 31.75L331.0625 31.75Q330.90625 31.421875 330.85938 30.984375ZM330.76562 28.625Q330.1875 28.859375 329.04688 29.03125Q328.39062 29.125 328.125 29.25Q327.85938 29.359375 327.70312 29.578125Q327.5625 29.796875 327.5625 30.078125Q327.5625 30.5 327.875 30.78125Q328.20312 31.0625 328.8125 31.0625Q329.42188 31.0625 329.89062 30.796875Q330.375 30.53125 330.59375 30.0625Q330.76562 29.703125 330.76562 29.015625L330.76562 28.625ZM335.51562 31.75L333.15625 25.53125L334.26562 25.53125L335.60938 29.25Q335.8125 29.859375 336.0 30.5Q336.14062 30.015625 336.39062 29.328125L337.78125 25.53125L338.85938 25.53125L336.5 31.75L335.51562 31.75ZM342.85938 30.984375Q342.26562 31.484375 341.71875 31.6875Q341.1875 31.890625 340.5625 31.890625Q339.53125 31.890625 338.98438 31.390625Q338.4375 30.890625 338.4375 30.109375Q338.4375 29.65625 338.64062 29.28125Q338.84375 28.890625 339.1875 28.671875Q339.53125 28.4375 339.95312 28.328125Q340.25 28.234375 340.89062 28.15625Q342.15625 28.015625 342.76562 27.796875Q342.76562 27.578125 342.76562 27.53125Q342.76562 26.875 342.46875 26.609375Q342.0625 26.265625 341.26562 26.265625Q340.53125 26.265625 340.17188 26.53125Q339.8125 26.78125 339.64062 27.4375L338.60938 27.296875Q338.75 26.640625 339.07812 26.234375Q339.40625 25.828125 340.01562 25.609375Q340.625 25.390625 341.42188 25.390625Q342.21875 25.390625 342.71875 25.578125Q343.21875 25.765625 343.45312 26.046875Q343.6875 26.328125 343.78125 26.765625Q343.82812 27.03125 343.82812 27.734375L343.82812 29.140625Q343.82812 30.609375 343.89062 31.0Q343.96875 31.390625 344.17188 31.75L343.0625 31.75Q342.90625 31.421875 342.85938 30.984375ZM342.76562 28.625Q342.1875 28.859375 341.04688 29.03125Q340.39062 29.125 340.125 29.25Q339.85938 29.359375 339.70312 29.578125Q339.5625 29.796875 339.5625 30.078125Q339.5625 30.5 339.875 30.78125Q340.20312 31.0625 340.8125 31.0625Q341.42188 31.0625 341.89062 30.796875Q342.375 30.53125 342.59375 30.0625Q342.76562 29.703125 342.76562 29.015625L342.76562 28.625ZM345.54688 28.984375L346.60938 28.890625Q346.6875 29.546875 346.96875 29.953125Q347.25 30.359375 347.82812 30.625Q348.42188 30.875 349.15625 30.875Q349.79688 30.875 350.29688 30.6875Q350.79688 30.484375 351.03125 30.15625Q351.28125 29.8125 351.28125 29.421875Q351.28125 29.015625 351.04688 28.71875Q350.8125 28.40625 350.28125 28.203125Q349.92188 28.0625 348.73438 27.78125Q347.5625 27.5 347.09375 27.25Q346.46875 26.921875 346.17188 26.453125Q345.875 25.96875 345.875 25.375Q345.875 24.734375 346.23438 24.171875Q346.60938 23.59375 347.3125 23.3125Q348.03125 23.015625 348.89062 23.015625Q349.84375 23.015625 350.57812 23.328125Q351.3125 23.625 351.70312 24.234375Q352.09375 24.828125 352.125 25.578125L351.03125 25.65625Q350.9375 24.84375 350.42188 24.4375Q349.92188 24.015625 348.9375 24.015625Q347.90625 24.015625 347.4375 24.390625Q346.96875 24.765625 346.96875 25.296875Q346.96875 25.765625 347.29688 26.0625Q347.625 26.359375 349.0 26.671875Q350.39062 26.984375 350.90625 27.21875Q351.65625 27.578125 352.01562 28.109375Q352.375 28.625 352.375 29.328125Q352.375 30.015625 351.98438 30.625Q351.59375 31.21875 350.85938 31.5625Q350.125 31.890625 349.20312 31.890625Q348.03125 31.890625 347.23438 31.5625Q346.45312 31.21875 346.0 30.53125Q345.5625 29.84375 345.54688 28.984375ZM357.85938 29.46875L358.89062 29.609375Q358.71875 30.671875 358.01562 31.28125Q357.3125 31.890625 356.29688 31.890625Q355.01562 31.890625 354.23438 31.0625Q353.46875 30.21875 353.46875 28.65625Q353.46875 27.65625 353.79688 26.90625Q354.14062 26.140625 354.8125 25.765625Q355.5 25.390625 356.3125 25.390625Q357.3125 25.390625 357.95312 25.90625Q358.60938 26.40625 358.79688 27.359375L357.76562 27.515625Q357.625 26.890625 357.25 26.578125Q356.875 26.25 356.34375 26.25Q355.54688 26.25 355.04688 26.828125Q354.54688 27.390625 354.54688 28.625Q354.54688 29.890625 355.03125 30.453125Q355.51562 31.015625 356.28125 31.015625Q356.90625 31.015625 357.3125 30.640625Q357.73438 30.265625 357.85938 29.46875ZM359.78125 31.75L359.78125 25.53125L360.73438 25.53125L360.73438 26.46875Q361.09375 25.8125 361.39062 25.609375Q361.70312 25.390625 362.07812 25.390625Q362.60938 25.390625 363.15625 25.71875L362.79688 26.703125Q362.40625 26.46875 362.03125 26.46875Q361.67188 26.46875 361.39062 26.6875Q361.125 26.890625 361.01562 27.265625Q360.82812 27.828125 360.82812 28.484375L360.82812 31.75L359.78125 31.75ZM363.79688 24.375L363.79688 23.15625L364.85938 23.15625L364.85938 24.375L363.79688 24.375ZM363.79688 31.75L363.79688 25.53125L364.85938 25.53125L364.85938 31.75L363.79688 31.75ZM366.79688 34.140625L366.79688 25.53125L367.75 25.53125L367.75 26.328125Q368.09375 25.859375 368.51562 25.625Q368.95312 25.390625 369.5625 25.390625Q370.35938 25.390625 370.96875 25.796875Q371.57812 26.203125 371.875 26.953125Q372.1875 27.703125 372.1875 28.59375Q372.1875 29.546875 371.84375 30.3125Q371.51562 31.078125 370.85938 31.484375Q370.20312 31.890625 369.48438 31.890625Q368.95312 31.890625 368.53125 31.671875Q368.10938 31.4375 367.84375 31.109375L367.84375 34.140625L366.79688 34.140625ZM367.75 28.671875Q367.75 29.875 368.23438 30.453125Q368.71875 31.015625 369.40625 31.015625Q370.10938 31.015625 370.60938 30.421875Q371.10938 29.828125 371.10938 28.578125Q371.10938 27.390625 370.625 26.8125Q370.14062 26.21875 369.45312 26.21875Q368.78125 26.21875 368.26562 26.84375Q367.75 27.46875 367.75 28.671875ZM376.09375 30.8125L376.25 31.734375Q375.79688 31.828125 375.45312 31.828125Q374.875 31.828125 374.5625 31.65625Q374.25 31.46875 374.10938 31.171875Q373.98438 30.875 373.98438 29.921875L373.98438 26.34375L373.21875 26.34375L373.21875 25.53125L373.98438 25.53125L373.98438 23.984375L375.03125 23.359375L375.03125 25.53125L376.09375 25.53125L376.09375 26.34375L375.03125 26.34375L375.03125 29.984375Q375.03125 30.4375 375.07812 30.5625Q375.14062 30.6875 375.26562 30.765625Q375.39062 30.84375 375.625 30.84375Q375.8125 30.84375 376.09375 30.8125Z" fill-rule="nonzero"/><path stroke="#fbbc04" stroke-width="4.0" stroke-linecap="butt" d="M392.0 27.75L404.0 27.75" fill-rule="nonzero"/><path fill="#ffffff" d="M419.0625 28.734375L420.1875 29.03125Q419.82812 30.421875 418.90625 31.15625Q417.98438 31.890625 416.64062 31.890625Q415.25 31.890625 414.375 31.328125Q413.5 30.765625 413.04688 29.703125Q412.59375 28.625 412.59375 27.390625Q412.59375 26.046875 413.10938 25.046875Q413.625 24.046875 414.5625 23.53125Q415.51562 23.015625 416.65625 23.015625Q417.9375 23.015625 418.8125 23.671875Q419.70312 24.328125 420.04688 25.515625L418.92188 25.78125Q418.625 24.84375 418.04688 24.421875Q417.48438 23.984375 416.625 23.984375Q415.64062 23.984375 414.96875 24.46875Q414.3125 24.9375 414.03125 25.734375Q413.76562 26.53125 413.76562 27.390625Q413.76562 28.484375 414.07812 29.296875Q414.40625 30.109375 415.07812 30.515625Q415.75 30.921875 416.54688 30.921875Q417.5 30.921875 418.15625 30.375Q418.82812 29.828125 419.0625 28.734375ZM421.40625 28.640625Q421.40625 26.90625 422.35938 26.078125Q423.15625 25.390625 424.3125 25.390625Q425.59375 25.390625 426.40625 26.234375Q427.23438 27.0625 427.23438 28.546875Q427.23438 29.75 426.875 30.4375Q426.51562 31.125 425.8125 31.515625Q425.125 31.890625 424.3125 31.890625Q423.01562 31.890625 422.20312 31.0625Q421.40625 30.21875 421.40625 28.640625ZM422.48438 28.640625Q422.48438 29.828125 423.0 30.421875Q423.53125 31.015625 424.3125 31.015625Q425.10938 31.015625 425.625 30.421875Q426.14062 29.828125 426.14062 28.609375Q426.14062 27.453125 425.60938 26.859375Q425.09375 26.265625 424.3125 26.265625Q423.53125 26.265625 423.0 26.859375Q422.48438 27.4375 422.48438 28.640625ZM428.79688 31.75L428.79688 25.53125L429.73438 25.53125L429.73438 26.40625Q430.42188 25.390625 431.71875 25.390625Q432.28125 25.390625 432.75 25.59375Q433.23438 25.796875 433.46875 26.125Q433.70312 26.453125 433.79688 26.890625Q433.84375 27.1875 433.84375 27.921875L433.84375 31.75L432.79688 31.75L432.79688 27.96875Q432.79688 27.3125 432.67188 27.0Q432.54688 26.6875 432.23438 26.5Q431.92188 26.296875 431.5 26.296875Q430.82812 26.296875 430.32812 26.734375Q429.84375 27.15625 429.84375 28.34375L429.84375 31.75L428.79688 31.75ZM439.82812 31.75L439.82812 30.96875Q439.23438 31.890625 438.09375 31.890625Q437.34375 31.890625 436.71875 31.484375Q436.09375 31.0625 435.75 30.328125Q435.40625 29.59375 435.40625 28.640625Q435.40625 27.71875 435.71875 26.953125Q436.03125 26.1875 436.65625 25.796875Q437.28125 25.390625 438.04688 25.390625Q438.60938 25.390625 439.04688 25.625Q439.48438 25.859375 439.76562 26.234375L439.76562 23.15625L440.8125 23.15625L440.8125 31.75L439.82812 31.75ZM436.5 28.640625Q436.5 29.84375 437.0 30.4375Q437.5 31.015625 438.1875 31.015625Q438.875 31.015625 439.35938 30.453125Q439.84375 29.890625 439.84375 28.734375Q439.84375 27.453125 439.34375 26.859375Q438.85938 26.265625 438.14062 26.265625Q437.4375 26.265625 436.96875 26.84375Q436.5 27.40625 436.5 28.640625ZM442.79688 24.375L442.79688 23.15625L443.85938 23.15625L443.85938 24.375L442.79688 24.375ZM442.79688 31.75L442.79688 25.53125L443.85938 25.53125L443.85938 31.75L442.79688 31.75ZM448.09375 30.8125L448.25 31.734375Q447.79688 31.828125 447.45312 31.828125Q446.875 31.828125 446.5625 31.65625Q446.25 31.46875 446.10938 31.171875Q445.98438 30.875 445.98438 29.921875L445.98438 26.34375L445.21875 26.34375L445.21875 25.53125L445.98438 25.53125L445.98438 23.984375L447.03125 23.359375L447.03125 25.53125L448.09375 25.53125L448.09375 26.34375L447.03125 26.34375L447.03125 29.984375Q447.03125 30.4375 447.07812 30.5625Q447.14062 30.6875 447.26562 30.765625Q447.39062 30.84375 447.625 30.84375Q447.8125 30.84375 448.09375 30.8125ZM448.79688 24.375L448.79688 23.15625L449.85938 23.15625L449.85938 24.375L448.79688 24.375ZM448.79688 31.75L448.79688 25.53125L449.85938 25.53125L449.85938 31.75L448.79688 31.75ZM451.40625 28.640625Q451.40625 26.90625 452.35938 26.078125Q453.15625 25.390625 454.3125 25.390625Q455.59375 25.390625 456.40625 26.234375Q457.23438 27.0625 457.23438 28.546875Q457.23438 29.75 456.875 30.4375Q456.51562 31.125 455.8125 31.515625Q455.125 31.890625 454.3125 31.890625Q453.01562 31.890625 452.20312 31.0625Q451.40625 30.21875 451.40625 28.640625ZM452.48438 28.640625Q452.48438 29.828125 453.0 30.421875Q453.53125 31.015625 454.3125 31.015625Q455.10938 31.015625 455.625 30.421875Q456.14062 29.828125 456.14062 28.609375Q456.14062 27.453125 455.60938 26.859375Q455.09375 26.265625 454.3125 26.265625Q453.53125 26.265625 453.0 26.859375Q452.48438 27.4375 452.48438 28.640625ZM458.79688 31.75L458.79688 25.53125L459.73438 25.53125L459.73438 26.40625Q460.42188 25.390625 461.71875 25.390625Q462.28125 25.390625 462.75 25.59375Q463.23438 25.796875 463.46875 26.125Q463.70312 26.453125 463.79688 26.890625Q463.84375 27.1875 463.84375 27.921875L463.84375 31.75L462.79688 31.75L462.79688 27.96875Q462.79688 27.3125 462.67188 27.0Q462.54688 26.6875 462.23438 26.5Q461.92188 26.296875 461.5 26.296875Q460.82812 26.296875 460.32812 26.734375Q459.84375 27.15625 459.84375 28.34375L459.84375 31.75L458.79688 31.75Z" fill-rule="nonzero"/></svg>