<?xml version="1.0" encoding="UTF-8"?>
<svg xmlns="http://www.w3.org/2000/svg" xmlns:xlink="http://www.w3.org/1999/xlink" width="200px" height="200px" viewBox="0 0 200 200" version="1.1">
<g id="surface1">
<path style=" stroke:none;fill-rule:nonzero;fill:rgb(0%,0%,0%);fill-opacity:1;" d="M 132.046875 38.15625 C 120.0625 38.21875 110.203125 38.328125 110.140625 38.390625 C 109.921875 38.625 108.921875 41.890625 108.53125 43.625 C 108.328125 44.59375 107.890625 47.609375 107.59375 50.3125 C 107.28125 53.015625 106.03125 63.953125 104.8125 74.609375 C 102.703125 93.140625 102.609375 94.125 102.59375 97.109375 C 102.59375 99.3125 102.671875 100.53125 102.828125 101.25 L 103.0625 102.265625 L 104.0625 102.359375 C 105.359375 102.46875 108.71875 102.265625 110.40625 101.96875 C 111.125 101.84375 114.828125 100.921875 118.625 99.9375 C 126.890625 97.796875 145.75 92.90625 148.828125 92.109375 C 150.03125 91.8125 151.65625 91.375 152.421875 91.171875 C 153.203125 90.953125 156.4375 90.171875 159.609375 89.4375 C 168.5 87.375 172.359375 86.1875 176.359375 84.296875 C 179.515625 82.796875 180.5 82.109375 182.828125 79.734375 C 186.65625 75.828125 188.0625 73.5 188.953125 69.53125 C 189.25 68.21875 189.296875 67.578125 189.296875 63.984375 C 189.28125 60.421875 189.25 59.671875 188.921875 57.890625 C 187.515625 49.9375 183.0625 43.859375 176.484375 40.859375 C 171.890625 38.765625 166.265625 37.9375 157.1875 38 C 155.34375 38.015625 144.03125 38.078125 132.046875 38.15625 Z M 151.453125 66.5625 C 153.640625 66.8125 154.125 67.125 155.015625 68.75 C 155.484375 69.609375 155.484375 69.625 155.3125 70.953125 C 155.109375 72.625 154.828125 73.578125 154.171875 74.765625 C 153.296875 76.328125 151.78125 77.203125 149.46875 77.5 C 148.609375 77.609375 139.234375 77.421875 139.125 77.28125 C 139.109375 77.28125 139.4375 74.90625 139.859375 72.03125 C 140.28125 69.15625 140.625 66.703125 140.625 66.59375 C 140.625 66.359375 149.359375 66.328125 151.453125 66.5625 Z M 151.453125 66.5625 "/>
<path style=" stroke:none;fill-rule:nonzero;fill:rgb(0%,0%,0%);fill-opacity:1;" d="M 50.078125 38.5 C 49.1875 38.90625 48.609375 39.53125 48.03125 40.65625 C 47.359375 41.984375 34.984375 72.8125 34.734375 73.8125 C 34.5 74.6875 34.5 74.859375 34.75 75.96875 C 34.890625 76.625 35.09375 77.234375 35.203125 77.3125 C 35.53125 77.59375 37.953125 77.96875 39.328125 77.96875 C 40.53125 77.96875 41.65625 77.71875 51.15625 75.328125 C 87.78125 66.078125 91.3125 65.140625 92.5 64.34375 C 93.25 63.828125 93.625 62.59375 93.625 60.625 C 93.640625 57.640625 90.78125 45.46875 88.625 39.21875 L 88.328125 38.359375 L 83.65625 38.265625 C 81.09375 38.21875 72.65625 38.15625 64.921875 38.15625 L 50.859375 38.125 Z M 50.078125 38.5 "/>
<path style=" stroke:none;fill-rule:nonzero;fill:rgb(0%,0%,0%);fill-opacity:1;" d="M 84.6875 68.9375 C 83.390625 69.125 50.1875 76.390625 44.53125 77.71875 C 37.421875 79.390625 36.984375 79.5625 35.59375 81.046875 C 34.734375 81.984375 33.984375 83.421875 32.96875 86.09375 C 31.390625 90.265625 28.828125 96.453125 25.9375 103.046875 C 17.84375 121.546875 9.890625 140 9.421875 141.328125 C 8.953125 142.6875 8.8125 144.71875 9.09375 145.9375 L 9.296875 146.796875 L 14.453125 146.90625 C 17.296875 146.984375 24.703125 147.015625 30.921875 146.984375 L 42.234375 146.953125 L 43 146.09375 C 44.0625 144.921875 44.734375 143.5 46.34375 139.078125 C 46.75 137.984375 48.4375 131.078125 48.4375 130.546875 C 48.4375 130.5 54.0625 130.46875 60.9375 130.46875 C 71 130.46875 73.4375 130.5 73.4375 130.671875 C 73.4375 130.78125 73.6875 133.15625 73.984375 135.9375 C 74.546875 141.1875 74.859375 143.359375 75.140625 143.859375 C 75.21875 144.015625 75.578125 144.75 75.921875 145.5 L 76.546875 146.875 L 106.75 146.90625 C 153.34375 146.96875 152.609375 146.984375 155.390625 146.578125 C 161.671875 145.640625 166 144.40625 170.265625 142.34375 C 173.9375 140.546875 176.6875 138.515625 179.5625 135.46875 C 183.46875 131.34375 186.75 124.15625 187.984375 117.015625 C 188.3125 115.15625 188.359375 114.421875 188.359375 110.546875 L 188.359375 106.171875 L 187.90625 104.921875 C 186.859375 102 185.34375 99.59375 183.0625 97.21875 C 182.1875 96.3125 180.921875 95.125 180.234375 94.578125 C 178.46875 93.15625 175.34375 91.109375 173.515625 90.171875 C 169.40625 88.0625 167.734375 88.09375 157.46875 90.5625 C 150.84375 92.140625 118.28125 100.28125 114.375 101.328125 C 107.40625 103.1875 102.578125 104.578125 102.40625 104.75 C 102.3125 104.84375 101.75 107.046875 101.15625 109.640625 C 100.5625 112.25 100.046875 114.3125 99.984375 114.25 C 99.921875 114.1875 98.875 108.96875 97.65625 102.65625 C 94.109375 84.328125 92.765625 77.78125 90.96875 70 L 90.6875 68.828125 L 88.203125 68.8125 C 86.828125 68.796875 85.25 68.84375 84.6875 68.9375 Z M 66.71875 85.8125 C 67.4375 88.9375 68.109375 93.4375 68.4375 97.34375 C 68.53125 98.421875 68.640625 99.625 68.671875 100.03125 L 68.765625 100.78125 L 60.125 100.78125 L 60.1875 99.796875 C 60.234375 99.015625 60.78125 97.421875 62.953125 91.59375 C 65.453125 84.9375 65.6875 84.375 66.015625 84.375 C 66.34375 84.375 66.40625 84.515625 66.71875 85.8125 Z M 150.484375 105.15625 C 152.03125 105.78125 153.109375 106.546875 153.984375 107.671875 L 154.71875 108.609375 L 154.625 109.859375 C 154.40625 112.296875 153.59375 114.4375 152.546875 115.296875 C 151.59375 116.09375 149.890625 116.859375 148.4375 117.140625 C 147.296875 117.34375 146.265625 117.375 141.1875 117.296875 C 137.9375 117.25 135.25 117.171875 135.21875 117.140625 C 135.1875 117.109375 135.328125 114.328125 135.546875 110.9375 C 135.765625 107.5625 135.9375 104.78125 135.9375 104.75 C 135.9375 104.71875 138.953125 104.6875 142.640625 104.6875 L 149.34375 104.6875 Z M 150.484375 105.15625 "/>
</g>
</svg>
