<?xml version="1.0" standalone="no"?>
<!DOCTYPE svg PUBLIC "-//W3C//DTD SVG 20010904//EN"
 "http://www.w3.org/TR/2001/REC-SVG-20010904/DTD/svg10.dtd">
<svg version="1.0" xmlns="http://www.w3.org/2000/svg"
 width="1280.000000pt" height="1280.000000pt" viewBox="0 0 1280.000000 1280.000000"
 preserveAspectRatio="xMidYMid meet">

<g transform="translate(0.000000,1280.000000) scale(0.100000,-0.100000)"
fill="#000000" stroke="none">
<path d="M8451 10358 c-767 -4 -1398 -11 -1402 -15 -14 -15 -78 -224 -103
-335 -13 -62 -41 -255 -60 -428 -20 -173 -100 -873 -178 -1555 -135 -1186
-141 -1249 -142 -1440 0 -141 5 -219 15 -265 l15 -65 64 -6 c83 -7 298 6 406
25 46 8 283 67 526 130 529 137 1736 450 1933 501 77 19 181 47 230 60 50 14
257 64 460 111 569 132 816 208 1072 329 202 96 265 140 414 292 245 250 335
399 392 653 19 84 22 125 22 355 -1 228 -3 276 -24 390 -90 509 -375 898 -796
1090 -294 134 -654 187 -1235 183 -118 -1 -842 -5 -1609 -10z m1242 -1818
c140 -16 171 -36 228 -140 30 -55 30 -56 19 -141 -13 -107 -31 -168 -73 -244
-56 -100 -153 -156 -301 -175 -55 -7 -655 5 -662 14 -1 0 20 152 47 336 27
184 49 341 49 348 0 15 559 17 693 2z"/>
<path d="M3205 10336 c-57 -26 -94 -66 -131 -138 -43 -85 -835 -2058 -851
-2122 -15 -56 -15 -67 1 -138 9 -42 22 -81 29 -86 21 -18 176 -42 264 -42 77
0 149 16 757 169 2344 592 2570 652 2646 703 48 33 72 112 72 238 1 191 -182
970 -320 1370 l-19 55 -299 6 c-164 3 -704 7 -1199 7 l-900 2 -50 -24z"/>
<path d="M5420 8388 c-83 -12 -2208 -477 -2570 -562 -455 -107 -483 -118 -572
-213 -55 -60 -103 -152 -168 -323 -101 -267 -265 -663 -450 -1085 -518 -1184
-1027 -2365 -1057 -2450 -30 -87 -39 -217 -21 -295 l13 -55 330 -7 c182 -5
656 -7 1054 -5 l724 2 49 55 c68 75 111 166 214 449 26 70 134 512 134 546 0
3 360 5 800 5 644 0 800 -2 800 -13 0 -7 16 -159 35 -337 36 -336 56 -475 74
-507 5 -10 28 -57 50 -105 l40 -88 1933 -2 c2982 -4 2935 -5 3113 21 402 60
679 139 952 271 235 115 411 245 595 440 250 264 460 724 539 1181 21 119 24
166 24 414 l0 280 -29 80 c-67 187 -164 341 -310 493 -56 58 -137 134 -181
169 -113 91 -313 222 -430 282 -263 135 -370 133 -1027 -25 -424 -101 -2508
-622 -2758 -689 -446 -119 -755 -208 -766 -219 -6 -6 -42 -147 -80 -313 -38
-167 -71 -299 -75 -295 -4 4 -71 338 -149 742 -227 1173 -313 1592 -428 2090
l-18 75 -159 1 c-88 1 -189 -2 -225 -8z m-1150 -1080 c46 -200 89 -488 110
-738 6 -69 13 -146 15 -172 l6 -48 -277 0 -276 0 4 63 c3 50 38 152 177 525
160 426 175 462 196 462 21 0 25 -9 45 -92z m5361 -1238 c99 -40 168 -89 224
-161 l47 -60 -6 -80 c-14 -156 -66 -293 -133 -348 -61 -51 -170 -100 -263
-118 -73 -13 -139 -15 -464 -10 -208 3 -380 8 -382 10 -2 2 7 180 21 397 14
216 25 394 25 396 0 2 193 4 429 4 l429 0 73 -30z"/>
</g>
</svg>
