<?xml version="1.0" encoding="UTF-8"?>
<svg version="1.1" xmlns="http://www.w3.org/2000/svg" width="32" height="32">
<path d="M0 0 C1.134375 0.020625 2.26875 0.04125 3.4375 0.0625 C3.4375 1.3825 3.4375 2.7025 3.4375 4.0625 C4.0975 4.0625 4.7575 4.0625 5.4375 4.0625 C5.4375 2.7425 5.4375 1.4225 5.4375 0.0625 C7.04157328 0.03541433 8.6457785 0.01606517 10.25 0 C11.14332031 -0.01160156 12.03664063 -0.02320313 12.95703125 -0.03515625 C15.4375 0.0625 15.4375 0.0625 18.4375 1.0625 C19.5625 6.6875 19.5625 6.6875 18.4375 10.0625 C18.64375 10.866875 18.85 11.67125 19.0625 12.5 C19.4375 15.0625 19.4375 15.0625 18.50390625 17.20703125 C15.25425304 20.12496183 11.95287246 19.49178578 7.75 19.3125 C6.95271484 19.29445313 6.15542969 19.27640625 5.33398438 19.2578125 C3.36797551 19.21072247 1.40258506 19.13897899 -0.5625 19.0625 C-0.5625 18.4025 -0.5625 17.7425 -0.5625 17.0625 C-1.5525 17.0625 -2.5425 17.0625 -3.5625 17.0625 C-3.5625 17.7225 -3.5625 18.3825 -3.5625 19.0625 C-5.8725 19.0625 -8.1825 19.0625 -10.5625 19.0625 C-9.87721486 14.91963983 -8.58359557 11.22136187 -7.0625 7.3125 C-6.6190625 6.16265625 -6.175625 5.0128125 -5.71875 3.828125 C-4.14872067 0.07278457 -4.14872067 0.07278457 0 0 Z M3.4375 6.0625 C4.4375 8.0625 4.4375 8.0625 4.4375 8.0625 Z " fill="#002A6F" transform="translate(11.5625,4.9375)"/>
<path d="M0 0 C2.31 0 4.62 0 7 0 C7.1875 2.875 7.1875 2.875 7 6 C6.01 6.66 5.02 7.32 4 8 C4 8.99 4 9.98 4 11 C3.34 11 2.68 11 2 11 C2 9.68 2 8.36 2 7 C0.02 7.99 0.02 7.99 -2 9 C-1.125 2.25 -1.125 2.25 0 0 Z " fill="#003284" transform="translate(7,6)"/>
<path d="M0 0 C2.31 0 4.62 0 7 0 C7 1.32 7 2.64 7 4 C4.69 4.33 2.38 4.66 0 5 C0 3.35 0 1.7 0 0 Z " fill="#003A98" transform="translate(7,6)"/>
</svg>
