<?xml version="1.0" encoding="UTF-8"?>
<svg version="1.1" xmlns="http://www.w3.org/2000/svg" width="48" height="48">
<path d="M0 0 C2.12046792 3.53411321 2.53199289 6.94393835 3 11 C3.04898437 10.37351562 3.09796875 9.74703125 3.1484375 9.1015625 C3.22320313 8.28429688 3.29796875 7.46703125 3.375 6.625 C3.44460937 5.81289062 3.51421875 5.00078125 3.5859375 4.1640625 C4 2 4 2 6 0 C8.64453125 -0.265625 8.64453125 -0.265625 11.8125 -0.25 C12.85019531 -0.25515625 13.88789062 -0.2603125 14.95703125 -0.265625 C19.17827419 0.1028532 21.98886477 0.98886477 25 4 C25.34361606 7.95158471 25.08901197 10.60535554 23 14 C23.66 14.99 24.32 15.98 25 17 C24.67425569 23.08056042 24.67425569 23.08056042 22.625 25.875 C19.52131898 28.02370224 16.75902316 28.11975166 13.11328125 28.09765625 C12.17548828 28.09443359 11.23769531 28.09121094 10.27148438 28.08789062 C9.29501953 28.07951172 8.31855469 28.07113281 7.3125 28.0625 C6.32443359 28.05798828 5.33636719 28.05347656 4.31835938 28.04882812 C1.87884526 28.03704303 -0.56054689 28.02059011 -3 28 C-3.33 26.68 -3.66 25.36 -4 24 C-5.65 24 -7.3 24 -9 24 C-9.33 25.32 -9.66 26.64 -10 28 C-12.97 28 -15.94 28 -19 28 C-17.7301761 18.73028555 -14.10284252 9.4010585 -10 1 C-6.78548731 -0.60725635 -3.56387464 -0.05748185 0 0 Z M12 18 C12.33 18.66 12.66 19.32 13 20 C13.66 19.34 14.32 18.68 15 18 C14.01 18 13.02 18 12 18 Z " fill="#002A6F" transform="translate(21,8)"/>
<path d="M0 0 C1.22589844 0.01353516 1.22589844 0.01353516 2.4765625 0.02734375 C3.41628906 0.04474609 3.41628906 0.04474609 4.375 0.0625 C4.375 1.7125 4.375 3.3625 4.375 5.0625 C2.93945975 5.56809908 1.5014798 6.0667749 0.0625 6.5625 C-1.13826172 6.98015625 -1.13826172 6.98015625 -2.36328125 7.40625 C-4.625 8.0625 -4.625 8.0625 -7.625 8.0625 C-7.36938677 5.7193787 -7.03229228 3.38406597 -6.625 1.0625 C-4.21954362 -0.14022819 -2.67503047 -0.03821472 0 0 Z " fill="#003996" transform="translate(16.625,9.9375)"/>
<path d="M0 0 C0.33 0 0.66 0 1 0 C1 1.65 1 3.3 1 5 C2.98 4.67 4.96 4.34 7 4 C6.67 4.66 6.34 5.32 6 6 C4.35 6 2.7 6 1 6 C0.67 7.32 0.34 8.64 0 10 C-0.33 9.67 -0.66 9.34 -1 9 C-0.91062197 7.47480724 -0.75462854 5.95318071 -0.5625 4.4375 C-0.46066406 3.61121094 -0.35882812 2.78492188 -0.25390625 1.93359375 C-0.17011719 1.29550781 -0.08632813 0.65742188 0 0 Z " fill="#002561" transform="translate(24,19)"/>
</svg>
