<?xml version="1.0" encoding="UTF-8"?>
<svg version="1.1" xmlns="http://www.w3.org/2000/svg" width="24" height="24">
<path d="M0 0 C2.81256281 -0.02684312 5.62487241 -0.04676188 8.4375 -0.0625 C9.23994141 -0.07087891 10.04238281 -0.07925781 10.86914062 -0.08789062 C12.91295221 -0.0965143 14.95683902 -0.0522815 17 0 C18.73849628 1.73849628 18.17216296 4.0786637 18.1875 6.4375 C18.20167969 7.42621094 18.21585938 8.41492188 18.23046875 9.43359375 C18 12 18 12 16 14 C12.9609375 14.1953125 12.9609375 14.1953125 9.375 14.125 C8.18648437 14.10695313 6.99796875 14.08890625 5.7734375 14.0703125 C4.85820312 14.04710937 3.94296875 14.02390625 3 14 C3 13.34 3 12.68 3 12 C2.34 12 1.68 12 1 12 C1 12.66 1 13.32 1 14 C-0.98 14 -2.96 14 -5 14 C-3.35 9.38 -1.7 4.76 0 0 Z " fill="#002664" transform="translate(5,4)"/>
<path d="M0 0 C1.98 0 3.96 0 6 0 C6.05395478 1.62463842 6.09277195 3.24978541 6.125 4.875 C6.14820313 5.77992187 6.17140625 6.68484375 6.1953125 7.6171875 C6 10 6 10 4 12 C3.01 12 2.02 12 1 12 C1 12.66 1 13.32 1 14 C-0.98 14 -2.96 14 -5 14 C-3.35 9.38 -1.7 4.76 0 0 Z " fill="#00358A" transform="translate(5,4)"/>
<path d="M0 0 C1.2065625 0.0309375 1.2065625 0.0309375 2.4375 0.0625 C1.4475 0.7225 0.4575 1.3825 -0.5625 2.0625 C-0.81280977 4.64630177 -0.81280977 4.64630177 -0.5625 7.0625 C0.0975 6.7325 0.7575 6.4025 1.4375 6.0625 C0.89026317 9.43712715 0.3826 11.14485 -1.5625 14.0625 C-4.1875 14.25 -4.1875 14.25 -6.5625 14.0625 C-6.24410156 13.49917969 -5.92570313 12.93585937 -5.59765625 12.35546875 C-4.49544941 9.91397661 -4.20647458 8.0328111 -4 5.375 C-3.57593892 0.08721802 -3.57593892 0.08721802 0 0 Z " fill="#002B70" transform="translate(14.5625,3.9375)"/>
</svg>
