<?xml version="1.0" encoding="UTF-8"?>
<svg version="1.1" xmlns="http://www.w3.org/2000/svg" width="16" height="16">
<path d="M0 0 C3.96 0 7.92 0 12 0 C13.20879121 6.04395604 13.20879121 6.04395604 12 10 C9.0387106 11.4806447 6.26914933 11.05837767 3 11 C2.34 11 1.68 11 1 11 C-0.32 11 -1.64 11 -3 11 C-2.32829194 7.1936543 -1.27253436 3.64793184 0 0 Z " fill="#002F7C" transform="translate(3,2)"/>
<path d="M0 0 C1.65 0.33 3.3 0.66 5 1 C5.35915493 7.34507042 5.35915493 7.34507042 3.9375 9.9375 C0.98831309 11.55479605 -1.70867559 11.18630138 -5 11 C-5.33 10.34 -5.66 9.68 -6 9 C-5.21625 8.401875 -4.4325 7.80375 -3.625 7.1875 C-0.85425677 5.08914751 -0.85425677 5.08914751 1 2 C0.67 1.34 0.34 0.68 0 0 Z " fill="#002157" transform="translate(11,2)"/>
<path d="M0 0 C1.32 0 2.64 0 4 0 C3.42655063 2.86724686 3.1385485 3.8614515 1 6 C0.3574765 8.06874034 0.3574765 8.06874034 0 10 C-1.98 10 -3.96 10 -6 10 C-5.566875 9.52949219 -5.13375 9.05898437 -4.6875 8.57421875 C-4.130625 7.95160156 -3.57375 7.32898438 -3 6.6875 C-2.443125 6.07261719 -1.88625 5.45773438 -1.3125 4.82421875 C0.29201498 2.96868665 0.29201498 2.96868665 0 0 Z " fill="#00286A" transform="translate(11,2)"/>
<path d="M0 0 C1.32 0 2.64 0 4 0 C4 1.98 4 3.96 4 6 C3.01 6.33 2.02 6.66 1 7 C1 6.01 1 5.02 1 4 C0.34 4 -0.32 4 -1 4 C-0.67 2.68 -0.34 1.36 0 0 Z " fill="#00368F" transform="translate(3,3)"/>
</svg>
