<?xml version="1.0" encoding="UTF-8"?>
<svg xmlns="http://www.w3.org/2000/svg" xmlns:xlink="http://www.w3.org/1999/xlink" width="700px" height="700px" viewBox="0 0 700 700" version="1.1">
<g id="surface1">
<path style=" stroke:none;fill-rule:nonzero;fill:rgb(0%,0%,0%);fill-opacity:1;" d="M 462.164062 133.546875 C 420.21875 133.765625 385.710938 134.148438 385.492188 134.367188 C 384.726562 135.1875 381.226562 146.617188 379.859375 152.6875 C 379.148438 156.078125 377.617188 166.632812 376.578125 176.09375 C 375.484375 185.554688 371.109375 223.835938 366.84375 261.132812 C 359.460938 325.992188 359.132812 329.4375 359.078125 339.882812 C 359.078125 347.59375 359.351562 351.859375 359.898438 354.375 L 360.71875 357.929688 L 364.21875 358.257812 C 368.757812 358.640625 380.515625 357.929688 386.421875 356.890625 C 388.9375 356.453125 401.898438 353.226562 415.1875 349.78125 C 444.117188 342.289062 510.125 325.171875 520.898438 322.382812 C 525.109375 321.34375 530.796875 319.8125 533.476562 319.101562 C 536.210938 318.335938 547.53125 315.601562 558.632812 313.03125 C 589.75 305.8125 603.257812 301.65625 617.257812 295.039062 C 628.304688 289.789062 631.75 287.382812 639.898438 279.070312 C 653.296875 265.398438 658.21875 257.25 661.335938 243.359375 C 662.375 238.765625 662.539062 236.523438 662.539062 223.945312 C 662.484375 211.476562 662.375 208.851562 661.226562 202.617188 C 656.304688 174.78125 640.71875 153.507812 617.695312 143.007812 C 601.617188 135.679688 581.929688 132.78125 550.15625 133 C 543.703125 133.054688 504.109375 133.273438 462.164062 133.546875 Z M 530.085938 232.96875 C 537.742188 233.84375 539.4375 234.9375 542.554688 240.625 C 544.195312 243.632812 544.195312 243.6875 543.59375 248.335938 C 542.882812 254.1875 541.898438 257.523438 539.601562 261.679688 C 536.539062 267.148438 531.234375 270.210938 523.140625 271.25 C 520.132812 271.632812 487.320312 270.976562 486.9375 270.484375 C 486.882812 270.484375 488.03125 262.171875 489.507812 252.109375 C 490.984375 242.046875 492.1875 233.460938 492.1875 233.078125 C 492.1875 232.257812 522.757812 232.148438 530.085938 232.96875 Z M 530.085938 232.96875 "/>
<path style=" stroke:none;fill-rule:nonzero;fill:rgb(0%,0%,0%);fill-opacity:1;" d="M 175.273438 134.75 C 172.15625 136.171875 170.132812 138.359375 168.109375 142.296875 C 165.757812 146.945312 122.445312 254.84375 121.570312 258.34375 C 120.75 261.40625 120.75 262.007812 121.625 265.890625 C 122.117188 268.1875 122.828125 270.320312 123.210938 270.59375 C 124.359375 271.578125 132.835938 272.890625 137.648438 272.890625 C 141.859375 272.890625 145.796875 272.015625 179.046875 263.648438 C 307.234375 231.273438 319.59375 227.992188 323.75 225.203125 C 326.375 223.398438 327.6875 219.078125 327.6875 212.1875 C 327.742188 201.742188 317.734375 159.140625 310.1875 137.265625 L 309.148438 134.257812 L 292.796875 133.929688 C 283.828125 133.765625 254.296875 133.546875 227.226562 133.546875 L 178.007812 133.4375 Z M 175.273438 134.75 "/>
<path style=" stroke:none;fill-rule:nonzero;fill:rgb(0%,0%,0%);fill-opacity:1;" d="M 296.40625 241.28125 C 291.867188 241.9375 175.65625 267.367188 155.859375 272.015625 C 130.976562 277.867188 129.445312 278.46875 124.578125 283.664062 C 121.570312 286.945312 118.945312 291.976562 115.390625 301.328125 C 109.867188 315.929688 100.898438 337.585938 90.78125 360.664062 C 62.453125 425.414062 34.617188 490 32.976562 494.648438 C 31.335938 499.40625 30.84375 506.515625 31.828125 510.78125 L 32.539062 513.789062 L 50.585938 514.171875 C 60.539062 514.445312 86.460938 514.554688 108.226562 514.445312 L 147.820312 514.335938 L 150.5 511.328125 C 154.21875 507.226562 156.570312 502.25 162.203125 486.773438 C 163.625 482.945312 169.53125 458.773438 169.53125 456.914062 C 169.53125 456.75 189.21875 456.640625 213.28125 456.640625 C 248.5 456.640625 257.03125 456.75 257.03125 457.351562 C 257.03125 457.734375 257.90625 466.046875 258.945312 475.78125 C 260.914062 494.15625 262.007812 501.757812 262.992188 503.507812 C 263.265625 504.054688 264.523438 506.625 265.726562 509.25 L 267.914062 514.0625 L 373.625 514.171875 C 536.703125 514.390625 534.132812 514.445312 543.867188 513.023438 C 565.851562 509.742188 581 505.421875 595.929688 498.203125 C 608.78125 491.914062 618.40625 484.804688 628.46875 474.140625 C 642.140625 459.703125 653.625 434.546875 657.945312 409.554688 C 659.09375 403.046875 659.257812 400.476562 659.257812 386.914062 L 659.257812 371.601562 L 657.671875 367.226562 C 654.007812 357 648.703125 348.578125 640.71875 340.265625 C 637.65625 337.09375 633.226562 332.9375 630.820312 331.023438 C 624.640625 326.046875 613.703125 318.882812 607.304688 315.601562 C 592.921875 308.21875 587.070312 308.328125 551.140625 316.96875 C 527.953125 322.492188 413.984375 350.984375 400.3125 354.648438 C 375.921875 361.15625 359.023438 366.023438 358.421875 366.625 C 358.09375 366.953125 356.125 374.664062 354.046875 383.742188 C 351.96875 392.875 350.164062 400.09375 349.945312 399.875 C 349.726562 399.65625 346.0625 381.390625 341.796875 359.296875 C 329.382812 295.148438 324.679688 272.234375 318.390625 245 L 317.40625 240.898438 L 308.710938 240.84375 C 303.898438 240.789062 298.375 240.953125 296.40625 241.28125 Z M 233.515625 300.34375 C 236.03125 311.28125 238.382812 327.03125 239.53125 340.703125 C 239.859375 344.476562 240.242188 348.6875 240.351562 350.109375 L 240.679688 352.734375 L 210.4375 352.734375 L 210.65625 349.289062 C 210.820312 346.554688 212.734375 340.976562 220.335938 320.578125 C 229.085938 297.28125 229.90625 295.3125 231.054688 295.3125 C 232.203125 295.3125 232.421875 295.804688 233.515625 300.34375 Z M 526.695312 368.046875 C 532.109375 370.234375 535.882812 372.914062 538.945312 376.851562 L 541.515625 380.132812 L 541.1875 384.507812 C 540.421875 393.039062 537.578125 400.53125 533.914062 403.539062 C 530.578125 406.328125 524.617188 409.007812 519.53125 409.992188 C 515.539062 410.703125 511.929688 410.8125 494.15625 410.539062 C 482.78125 410.375 473.375 410.101562 473.265625 409.992188 C 473.15625 409.882812 473.648438 400.148438 474.414062 388.28125 C 475.179688 376.46875 475.78125 366.734375 475.78125 366.625 C 475.78125 366.515625 486.335938 366.40625 499.242188 366.40625 L 522.703125 366.40625 Z M 526.695312 368.046875 "/>
</g>
</svg>
